M48
; DRILL file {KiCad 8.0.3-8.0.3-0~ubuntu23.10.1} date 2024-10-02T15:45:30-0400
; FORMAT={-:-/ absolute / inch / decimal}
; #@! TF.CreationDate,2024-10-02T15:45:30-04:00
; #@! TF.GenerationSoftware,Kicad,Pcbnew,8.0.3-8.0.3-0~ubuntu23.10.1
; #@! TF.FileFunction,Plated,1,2,PTH
FMAT,2
INCH
; #@! TA.AperFunction,Plated,PTH,ViaDrill
T1C0.0118
; #@! TA.AperFunction,Plated,PTH,ComponentDrill
T2C0.0236
; #@! TA.AperFunction,Plated,PTH,ComponentDrill
T3C0.0394
; #@! TA.AperFunction,Plated,PTH,ComponentDrill
T4C0.0984
%
G90
G05
T1
X5.4512Y-4.0512
X5.5315Y-3.5402
X5.552Y-4.4748
X5.573Y-4.56
X5.602Y-4.4736
X5.6091Y-3.5882
X5.6102Y-3.5406
X5.615Y-4.1476
X5.6193Y-4.0138
X5.6193Y-4.0886
X5.7315Y-4.3311
X5.8307Y-3.7795
X5.8307Y-3.8583
X5.8843Y-4.3846
X5.9843Y-3.6063
X5.9843Y-3.7539
X6.063Y-4.372
X6.126Y-4.5878
X6.1417Y-3.6063
X6.1417Y-3.7539
X6.1417Y-4.3638
X6.1811Y-4.5079
X6.2205Y-4.3606
X6.2476Y-3.8193
X6.2677Y-4.5669
X6.3035Y-4.2169
X6.4173Y-4.5476
X6.4915Y-3.953
X6.5197Y-3.502
X6.5457Y-3.8583
X6.576Y-4.0157
T3
X5.81Y-3.3661
X5.81Y-4.7441
X5.91Y-3.3661
X5.91Y-4.7441
X6.01Y-3.3661
X6.01Y-4.7441
X6.11Y-3.3661
X6.11Y-4.7441
X6.21Y-3.3661
X6.21Y-4.7441
X6.31Y-3.3661
X6.31Y-4.7441
X6.41Y-3.3661
X6.41Y-4.7441
X6.51Y-3.3661
X6.51Y-4.7441
X6.61Y-3.3661
X6.61Y-4.7441
X6.71Y-3.3661
X6.71Y-4.7441
T4
X5.2756Y-3.4055
X5.2756Y-4.7047
X7.0472Y-3.4055
X7.0472Y-4.7047
T2
G00X5.2067Y-3.8811
M15
G01X5.1831Y-3.8811
M16
G05
G00X5.2067Y-4.2213
M15
G01X5.1831Y-4.2213
M16
G05
G00X5.3811Y-3.8811
M15
G01X5.3378Y-3.8811
M16
G05
G00X5.3811Y-4.2213
M15
G01X5.3378Y-4.2213
M16
G05
M30
