%TF.GenerationSoftware,KiCad,Pcbnew,8.0.3-8.0.3-0~ubuntu23.10.1*%
%TF.CreationDate,2024-10-02T15:45:30-04:00*%
%TF.ProjectId,nPM1300-Stamp-Carrier,6e504d31-3330-4302-9d53-74616d702d43,rev?*%
%TF.SameCoordinates,Original*%
%TF.FileFunction,Legend,Bot*%
%TF.FilePolarity,Positive*%
%FSLAX46Y46*%
G04 Gerber Fmt 4.6, Leading zero omitted, Abs format (unit mm)*
G04 Created by KiCad (PCBNEW 8.0.3-8.0.3-0~ubuntu23.10.1) date 2024-10-02 15:45:30*
%MOMM*%
%LPD*%
G01*
G04 APERTURE LIST*
%ADD10C,0.120000*%
%ADD11C,2.900000*%
%ADD12C,5.000000*%
%ADD13C,0.650000*%
%ADD14O,2.100000X1.000000*%
%ADD15O,1.600000X1.000000*%
%ADD16R,1.500000X1.000000*%
%ADD17R,1.700000X1.700000*%
%ADD18O,1.700000X1.700000*%
G04 APERTURE END LIST*
D10*
%TO.C,JP2*%
X151000000Y-92100000D02*
X153000000Y-92100000D01*
X151000000Y-94900000D02*
X151000000Y-92100000D01*
X153000000Y-92100000D02*
X153000000Y-94900000D01*
X153000000Y-94900000D02*
X151000000Y-94900000D01*
%TO.C,J8*%
X146245000Y-84170000D02*
X147575000Y-84170000D01*
X146245000Y-85500000D02*
X146245000Y-84170000D01*
X148845000Y-86830000D02*
X148845000Y-84170000D01*
X171765000Y-84170000D02*
X148845000Y-84170000D01*
X171765000Y-86830000D02*
X148845000Y-86830000D01*
X171765000Y-86830000D02*
X171765000Y-84170000D01*
%TO.C,JP1*%
X155000000Y-92100000D02*
X157000000Y-92100000D01*
X155000000Y-94900000D02*
X155000000Y-92100000D01*
X157000000Y-92100000D02*
X157000000Y-94900000D01*
X157000000Y-94900000D02*
X155000000Y-94900000D01*
%TO.C,J6*%
X146245000Y-119170000D02*
X147575000Y-119170000D01*
X146245000Y-120500000D02*
X146245000Y-119170000D01*
X148845000Y-121830000D02*
X148845000Y-119170000D01*
X171765000Y-119170000D02*
X148845000Y-119170000D01*
X171765000Y-121830000D02*
X148845000Y-121830000D01*
X171765000Y-121830000D02*
X171765000Y-119170000D01*
%TD*%
%LPC*%
D11*
%TO.C,H4*%
X179000000Y-119500000D03*
D12*
X179000000Y-119500000D03*
%TD*%
D11*
%TO.C,H3*%
X179000000Y-86500000D03*
D12*
X179000000Y-86500000D03*
%TD*%
D13*
%TO.C,J1*%
X135600000Y-100010000D03*
X135600000Y-105790000D03*
D14*
X136130000Y-98580000D03*
D15*
X131950000Y-98580000D03*
D14*
X136130000Y-107220000D03*
D15*
X131950000Y-107220000D03*
%TD*%
D11*
%TO.C,H2*%
X134000000Y-119500000D03*
D12*
X134000000Y-119500000D03*
%TD*%
D11*
%TO.C,H1*%
X134000000Y-86500000D03*
D12*
X134000000Y-86500000D03*
%TD*%
D16*
%TO.C,JP2*%
X152000000Y-92850000D03*
X152000000Y-94150000D03*
%TD*%
D17*
%TO.C,J8*%
X147575000Y-85500000D03*
D18*
X150115000Y-85500000D03*
X152655000Y-85500000D03*
X155195000Y-85500000D03*
X157735000Y-85500000D03*
X160275000Y-85500000D03*
X162815000Y-85500000D03*
X165355000Y-85500000D03*
X167895000Y-85500000D03*
X170435000Y-85500000D03*
%TD*%
D16*
%TO.C,JP1*%
X156000000Y-92850000D03*
X156000000Y-94150000D03*
%TD*%
D17*
%TO.C,J6*%
X147575000Y-120500000D03*
D18*
X150115000Y-120500000D03*
X152655000Y-120500000D03*
X155195000Y-120500000D03*
X157735000Y-120500000D03*
X160275000Y-120500000D03*
X162815000Y-120500000D03*
X165355000Y-120500000D03*
X167895000Y-120500000D03*
X170435000Y-120500000D03*
%TD*%
%LPD*%
M02*
