%TF.GenerationSoftware,KiCad,Pcbnew,8.0.3-8.0.3-0~ubuntu23.10.1*%
%TF.CreationDate,2024-10-02T15:45:30-04:00*%
%TF.ProjectId,nPM1300-Stamp-Carrier,6e504d31-3330-4302-9d53-74616d702d43,rev?*%
%TF.SameCoordinates,Original*%
%TF.FileFunction,Copper,L1,Top*%
%TF.FilePolarity,Positive*%
%FSLAX46Y46*%
G04 Gerber Fmt 4.6, Leading zero omitted, Abs format (unit mm)*
G04 Created by KiCad (PCBNEW 8.0.3-8.0.3-0~ubuntu23.10.1) date 2024-10-02 15:45:30*
%MOMM*%
%LPD*%
G01*
G04 APERTURE LIST*
G04 Aperture macros list*
%AMRoundRect*
0 Rectangle with rounded corners*
0 $1 Rounding radius*
0 $2 $3 $4 $5 $6 $7 $8 $9 X,Y pos of 4 corners*
0 Add a 4 corners polygon primitive as box body*
4,1,4,$2,$3,$4,$5,$6,$7,$8,$9,$2,$3,0*
0 Add four circle primitives for the rounded corners*
1,1,$1+$1,$2,$3*
1,1,$1+$1,$4,$5*
1,1,$1+$1,$6,$7*
1,1,$1+$1,$8,$9*
0 Add four rect primitives between the rounded corners*
20,1,$1+$1,$2,$3,$4,$5,0*
20,1,$1+$1,$4,$5,$6,$7,0*
20,1,$1+$1,$6,$7,$8,$9,0*
20,1,$1+$1,$8,$9,$2,$3,0*%
G04 Aperture macros list end*
%TA.AperFunction,EtchedComponent*%
%ADD10C,0.000000*%
%TD*%
%TA.AperFunction,ComponentPad*%
%ADD11C,2.900000*%
%TD*%
%TA.AperFunction,ConnectorPad*%
%ADD12C,5.000000*%
%TD*%
%TA.AperFunction,SMDPad,CuDef*%
%ADD13RoundRect,0.150000X0.150000X0.625000X-0.150000X0.625000X-0.150000X-0.625000X0.150000X-0.625000X0*%
%TD*%
%TA.AperFunction,SMDPad,CuDef*%
%ADD14RoundRect,0.250000X0.350000X0.650000X-0.350000X0.650000X-0.350000X-0.650000X0.350000X-0.650000X0*%
%TD*%
%TA.AperFunction,SMDPad,CuDef*%
%ADD15R,1.500000X1.000000*%
%TD*%
%TA.AperFunction,SMDPad,CuDef*%
%ADD16RoundRect,0.135000X-0.185000X0.135000X-0.185000X-0.135000X0.185000X-0.135000X0.185000X0.135000X0*%
%TD*%
%TA.AperFunction,SMDPad,CuDef*%
%ADD17RoundRect,0.225000X-0.225000X-0.250000X0.225000X-0.250000X0.225000X0.250000X-0.225000X0.250000X0*%
%TD*%
%TA.AperFunction,SMDPad,CuDef*%
%ADD18RoundRect,0.150000X0.625000X-0.150000X0.625000X0.150000X-0.625000X0.150000X-0.625000X-0.150000X0*%
%TD*%
%TA.AperFunction,SMDPad,CuDef*%
%ADD19RoundRect,0.250000X0.650000X-0.350000X0.650000X0.350000X-0.650000X0.350000X-0.650000X-0.350000X0*%
%TD*%
%TA.AperFunction,SMDPad,CuDef*%
%ADD20R,1.000000X1.500000*%
%TD*%
%TA.AperFunction,SMDPad,CuDef*%
%ADD21RoundRect,0.150000X-0.512500X-0.150000X0.512500X-0.150000X0.512500X0.150000X-0.512500X0.150000X0*%
%TD*%
%TA.AperFunction,SMDPad,CuDef*%
%ADD22RoundRect,0.135000X0.185000X-0.135000X0.185000X0.135000X-0.185000X0.135000X-0.185000X-0.135000X0*%
%TD*%
%TA.AperFunction,SMDPad,CuDef*%
%ADD23R,0.650000X1.050000*%
%TD*%
%TA.AperFunction,SMDPad,CuDef*%
%ADD24RoundRect,0.225000X0.225000X0.250000X-0.225000X0.250000X-0.225000X-0.250000X0.225000X-0.250000X0*%
%TD*%
%TA.AperFunction,SMDPad,CuDef*%
%ADD25O,2.000000X1.000000*%
%TD*%
%TA.AperFunction,SMDPad,CuDef*%
%ADD26O,1.000000X2.000000*%
%TD*%
%TA.AperFunction,SMDPad,CuDef*%
%ADD27RoundRect,0.150000X-0.150000X-0.625000X0.150000X-0.625000X0.150000X0.625000X-0.150000X0.625000X0*%
%TD*%
%TA.AperFunction,SMDPad,CuDef*%
%ADD28RoundRect,0.250000X-0.350000X-0.650000X0.350000X-0.650000X0.350000X0.650000X-0.350000X0.650000X0*%
%TD*%
%TA.AperFunction,SMDPad,CuDef*%
%ADD29R,1.500000X1.100000*%
%TD*%
%TA.AperFunction,SMDPad,CuDef*%
%ADD30R,1.450000X0.600000*%
%TD*%
%TA.AperFunction,SMDPad,CuDef*%
%ADD31R,1.450000X0.300000*%
%TD*%
%TA.AperFunction,ComponentPad*%
%ADD32O,2.100000X1.000000*%
%TD*%
%TA.AperFunction,ComponentPad*%
%ADD33O,1.600000X1.000000*%
%TD*%
%TA.AperFunction,SMDPad,CuDef*%
%ADD34RoundRect,0.250000X1.500000X-0.250000X1.500000X0.250000X-1.500000X0.250000X-1.500000X-0.250000X0*%
%TD*%
%TA.AperFunction,SMDPad,CuDef*%
%ADD35RoundRect,0.250001X1.449999X-0.499999X1.449999X0.499999X-1.449999X0.499999X-1.449999X-0.499999X0*%
%TD*%
%TA.AperFunction,ComponentPad*%
%ADD36R,1.700000X1.700000*%
%TD*%
%TA.AperFunction,ComponentPad*%
%ADD37O,1.700000X1.700000*%
%TD*%
%TA.AperFunction,ViaPad*%
%ADD38C,0.600000*%
%TD*%
%TA.AperFunction,Conductor*%
%ADD39C,0.200000*%
%TD*%
G04 APERTURE END LIST*
D10*
%TA.AperFunction,EtchedComponent*%
%TO.C,JP5*%
G36*
X144750000Y-101800000D02*
G01*
X144250000Y-101800000D01*
X144250000Y-101200000D01*
X144750000Y-101200000D01*
X144750000Y-101800000D01*
G37*
%TD.AperFunction*%
%TD*%
D11*
%TO.P,H4,1,1*%
%TO.N,GND*%
X179000000Y-119500000D03*
D12*
X179000000Y-119500000D03*
%TD*%
D13*
%TO.P,J3,1,Pin_1*%
%TO.N,/SCL*%
X142500000Y-88500000D03*
%TO.P,J3,2,Pin_2*%
%TO.N,/SDA*%
X141500000Y-88500000D03*
%TO.P,J3,3,Pin_3*%
%TO.N,VDDIO*%
X140500000Y-88500000D03*
%TO.P,J3,4,Pin_4*%
%TO.N,GND*%
X139500000Y-88500000D03*
D14*
%TO.P,J3,MP,MountPin*%
X143800000Y-84625000D03*
X138200000Y-84625000D03*
%TD*%
D15*
%TO.P,JP4,1,A*%
%TO.N,VDDIO*%
X154000000Y-114850000D03*
%TO.P,JP4,2,B*%
%TO.N,+3.3V*%
X154000000Y-116150000D03*
%TD*%
D16*
%TO.P,R1,1*%
%TO.N,Net-(U1-VSET1)*%
X164000000Y-114490000D03*
%TO.P,R1,2*%
%TO.N,GND*%
X164000000Y-115510000D03*
%TD*%
D17*
%TO.P,C2,1*%
%TO.N,Net-(JP1-A)*%
X156000000Y-89000000D03*
%TO.P,C2,2*%
%TO.N,GND*%
X157550000Y-89000000D03*
%TD*%
D18*
%TO.P,J5,1,Pin_1*%
%TO.N,GND*%
X177025000Y-108725000D03*
%TO.P,J5,2,Pin_2*%
%TO.N,/NTC*%
X177025000Y-107725000D03*
%TO.P,J5,3,Pin_3*%
%TO.N,/VBAT*%
X177025000Y-106725000D03*
D19*
%TO.P,J5,MP,MountPin*%
%TO.N,GND*%
X180900000Y-110025000D03*
X180900000Y-105425000D03*
%TD*%
D20*
%TO.P,JP5,1,A*%
%TO.N,Net-(JP5-A)*%
X143850000Y-101500000D03*
%TO.P,JP5,2,B*%
%TO.N,/GPIO0*%
X145150000Y-101500000D03*
%TD*%
D21*
%TO.P,U3,1,I/O1*%
%TO.N,/CC1*%
X139462500Y-101950000D03*
%TO.P,U3,2,GND*%
%TO.N,GND*%
X139462500Y-102900000D03*
%TO.P,U3,3,I/O2*%
%TO.N,/CC2*%
X139462500Y-103850000D03*
%TO.P,U3,4,I/O2*%
X141737500Y-103850000D03*
%TO.P,U3,5,VBUS*%
%TO.N,Net-(U1-VBUS_IN)*%
X141737500Y-102900000D03*
%TO.P,U3,6,I/O1*%
%TO.N,/CC1*%
X141737500Y-101950000D03*
%TD*%
D22*
%TO.P,R4,1*%
%TO.N,VDDIO*%
X158000000Y-115510000D03*
%TO.P,R4,2*%
%TO.N,/SDA*%
X158000000Y-114490000D03*
%TD*%
D23*
%TO.P,SW1,1,1*%
%TO.N,GND*%
X143425000Y-111075000D03*
X143425000Y-106925000D03*
%TO.P,SW1,2,2*%
%TO.N,/SHPHLD*%
X145575000Y-111075000D03*
X145575000Y-106950000D03*
%TD*%
D16*
%TO.P,R2,1*%
%TO.N,Net-(U1-VSET2)*%
X162000000Y-114490000D03*
%TO.P,R2,2*%
%TO.N,GND*%
X162000000Y-115510000D03*
%TD*%
D24*
%TO.P,C3,1*%
%TO.N,Net-(JP2-A)*%
X151775000Y-89000000D03*
%TO.P,C3,2*%
%TO.N,GND*%
X150225000Y-89000000D03*
%TD*%
%TO.P,C4,1*%
%TO.N,Net-(JP2-A)*%
X151775000Y-90500000D03*
%TO.P,C4,2*%
%TO.N,GND*%
X150225000Y-90500000D03*
%TD*%
D22*
%TO.P,R3,1*%
%TO.N,VDDIO*%
X156000000Y-115510000D03*
%TO.P,R3,2*%
%TO.N,/SCL*%
X156000000Y-114490000D03*
%TD*%
D25*
%TO.P,U1,1,VOUT1*%
%TO.N,+1.8V*%
X149500000Y-96000000D03*
%TO.P,U1,2,VOUT2*%
%TO.N,+3.3V*%
X149500000Y-98000000D03*
%TO.P,U1,3,GND*%
%TO.N,GND*%
X149500000Y-100000000D03*
%TO.P,U1,4,GPIO0*%
%TO.N,/GPIO0*%
X149500000Y-102000000D03*
%TO.P,U1,5,GPIO1*%
%TO.N,/GPIO1*%
X149500000Y-104000000D03*
%TO.P,U1,6,GPIO2*%
%TO.N,/GPIO2*%
X149500000Y-106000000D03*
%TO.P,U1,7,GPIO3*%
%TO.N,/GPIO3*%
X149500000Y-108000000D03*
%TO.P,U1,8,GND*%
%TO.N,GND*%
X149500000Y-110000000D03*
D26*
%TO.P,U1,9,GPIO4*%
%TO.N,/GPIO4*%
X152000000Y-112500000D03*
%TO.P,U1,10,VDDIO*%
%TO.N,VDDIO*%
X154000000Y-112500000D03*
%TO.P,U1,11,SDA*%
%TO.N,/SCL*%
X156000000Y-112500000D03*
%TO.P,U1,12,SCL*%
%TO.N,/SDA*%
X158000000Y-112500000D03*
%TO.P,U1,13,SHPHLD*%
%TO.N,/SHPHLD*%
X160000000Y-112500000D03*
%TO.P,U1,14,VSET2*%
%TO.N,Net-(U1-VSET2)*%
X162000000Y-112500000D03*
%TO.P,U1,15,VSET1*%
%TO.N,Net-(U1-VSET1)*%
X164000000Y-112500000D03*
%TO.P,U1,16,GND*%
%TO.N,GND*%
X166000000Y-112500000D03*
D25*
%TO.P,U1,17,GND*%
X168500000Y-110000000D03*
%TO.P,U1,18,NTC*%
%TO.N,/NTC*%
X168500000Y-108000000D03*
%TO.P,U1,19,VBAT*%
%TO.N,/VBAT*%
X168500000Y-106000000D03*
%TO.P,U1,20,VSYS*%
%TO.N,VSYS*%
X168500000Y-104000000D03*
%TO.P,U1,21,VBUS_IN*%
%TO.N,Net-(U1-VBUS_IN)*%
X168500000Y-102000000D03*
%TO.P,U1,22,VBUS_OUT*%
%TO.N,/VBUS_OUT*%
X168500000Y-100000000D03*
%TO.P,U1,23,CC1*%
%TO.N,/CC1*%
X168500000Y-98000000D03*
%TO.P,U1,24,CC2*%
%TO.N,/CC2*%
X168500000Y-96000000D03*
D26*
%TO.P,U1,25,GND*%
%TO.N,GND*%
X166000000Y-93500000D03*
%TO.P,U1,26,LED0*%
%TO.N,Net-(D1-RK)*%
X164000000Y-93500000D03*
%TO.P,U1,27,LED1*%
%TO.N,Net-(D1-GK)*%
X162000000Y-93500000D03*
%TO.P,U1,28,LED2*%
%TO.N,Net-(D1-BK)*%
X160000000Y-93500000D03*
%TO.P,U1,29,LS1_IN*%
%TO.N,/LS1_IN*%
X158000000Y-93500000D03*
%TO.P,U1,30,LS1_OUT*%
%TO.N,/LS1_OUT*%
X156000000Y-93500000D03*
%TO.P,U1,31,LS2_IN*%
%TO.N,/LS2_IN*%
X154000000Y-93500000D03*
%TO.P,U1,32,LS2_OUT*%
%TO.N,/LS2_OUT*%
X152000000Y-93500000D03*
%TD*%
D27*
%TO.P,J2,1,Pin_1*%
%TO.N,/SCL*%
X139500000Y-117500000D03*
%TO.P,J2,2,Pin_2*%
%TO.N,/SDA*%
X140500000Y-117500000D03*
%TO.P,J2,3,Pin_3*%
%TO.N,VDDIO*%
X141500000Y-117500000D03*
%TO.P,J2,4,Pin_4*%
%TO.N,GND*%
X142500000Y-117500000D03*
D28*
%TO.P,J2,MP,MountPin*%
X138200000Y-121375000D03*
X143800000Y-121375000D03*
%TD*%
D11*
%TO.P,H3,1,1*%
%TO.N,GND*%
X179000000Y-86500000D03*
D12*
X179000000Y-86500000D03*
%TD*%
D29*
%TO.P,D1,1,RK*%
%TO.N,Net-(D1-RK)*%
X164500000Y-90450000D03*
%TO.P,D1,2,GK*%
%TO.N,Net-(D1-GK)*%
X161500000Y-90450000D03*
%TO.P,D1,3,BK*%
%TO.N,Net-(D1-BK)*%
X161500000Y-88950000D03*
%TO.P,D1,4,A*%
%TO.N,VSYS*%
X164500000Y-88950000D03*
%TD*%
D15*
%TO.P,JP3,1,A*%
%TO.N,/NTC*%
X172490000Y-108840000D03*
%TO.P,JP3,2,B*%
%TO.N,GND*%
X172490000Y-107540000D03*
%TD*%
D30*
%TO.P,J1,A1,GND*%
%TO.N,GND*%
X137045000Y-99650000D03*
%TO.P,J1,A4,VBUS*%
%TO.N,Net-(U1-VBUS_IN)*%
X137045000Y-100450000D03*
D31*
%TO.P,J1,A5,CC1*%
%TO.N,/CC1*%
X137045000Y-101650000D03*
%TO.P,J1,A6,D+*%
%TO.N,unconnected-(J1-D+-PadA6)*%
X137045000Y-102650000D03*
%TO.P,J1,A7,D-*%
%TO.N,unconnected-(J1-D--PadA7)*%
X137045000Y-103150000D03*
%TO.P,J1,A8*%
%TO.N,N/C*%
X137045000Y-104150000D03*
D30*
%TO.P,J1,A9,VBUS*%
%TO.N,Net-(U1-VBUS_IN)*%
X137045000Y-105350000D03*
%TO.P,J1,A12,GND*%
%TO.N,GND*%
X137045000Y-106150000D03*
%TO.P,J1,B1,GND*%
X137045000Y-106150000D03*
%TO.P,J1,B4,VBUS*%
%TO.N,Net-(U1-VBUS_IN)*%
X137045000Y-105350000D03*
D31*
%TO.P,J1,B5,CC2*%
%TO.N,/CC2*%
X137045000Y-104650000D03*
%TO.P,J1,B6,D+*%
%TO.N,unconnected-(J1-D+-PadB6)*%
X137045000Y-103650000D03*
%TO.P,J1,B7,D-*%
%TO.N,unconnected-(J1-D--PadB7)*%
X137045000Y-102150000D03*
%TO.P,J1,B8*%
%TO.N,N/C*%
X137045000Y-101150000D03*
D30*
%TO.P,J1,B9,VBUS*%
%TO.N,Net-(U1-VBUS_IN)*%
X137045000Y-100450000D03*
%TO.P,J1,B12,GND*%
%TO.N,GND*%
X137045000Y-99650000D03*
D32*
%TO.P,J1,S1,SHIELD*%
X136130000Y-98580000D03*
D33*
X131950000Y-98580000D03*
D32*
X136130000Y-107220000D03*
D33*
X131950000Y-107220000D03*
%TD*%
D34*
%TO.P,J4,1,Pin_1*%
%TO.N,/VBAT*%
X174350000Y-100475000D03*
%TO.P,J4,2,Pin_2*%
%TO.N,GND*%
X174350000Y-98475000D03*
D35*
%TO.P,J4,MP,MountPin*%
X180100000Y-102825000D03*
X180100000Y-96125000D03*
%TD*%
D11*
%TO.P,H2,1,1*%
%TO.N,GND*%
X134000000Y-119500000D03*
D12*
X134000000Y-119500000D03*
%TD*%
D11*
%TO.P,H1,1,1*%
%TO.N,GND*%
X134000000Y-86500000D03*
D12*
X134000000Y-86500000D03*
%TD*%
D17*
%TO.P,C1,1*%
%TO.N,Net-(JP1-A)*%
X156000000Y-90500000D03*
%TO.P,C1,2*%
%TO.N,GND*%
X157550000Y-90500000D03*
%TD*%
D23*
%TO.P,SW2,1,1*%
%TO.N,GND*%
X145575000Y-94925000D03*
X145575000Y-99075000D03*
%TO.P,SW2,2,2*%
%TO.N,Net-(JP5-A)*%
X143425000Y-94925000D03*
X143425000Y-99050000D03*
%TD*%
D36*
%TO.P,J8,1,Pin_1*%
%TO.N,/LS2_OUT*%
X147575000Y-85500000D03*
D37*
%TO.P,J8,2,Pin_2*%
%TO.N,/LS2_IN*%
X150115000Y-85500000D03*
%TO.P,J8,3,Pin_3*%
%TO.N,/LS1_OUT*%
X152655000Y-85500000D03*
%TO.P,J8,4,Pin_4*%
%TO.N,/LS1_IN*%
X155195000Y-85500000D03*
%TO.P,J8,5,Pin_5*%
%TO.N,+1.8V*%
X157735000Y-85500000D03*
%TO.P,J8,6,Pin_6*%
%TO.N,+3.3V*%
X160275000Y-85500000D03*
%TO.P,J8,7,Pin_7*%
%TO.N,/VBUS_OUT*%
X162815000Y-85500000D03*
%TO.P,J8,8,Pin_8*%
%TO.N,VSYS*%
X165355000Y-85500000D03*
%TO.P,J8,9,Pin_9*%
%TO.N,/VBAT*%
X167895000Y-85500000D03*
%TO.P,J8,10,Pin_10*%
%TO.N,GND*%
X170435000Y-85500000D03*
%TD*%
D36*
%TO.P,J6,1,Pin_1*%
%TO.N,/GPIO0*%
X147575000Y-120500000D03*
D37*
%TO.P,J6,2,Pin_2*%
%TO.N,/GPIO1*%
X150115000Y-120500000D03*
%TO.P,J6,3,Pin_3*%
%TO.N,/GPIO2*%
X152655000Y-120500000D03*
%TO.P,J6,4,Pin_4*%
%TO.N,/GPIO3*%
X155195000Y-120500000D03*
%TO.P,J6,5,Pin_5*%
%TO.N,/GPIO4*%
X157735000Y-120500000D03*
%TO.P,J6,6,Pin_6*%
%TO.N,VDDIO*%
X160275000Y-120500000D03*
%TO.P,J6,7,Pin_7*%
%TO.N,/SCL*%
X162815000Y-120500000D03*
%TO.P,J6,8,Pin_8*%
%TO.N,/SDA*%
X165355000Y-120500000D03*
%TO.P,J6,9,Pin_9*%
%TO.N,/SHPHLD*%
X167895000Y-120500000D03*
%TO.P,J6,10,Pin_10*%
%TO.N,/NTC*%
X170435000Y-120500000D03*
%TD*%
D38*
%TO.N,/CC2*%
X164885000Y-100405000D03*
X142730000Y-103850000D03*
%TO.N,GND*%
X163000000Y-115510000D03*
X138460000Y-102900000D03*
%TO.N,Net-(U1-VBUS_IN)*%
X167030000Y-102000000D03*
X142620000Y-105350000D03*
%TO.N,/CC1*%
X166260000Y-98000000D03*
X142730000Y-101950000D03*
%TO.N,Net-(JP1-A)*%
X156000000Y-91600000D03*
%TO.N,Net-(JP2-A)*%
X152000000Y-91600000D03*
%TO.N,/SCL*%
X141021390Y-113660000D03*
X157000000Y-114500000D03*
X159200000Y-116000000D03*
X156000000Y-110840000D03*
X142500000Y-89930000D03*
%TO.N,/SDA*%
X158000000Y-110760000D03*
X142470000Y-91140000D03*
X142290000Y-113630000D03*
%TO.N,/LS1_OUT*%
X156000000Y-95350000D03*
%TO.N,/LS2_OUT*%
X152000000Y-95350000D03*
%TO.N,+3.3V*%
X158690000Y-97010000D03*
X155600000Y-116530000D03*
X148100000Y-98000000D03*
X160110000Y-107110000D03*
%TO.N,VDDIO*%
X141554620Y-115824620D03*
X154000000Y-111050000D03*
X140500000Y-89920000D03*
%TO.N,VSYS*%
X165600000Y-88950000D03*
%TO.N,+1.8V*%
X148100000Y-96000000D03*
%TO.N,/SHPHLD*%
X145580000Y-110010000D03*
X149460000Y-111370000D03*
%TD*%
D39*
%TO.N,/CC2*%
X141737500Y-103850000D02*
X142730000Y-103850000D01*
X139462500Y-103850000D02*
X141737500Y-103850000D01*
X137850000Y-104650000D02*
X137045000Y-104650000D01*
X166050000Y-96000000D02*
X168500000Y-96000000D01*
X139462500Y-103850000D02*
X138650000Y-103850000D01*
X138650000Y-103850000D02*
X137850000Y-104650000D01*
X164885000Y-100405000D02*
X164885000Y-97165000D01*
X164885000Y-97165000D02*
X166050000Y-96000000D01*
%TO.N,GND*%
X162000000Y-115510000D02*
X163000000Y-115510000D01*
X139462500Y-102900000D02*
X138460000Y-102900000D01*
X164000000Y-115510000D02*
X163000000Y-115510000D01*
%TO.N,Net-(U1-VBUS_IN)*%
X143290000Y-105350000D02*
X143820000Y-104820000D01*
X136250000Y-105350000D02*
X136000000Y-105100000D01*
X136000000Y-100720000D02*
X136270000Y-100450000D01*
X136000000Y-105100000D02*
X136000000Y-100720000D01*
X167030000Y-102000000D02*
X168500000Y-102000000D01*
X143820000Y-103310000D02*
X143410000Y-102900000D01*
X137045000Y-105350000D02*
X136250000Y-105350000D01*
X136270000Y-100450000D02*
X137045000Y-100450000D01*
X137045000Y-105350000D02*
X143290000Y-105350000D01*
X143410000Y-102900000D02*
X141737500Y-102900000D01*
X143820000Y-104820000D02*
X143820000Y-103310000D01*
%TO.N,/CC1*%
X141737500Y-101950000D02*
X139462500Y-101950000D01*
X137045000Y-101650000D02*
X137950000Y-101650000D01*
X137950000Y-101650000D02*
X138250000Y-101950000D01*
X141737500Y-101950000D02*
X142730000Y-101950000D01*
X168500000Y-98000000D02*
X166260000Y-98000000D01*
X138250000Y-101950000D02*
X139462500Y-101950000D01*
%TO.N,Net-(JP1-A)*%
X156000000Y-91600000D02*
X156000000Y-89000000D01*
%TO.N,Net-(JP2-A)*%
X151775000Y-89000000D02*
X151775000Y-90500000D01*
X151775000Y-91375000D02*
X152000000Y-91600000D01*
X151775000Y-90500000D02*
X151775000Y-91375000D01*
%TO.N,/SCL*%
X162100000Y-118100000D02*
X162815000Y-118815000D01*
X142500000Y-88500000D02*
X142500000Y-89930000D01*
X159200000Y-116000000D02*
X161300000Y-118100000D01*
X156000000Y-114490000D02*
X156990000Y-114490000D01*
X162815000Y-118815000D02*
X162815000Y-120500000D01*
X156000000Y-110840000D02*
X156000000Y-112500000D01*
X139500000Y-117500000D02*
X139500000Y-115181390D01*
X156990000Y-114490000D02*
X157000000Y-114500000D01*
X156000000Y-112500000D02*
X156000000Y-114490000D01*
X139500000Y-115181390D02*
X141021390Y-113660000D01*
X161300000Y-118100000D02*
X162100000Y-118100000D01*
%TO.N,/SDA*%
X161400000Y-117200000D02*
X163500000Y-117200000D01*
X158000000Y-110760000D02*
X158000000Y-112500000D01*
X140500000Y-115420000D02*
X142290000Y-113630000D01*
X165355000Y-119055000D02*
X165355000Y-120500000D01*
X140500000Y-117500000D02*
X140500000Y-115420000D01*
X141500000Y-88500000D02*
X141500000Y-90170000D01*
X158000000Y-114490000D02*
X158000000Y-112500000D01*
X158000000Y-114490000D02*
X158690000Y-114490000D01*
X141500000Y-90170000D02*
X142470000Y-91140000D01*
X163500000Y-117200000D02*
X165355000Y-119055000D01*
X158690000Y-114490000D02*
X161400000Y-117200000D01*
%TO.N,/LS1_OUT*%
X156000000Y-93500000D02*
X156000000Y-92400000D01*
X152900000Y-86900000D02*
X152655000Y-86655000D01*
X152655000Y-86655000D02*
X152655000Y-85500000D01*
X155800000Y-92200000D02*
X155400000Y-92200000D01*
X156000000Y-93500000D02*
X156000000Y-95350000D01*
X154800000Y-88100000D02*
X153600000Y-86900000D01*
X155400000Y-92200000D02*
X154800000Y-91600000D01*
X153600000Y-86900000D02*
X152900000Y-86900000D01*
X154800000Y-91600000D02*
X154800000Y-88100000D01*
X156000000Y-92400000D02*
X155800000Y-92200000D01*
%TO.N,/LS2_OUT*%
X147575000Y-85500000D02*
X147575000Y-90475000D01*
X150600000Y-93500000D02*
X152000000Y-93500000D01*
X152000000Y-93500000D02*
X152000000Y-95350000D01*
X147575000Y-90475000D02*
X150600000Y-93500000D01*
%TO.N,Net-(U1-VSET1)*%
X164000000Y-114490000D02*
X164000000Y-112500000D01*
%TO.N,Net-(U1-VSET2)*%
X162000000Y-112500000D02*
X162000000Y-114490000D01*
%TO.N,Net-(D1-BK)*%
X160350000Y-88950000D02*
X160000000Y-89300000D01*
X160000000Y-89300000D02*
X160000000Y-93500000D01*
X161500000Y-88950000D02*
X160350000Y-88950000D01*
%TO.N,Net-(D1-RK)*%
X164500000Y-91400000D02*
X164000000Y-91900000D01*
X164500000Y-90450000D02*
X164500000Y-91400000D01*
X164000000Y-91900000D02*
X164000000Y-93500000D01*
%TO.N,/LS2_IN*%
X150115000Y-85500000D02*
X150115000Y-86815000D01*
X150115000Y-86815000D02*
X150800000Y-87500000D01*
X152900000Y-87500000D02*
X154000000Y-88600000D01*
X154000000Y-88600000D02*
X154000000Y-93500000D01*
X150800000Y-87500000D02*
X152900000Y-87500000D01*
%TO.N,/LS1_IN*%
X159100000Y-91100000D02*
X159100000Y-88200000D01*
X155195000Y-87095000D02*
X155195000Y-85500000D01*
X155800000Y-87700000D02*
X155195000Y-87095000D01*
X158000000Y-93500000D02*
X158000000Y-92200000D01*
X158000000Y-92200000D02*
X159100000Y-91100000D01*
X159100000Y-88200000D02*
X158600000Y-87700000D01*
X158600000Y-87700000D02*
X155800000Y-87700000D01*
%TO.N,Net-(D1-GK)*%
X162000000Y-91800000D02*
X162000000Y-93500000D01*
X161500000Y-90450000D02*
X161500000Y-91300000D01*
X161500000Y-91300000D02*
X162000000Y-91800000D01*
%TO.N,/VBAT*%
X172700000Y-106000000D02*
X173425000Y-106725000D01*
X172375000Y-100475000D02*
X172000000Y-100100000D01*
X168500000Y-106000000D02*
X171500000Y-106000000D01*
X172000000Y-91700000D02*
X167895000Y-87595000D01*
X174350000Y-100475000D02*
X172375000Y-100475000D01*
X171500000Y-105400000D02*
X171500000Y-106000000D01*
X172000000Y-100100000D02*
X172000000Y-91700000D01*
X173425000Y-106725000D02*
X177025000Y-106725000D01*
X172300000Y-104600000D02*
X171500000Y-105400000D01*
X174350000Y-103950000D02*
X173700000Y-104600000D01*
X167895000Y-87595000D02*
X167895000Y-85500000D01*
X173700000Y-104600000D02*
X172300000Y-104600000D01*
X171500000Y-106000000D02*
X172700000Y-106000000D01*
X174350000Y-100475000D02*
X174350000Y-103950000D01*
%TO.N,/NTC*%
X174875000Y-107725000D02*
X177025000Y-107725000D01*
X172490000Y-108840000D02*
X172490000Y-111840000D01*
X172500000Y-108850000D02*
X173750000Y-108850000D01*
X172490000Y-111840000D02*
X170435000Y-113895000D01*
X173750000Y-108850000D02*
X174875000Y-107725000D01*
X168500000Y-108000000D02*
X169900000Y-108000000D01*
X170435000Y-113895000D02*
X170435000Y-120500000D01*
X170750000Y-108850000D02*
X172500000Y-108850000D01*
X169900000Y-108000000D02*
X170750000Y-108850000D01*
%TO.N,+3.3V*%
X160110000Y-98430000D02*
X158690000Y-97010000D01*
X154000000Y-116150000D02*
X155220000Y-116150000D01*
X160110000Y-107110000D02*
X160110000Y-98430000D01*
X155220000Y-116150000D02*
X155600000Y-116530000D01*
X149500000Y-98000000D02*
X148100000Y-98000000D01*
%TO.N,VDDIO*%
X158000000Y-115510000D02*
X156000000Y-115510000D01*
X154000000Y-114850000D02*
X154850000Y-114850000D01*
X154850000Y-114850000D02*
X155510000Y-115510000D01*
X155510000Y-115510000D02*
X156000000Y-115510000D01*
X158000000Y-117000000D02*
X158000000Y-115510000D01*
X141500000Y-115879240D02*
X141554620Y-115824620D01*
X154000000Y-114850000D02*
X154000000Y-112500000D01*
X140500000Y-89920000D02*
X140500000Y-88500000D01*
X141500000Y-117500000D02*
X141500000Y-115879240D01*
X160275000Y-119275000D02*
X158000000Y-117000000D01*
X154000000Y-112500000D02*
X154000000Y-111050000D01*
X160275000Y-120500000D02*
X160275000Y-119275000D01*
%TO.N,Net-(JP5-A)*%
X143425000Y-99050000D02*
X143425000Y-94925000D01*
X143850000Y-100410000D02*
X143425000Y-99985000D01*
X143425000Y-99985000D02*
X143425000Y-99050000D01*
X143850000Y-101500000D02*
X143850000Y-100410000D01*
%TO.N,/GPIO0*%
X147180000Y-102520000D02*
X146500000Y-103200000D01*
X146160000Y-101500000D02*
X147180000Y-102520000D01*
X146500000Y-103200000D02*
X146500000Y-114500000D01*
X146500000Y-114500000D02*
X147575000Y-115575000D01*
X147700000Y-102000000D02*
X147180000Y-102520000D01*
X145150000Y-101500000D02*
X146160000Y-101500000D01*
X147575000Y-115575000D02*
X147575000Y-120500000D01*
X149500000Y-102000000D02*
X147700000Y-102000000D01*
%TO.N,VSYS*%
X164500000Y-88950000D02*
X165600000Y-88950000D01*
X166200000Y-86900000D02*
X171400000Y-92100000D01*
X171400000Y-102500000D02*
X169900000Y-104000000D01*
X165355000Y-85500000D02*
X165355000Y-86755000D01*
X165355000Y-86755000D02*
X165500000Y-86900000D01*
X171400000Y-92100000D02*
X171400000Y-102500000D01*
X165500000Y-86900000D02*
X166200000Y-86900000D01*
X169900000Y-104000000D02*
X168500000Y-104000000D01*
%TO.N,+1.8V*%
X149500000Y-96000000D02*
X148100000Y-96000000D01*
%TO.N,/SHPHLD*%
X160000000Y-111220000D02*
X158730000Y-109950000D01*
X158730000Y-109950000D02*
X152630000Y-109950000D01*
X160000000Y-112500000D02*
X160000000Y-114900000D01*
X145580000Y-110010000D02*
X145575000Y-110005000D01*
X167895000Y-118895000D02*
X167895000Y-120500000D01*
X160000000Y-114900000D02*
X161700000Y-116600000D01*
X152630000Y-109950000D02*
X151210000Y-111370000D01*
X145580000Y-110010000D02*
X145580000Y-111070000D01*
X161700000Y-116600000D02*
X165600000Y-116600000D01*
X160000000Y-112500000D02*
X160000000Y-111220000D01*
X145580000Y-111070000D02*
X145575000Y-111075000D01*
X151210000Y-111370000D02*
X149460000Y-111370000D01*
X165600000Y-116600000D02*
X167895000Y-118895000D01*
X145575000Y-110005000D02*
X145575000Y-106950000D01*
%TO.N,/VBUS_OUT*%
X163500000Y-87500000D02*
X162815000Y-86815000D01*
X168500000Y-100000000D02*
X170000000Y-100000000D01*
X170600000Y-92300000D02*
X165800000Y-87500000D01*
X162815000Y-86815000D02*
X162815000Y-85500000D01*
X170000000Y-100000000D02*
X170600000Y-99400000D01*
X165800000Y-87500000D02*
X163500000Y-87500000D01*
X170600000Y-99400000D02*
X170600000Y-92300000D01*
%TO.N,/GPIO2*%
X148100000Y-106000000D02*
X149500000Y-106000000D01*
X147500000Y-106600000D02*
X148100000Y-106000000D01*
X147500000Y-113700000D02*
X147500000Y-106600000D01*
X152655000Y-118855000D02*
X147500000Y-113700000D01*
X152655000Y-120500000D02*
X152655000Y-118855000D01*
%TO.N,/GPIO1*%
X147000000Y-105100000D02*
X147000000Y-113900000D01*
X149500000Y-104000000D02*
X148100000Y-104000000D01*
X150115000Y-117015000D02*
X150115000Y-120500000D01*
X148100000Y-104000000D02*
X147000000Y-105100000D01*
X147000000Y-113900000D02*
X150115000Y-117015000D01*
%TO.N,/GPIO4*%
X157000000Y-118300000D02*
X153900000Y-118300000D01*
X157735000Y-119035000D02*
X157000000Y-118300000D01*
X153900000Y-118300000D02*
X152000000Y-116400000D01*
X152000000Y-116400000D02*
X152000000Y-112500000D01*
X157735000Y-120500000D02*
X157735000Y-119035000D01*
%TO.N,/GPIO3*%
X148200000Y-108000000D02*
X149500000Y-108000000D01*
X153600000Y-118900000D02*
X148000000Y-113300000D01*
X148000000Y-113300000D02*
X148000000Y-108200000D01*
X154900000Y-118900000D02*
X153600000Y-118900000D01*
X148000000Y-108200000D02*
X148200000Y-108000000D01*
X155195000Y-120500000D02*
X155195000Y-119195000D01*
X155195000Y-119195000D02*
X154900000Y-118900000D01*
%TD*%
%TA.AperFunction,Conductor*%
%TO.N,GND*%
G36*
X138081499Y-102199703D02*
G01*
X138100112Y-102210449D01*
X138134006Y-102230019D01*
X138134014Y-102230022D01*
X138172224Y-102240260D01*
X138210435Y-102250499D01*
X138210436Y-102250500D01*
X138210438Y-102250500D01*
X138360505Y-102250500D01*
X138412831Y-102272174D01*
X138434505Y-102324500D01*
X138424200Y-102362169D01*
X138348718Y-102489800D01*
X138302900Y-102647506D01*
X138302704Y-102650000D01*
X140622296Y-102650000D01*
X140622099Y-102647506D01*
X140576281Y-102489800D01*
X140500800Y-102362169D01*
X140492820Y-102306097D01*
X140526826Y-102260805D01*
X140564495Y-102250500D01*
X140862241Y-102250500D01*
X140914567Y-102272174D01*
X140928720Y-102291997D01*
X140932877Y-102300500D01*
X140935802Y-102306483D01*
X141001993Y-102372674D01*
X141023667Y-102425000D01*
X141001993Y-102477326D01*
X140935801Y-102543517D01*
X140884427Y-102648605D01*
X140884427Y-102648606D01*
X140874500Y-102716735D01*
X140874500Y-103083264D01*
X140884427Y-103151393D01*
X140884427Y-103151394D01*
X140935801Y-103256482D01*
X141001993Y-103322674D01*
X141023667Y-103375000D01*
X141001993Y-103427326D01*
X140935802Y-103493516D01*
X140935802Y-103493517D01*
X140928721Y-103508000D01*
X140886270Y-103545490D01*
X140862241Y-103549500D01*
X140564495Y-103549500D01*
X140512169Y-103527826D01*
X140490495Y-103475500D01*
X140500800Y-103437831D01*
X140576281Y-103310199D01*
X140622099Y-103152493D01*
X140622296Y-103150000D01*
X138302704Y-103150000D01*
X138302900Y-103152493D01*
X138348718Y-103310199D01*
X138432317Y-103451556D01*
X138476444Y-103495683D01*
X138498118Y-103548009D01*
X138476444Y-103600335D01*
X138469171Y-103606714D01*
X138465490Y-103609538D01*
X138089013Y-103986015D01*
X138036687Y-104007689D01*
X137984361Y-103986015D01*
X137964109Y-103948126D01*
X137958867Y-103921769D01*
X137958866Y-103921768D01*
X137957445Y-103914620D01*
X137961628Y-103913787D01*
X137961527Y-103886191D01*
X137957445Y-103885379D01*
X137970500Y-103819746D01*
X137970500Y-103480253D01*
X137969991Y-103477696D01*
X137958867Y-103421769D01*
X137958866Y-103421768D01*
X137957445Y-103414621D01*
X137961628Y-103413788D01*
X137961527Y-103386191D01*
X137957445Y-103385379D01*
X137958867Y-103378231D01*
X137970500Y-103319748D01*
X137970500Y-102980252D01*
X137958867Y-102921769D01*
X137958866Y-102921768D01*
X137957445Y-102914621D01*
X137961628Y-102913788D01*
X137961527Y-102886191D01*
X137957445Y-102885379D01*
X137970500Y-102819746D01*
X137970500Y-102480253D01*
X137963794Y-102446542D01*
X137958867Y-102421769D01*
X137958866Y-102421768D01*
X137957445Y-102414621D01*
X137961628Y-102413788D01*
X137961527Y-102386191D01*
X137957445Y-102385379D01*
X137965364Y-102345566D01*
X137970500Y-102319748D01*
X137970500Y-102263789D01*
X137992174Y-102211463D01*
X138044500Y-102189789D01*
X138081499Y-102199703D01*
G37*
%TD.AperFunction*%
%TA.AperFunction,Conductor*%
G36*
X137078326Y-84022174D02*
G01*
X137100000Y-84074500D01*
X137100000Y-84375000D01*
X139299999Y-84375000D01*
X139299999Y-84074500D01*
X139321673Y-84022174D01*
X139373999Y-84000500D01*
X142626000Y-84000500D01*
X142678326Y-84022174D01*
X142700000Y-84074500D01*
X142700000Y-84375000D01*
X144899999Y-84375000D01*
X144899999Y-84074500D01*
X144921673Y-84022174D01*
X144973999Y-84000500D01*
X177108303Y-84000500D01*
X177160629Y-84022174D01*
X177182303Y-84074500D01*
X177160629Y-84126826D01*
X177155869Y-84131187D01*
X177062819Y-84209264D01*
X177062819Y-84209265D01*
X178309874Y-85456320D01*
X178185680Y-85546554D01*
X178046554Y-85685680D01*
X177956320Y-85809874D01*
X176706148Y-84559702D01*
X176697971Y-84568370D01*
X176489291Y-84848674D01*
X176489290Y-84848676D01*
X176314564Y-85151311D01*
X176314557Y-85151324D01*
X176176144Y-85472201D01*
X176075918Y-85806975D01*
X176015234Y-86151132D01*
X175994916Y-86500000D01*
X176015234Y-86848867D01*
X176075918Y-87193024D01*
X176176144Y-87527798D01*
X176314557Y-87848675D01*
X176314564Y-87848688D01*
X176489290Y-88151323D01*
X176489291Y-88151324D01*
X176697975Y-88431635D01*
X176706147Y-88440296D01*
X176706148Y-88440297D01*
X177956319Y-87190124D01*
X178046554Y-87314320D01*
X178185680Y-87453446D01*
X178309873Y-87543678D01*
X177062819Y-88790733D01*
X177062819Y-88790735D01*
X177205490Y-88910450D01*
X177205491Y-88910451D01*
X177497446Y-89102472D01*
X177497454Y-89102476D01*
X177809753Y-89259320D01*
X178138126Y-89378837D01*
X178138138Y-89378841D01*
X178478164Y-89459428D01*
X178478174Y-89459430D01*
X178825270Y-89500000D01*
X179174730Y-89500000D01*
X179521825Y-89459430D01*
X179521835Y-89459428D01*
X179861861Y-89378841D01*
X179861873Y-89378837D01*
X180190246Y-89259320D01*
X180502545Y-89102476D01*
X180502553Y-89102472D01*
X180794504Y-88910453D01*
X180937179Y-88790733D01*
X179690125Y-87543679D01*
X179814320Y-87453446D01*
X179953446Y-87314320D01*
X180043679Y-87190125D01*
X181293850Y-88440296D01*
X181302034Y-88431623D01*
X181302036Y-88431621D01*
X181371143Y-88338794D01*
X181419775Y-88309764D01*
X181474689Y-88323626D01*
X181503719Y-88372258D01*
X181504500Y-88382983D01*
X181504500Y-94801000D01*
X181482826Y-94853326D01*
X181430500Y-94875000D01*
X180350000Y-94875000D01*
X180350000Y-97375000D01*
X181430500Y-97375000D01*
X181482826Y-97396674D01*
X181504500Y-97449000D01*
X181504500Y-101501000D01*
X181482826Y-101553326D01*
X181430500Y-101575000D01*
X180350000Y-101575000D01*
X180350000Y-104075000D01*
X181430500Y-104075000D01*
X181482826Y-104096674D01*
X181504500Y-104149000D01*
X181504500Y-104251000D01*
X181482826Y-104303326D01*
X181430500Y-104325000D01*
X181150000Y-104325000D01*
X181150000Y-106524999D01*
X181430500Y-106524999D01*
X181482826Y-106546673D01*
X181504500Y-106598999D01*
X181504500Y-108851000D01*
X181482826Y-108903326D01*
X181430500Y-108925000D01*
X181150000Y-108925000D01*
X181150000Y-111124999D01*
X181430500Y-111124999D01*
X181482826Y-111146673D01*
X181504500Y-111198999D01*
X181504500Y-117617016D01*
X181482826Y-117669342D01*
X181430500Y-117691016D01*
X181378174Y-117669342D01*
X181371143Y-117661206D01*
X181302024Y-117568364D01*
X181293851Y-117559702D01*
X180043678Y-118809873D01*
X179953446Y-118685680D01*
X179814320Y-118546554D01*
X179690124Y-118456319D01*
X180937179Y-117209265D01*
X180937179Y-117209263D01*
X180794509Y-117089549D01*
X180794508Y-117089548D01*
X180502553Y-116897527D01*
X180502545Y-116897523D01*
X180190246Y-116740679D01*
X179861873Y-116621162D01*
X179861861Y-116621158D01*
X179521835Y-116540571D01*
X179521825Y-116540569D01*
X179174730Y-116500000D01*
X178825270Y-116500000D01*
X178478174Y-116540569D01*
X178478164Y-116540571D01*
X178138138Y-116621158D01*
X178138126Y-116621162D01*
X177809753Y-116740679D01*
X177497454Y-116897523D01*
X177497446Y-116897527D01*
X177205491Y-117089548D01*
X177205490Y-117089549D01*
X177062819Y-117209264D01*
X177062819Y-117209265D01*
X178309874Y-118456320D01*
X178185680Y-118546554D01*
X178046554Y-118685680D01*
X177956320Y-118809874D01*
X176706148Y-117559702D01*
X176697971Y-117568370D01*
X176489291Y-117848674D01*
X176489290Y-117848676D01*
X176314564Y-118151311D01*
X176314557Y-118151324D01*
X176176144Y-118472201D01*
X176075918Y-118806975D01*
X176015234Y-119151132D01*
X175994916Y-119500000D01*
X176015234Y-119848867D01*
X176075918Y-120193024D01*
X176176144Y-120527798D01*
X176314557Y-120848675D01*
X176314564Y-120848688D01*
X176489290Y-121151323D01*
X176489291Y-121151324D01*
X176697975Y-121431635D01*
X176706147Y-121440296D01*
X176706148Y-121440297D01*
X177956319Y-120190124D01*
X178046554Y-120314320D01*
X178185680Y-120453446D01*
X178309873Y-120543678D01*
X177062819Y-121790733D01*
X177062819Y-121790735D01*
X177155869Y-121868813D01*
X177182021Y-121919051D01*
X177164990Y-121973066D01*
X177114752Y-121999218D01*
X177108303Y-121999500D01*
X144974000Y-121999500D01*
X144921674Y-121977826D01*
X144900000Y-121925500D01*
X144900000Y-121625000D01*
X142700001Y-121625000D01*
X142700001Y-121925500D01*
X142678327Y-121977826D01*
X142626001Y-121999500D01*
X139374000Y-121999500D01*
X139321674Y-121977826D01*
X139300000Y-121925500D01*
X139300000Y-121625000D01*
X137100001Y-121625000D01*
X137100001Y-121925500D01*
X137078327Y-121977826D01*
X137026001Y-121999500D01*
X135891696Y-121999500D01*
X135839370Y-121977826D01*
X135817696Y-121925500D01*
X135839370Y-121873174D01*
X135844129Y-121868813D01*
X135937179Y-121790733D01*
X134690125Y-120543679D01*
X134814320Y-120453446D01*
X134953446Y-120314320D01*
X135043679Y-120190125D01*
X136293850Y-121440296D01*
X136302032Y-121431626D01*
X136510708Y-121151325D01*
X136510709Y-121151323D01*
X136685435Y-120848688D01*
X136685442Y-120848675D01*
X136760348Y-120675024D01*
X137100000Y-120675024D01*
X137100000Y-121125000D01*
X137950000Y-121125000D01*
X138450000Y-121125000D01*
X139299999Y-121125000D01*
X139299999Y-120675029D01*
X139299998Y-120675024D01*
X142700000Y-120675024D01*
X142700000Y-121125000D01*
X143550000Y-121125000D01*
X144050000Y-121125000D01*
X144899999Y-121125000D01*
X144899999Y-120675029D01*
X144899998Y-120675023D01*
X144889505Y-120572303D01*
X144834357Y-120405878D01*
X144742316Y-120256656D01*
X144742314Y-120256653D01*
X144618347Y-120132686D01*
X144618343Y-120132683D01*
X144469121Y-120040642D01*
X144302697Y-119985494D01*
X144199975Y-119975000D01*
X144050000Y-119975000D01*
X144050000Y-121125000D01*
X143550000Y-121125000D01*
X143550000Y-119975000D01*
X143400029Y-119975000D01*
X143400023Y-119975001D01*
X143297303Y-119985494D01*
X143130878Y-120040642D01*
X142981656Y-120132683D01*
X142857683Y-120256656D01*
X142765642Y-120405878D01*
X142710494Y-120572302D01*
X142700000Y-120675024D01*
X139299998Y-120675024D01*
X139299998Y-120675023D01*
X139289505Y-120572303D01*
X139234357Y-120405878D01*
X139142316Y-120256656D01*
X139142314Y-120256653D01*
X139018347Y-120132686D01*
X139018343Y-120132683D01*
X138869121Y-120040642D01*
X138702697Y-119985494D01*
X138599975Y-119975000D01*
X138450000Y-119975000D01*
X138450000Y-121125000D01*
X137950000Y-121125000D01*
X137950000Y-119975000D01*
X137800029Y-119975000D01*
X137800023Y-119975001D01*
X137697303Y-119985494D01*
X137530878Y-120040642D01*
X137381656Y-120132683D01*
X137257683Y-120256656D01*
X137165642Y-120405878D01*
X137110494Y-120572302D01*
X137100000Y-120675024D01*
X136760348Y-120675024D01*
X136823855Y-120527798D01*
X136924081Y-120193024D01*
X136984765Y-119848867D01*
X137005083Y-119500000D01*
X136984765Y-119151132D01*
X136924081Y-118806975D01*
X136823855Y-118472201D01*
X136685442Y-118151324D01*
X136685435Y-118151311D01*
X136510709Y-117848676D01*
X136510708Y-117848675D01*
X136302024Y-117568364D01*
X136293851Y-117559702D01*
X135043678Y-118809873D01*
X134953446Y-118685680D01*
X134814320Y-118546554D01*
X134690124Y-118456319D01*
X135937179Y-117209265D01*
X135937179Y-117209263D01*
X135794509Y-117089549D01*
X135794508Y-117089548D01*
X135502553Y-116897527D01*
X135502545Y-116897523D01*
X135391473Y-116841740D01*
X138999500Y-116841740D01*
X138999500Y-116841746D01*
X138999500Y-118158264D01*
X139009427Y-118226393D01*
X139009427Y-118226394D01*
X139060801Y-118331482D01*
X139060802Y-118331483D01*
X139143517Y-118414198D01*
X139248607Y-118465573D01*
X139316740Y-118475500D01*
X139316746Y-118475500D01*
X139683254Y-118475500D01*
X139683260Y-118475500D01*
X139751393Y-118465573D01*
X139856483Y-118414198D01*
X139939198Y-118331483D01*
X139939200Y-118331477D01*
X139939773Y-118330677D01*
X139940387Y-118330293D01*
X139943534Y-118327147D01*
X139944261Y-118327874D01*
X139987817Y-118300684D01*
X140042997Y-118313447D01*
X140060227Y-118330677D01*
X140060801Y-118331481D01*
X140060802Y-118331483D01*
X140143517Y-118414198D01*
X140248607Y-118465573D01*
X140316740Y-118475500D01*
X140316746Y-118475500D01*
X140683254Y-118475500D01*
X140683260Y-118475500D01*
X140751393Y-118465573D01*
X140856483Y-118414198D01*
X140939198Y-118331483D01*
X140939200Y-118331477D01*
X140939773Y-118330677D01*
X140940387Y-118330293D01*
X140943534Y-118327147D01*
X140944261Y-118327874D01*
X140987817Y-118300684D01*
X141042997Y-118313447D01*
X141060227Y-118330677D01*
X141060801Y-118331481D01*
X141060802Y-118331483D01*
X141143517Y-118414198D01*
X141248607Y-118465573D01*
X141316740Y-118475500D01*
X141316746Y-118475500D01*
X141683254Y-118475500D01*
X141683260Y-118475500D01*
X141743590Y-118466709D01*
X141798492Y-118480612D01*
X141817953Y-118502267D01*
X141832317Y-118526556D01*
X141948443Y-118642682D01*
X142089800Y-118726281D01*
X142247506Y-118772099D01*
X142250000Y-118772295D01*
X142750000Y-118772295D01*
X142752493Y-118772099D01*
X142910199Y-118726281D01*
X143051556Y-118642682D01*
X143167682Y-118526556D01*
X143251281Y-118385199D01*
X143297099Y-118227493D01*
X143300000Y-118190641D01*
X143300000Y-117750000D01*
X142750000Y-117750000D01*
X142750000Y-118772295D01*
X142250000Y-118772295D01*
X142250000Y-117250000D01*
X142750000Y-117250000D01*
X143300000Y-117250000D01*
X143300000Y-116809358D01*
X143297099Y-116772506D01*
X143251281Y-116614800D01*
X143167682Y-116473443D01*
X143051556Y-116357317D01*
X142910199Y-116273718D01*
X142752493Y-116227900D01*
X142750000Y-116227703D01*
X142750000Y-117250000D01*
X142250000Y-117250000D01*
X142250000Y-116227703D01*
X142247506Y-116227900D01*
X142089800Y-116273718D01*
X141948443Y-116357317D01*
X141926826Y-116378935D01*
X141874500Y-116400609D01*
X141822174Y-116378935D01*
X141800500Y-116326609D01*
X141800500Y-116301955D01*
X141822174Y-116249629D01*
X141834493Y-116239702D01*
X141885748Y-116206763D01*
X141979997Y-116097993D01*
X142039785Y-115967077D01*
X142060267Y-115824620D01*
X142039785Y-115682163D01*
X141979997Y-115551247D01*
X141948100Y-115514436D01*
X141885751Y-115442480D01*
X141885749Y-115442479D01*
X141885748Y-115442477D01*
X141804853Y-115390489D01*
X141764674Y-115364667D01*
X141764670Y-115364666D01*
X141626584Y-115324120D01*
X141626581Y-115324120D01*
X141482659Y-115324120D01*
X141482656Y-115324120D01*
X141344569Y-115364666D01*
X141344565Y-115364667D01*
X141223495Y-115442475D01*
X141223488Y-115442480D01*
X141129243Y-115551246D01*
X141069454Y-115682165D01*
X141048973Y-115824620D01*
X141069454Y-115967074D01*
X141069454Y-115967075D01*
X141069455Y-115967077D01*
X141129243Y-116097993D01*
X141172450Y-116147857D01*
X141181425Y-116158214D01*
X141199500Y-116206674D01*
X141199500Y-116512239D01*
X141177826Y-116564565D01*
X141158003Y-116578719D01*
X141143517Y-116585801D01*
X141060799Y-116668519D01*
X141060223Y-116669327D01*
X141059608Y-116669710D01*
X141056466Y-116672853D01*
X141055738Y-116672125D01*
X141012177Y-116699316D01*
X140956998Y-116686548D01*
X140939777Y-116669327D01*
X140939200Y-116668519D01*
X140856482Y-116585801D01*
X140841997Y-116578719D01*
X140804509Y-116536264D01*
X140800500Y-116512239D01*
X140800500Y-115575122D01*
X140822173Y-115522797D01*
X142192796Y-114152173D01*
X142245122Y-114130500D01*
X142361963Y-114130500D01*
X142361964Y-114130499D01*
X142500053Y-114089953D01*
X142621128Y-114012143D01*
X142715377Y-113903373D01*
X142775165Y-113772457D01*
X142795647Y-113630000D01*
X142775165Y-113487543D01*
X142715377Y-113356627D01*
X142621128Y-113247857D01*
X142553402Y-113204332D01*
X142500054Y-113170047D01*
X142500050Y-113170046D01*
X142361964Y-113129500D01*
X142361961Y-113129500D01*
X142218039Y-113129500D01*
X142218036Y-113129500D01*
X142079949Y-113170046D01*
X142079945Y-113170047D01*
X141958875Y-113247855D01*
X141958868Y-113247860D01*
X141864623Y-113356626D01*
X141804834Y-113487545D01*
X141784353Y-113630000D01*
X141789222Y-113663870D01*
X141775214Y-113718748D01*
X141768301Y-113726726D01*
X141632533Y-113862494D01*
X141580207Y-113884168D01*
X141527881Y-113862494D01*
X141506207Y-113810168D01*
X141506960Y-113799637D01*
X141527037Y-113660000D01*
X141506555Y-113517543D01*
X141446767Y-113386627D01*
X141399269Y-113331811D01*
X141352521Y-113277860D01*
X141352519Y-113277859D01*
X141352518Y-113277857D01*
X141295572Y-113241260D01*
X141231444Y-113200047D01*
X141231440Y-113200046D01*
X141093354Y-113159500D01*
X141093351Y-113159500D01*
X140949429Y-113159500D01*
X140949426Y-113159500D01*
X140811339Y-113200046D01*
X140811335Y-113200047D01*
X140690265Y-113277855D01*
X140690258Y-113277860D01*
X140596013Y-113386626D01*
X140536224Y-113517545D01*
X140515743Y-113660000D01*
X140520612Y-113693870D01*
X140506604Y-113748748D01*
X140499691Y-113756726D01*
X139315489Y-114940930D01*
X139259540Y-114996878D01*
X139219979Y-115065399D01*
X139219977Y-115065404D01*
X139199500Y-115141825D01*
X139199500Y-116512239D01*
X139177826Y-116564565D01*
X139158003Y-116578719D01*
X139143517Y-116585801D01*
X139060801Y-116668517D01*
X139009427Y-116773605D01*
X139009427Y-116773606D01*
X138999919Y-116838867D01*
X138999500Y-116841740D01*
X135391473Y-116841740D01*
X135190246Y-116740679D01*
X134861873Y-116621162D01*
X134861861Y-116621158D01*
X134521835Y-116540571D01*
X134521825Y-116540569D01*
X134174730Y-116500000D01*
X133825270Y-116500000D01*
X133478174Y-116540569D01*
X133478164Y-116540571D01*
X133138138Y-116621158D01*
X133138126Y-116621162D01*
X132809753Y-116740679D01*
X132497454Y-116897523D01*
X132497446Y-116897527D01*
X132205491Y-117089548D01*
X132205490Y-117089549D01*
X132062819Y-117209264D01*
X132062819Y-117209265D01*
X133309874Y-118456320D01*
X133185680Y-118546554D01*
X133046554Y-118685680D01*
X132956320Y-118809874D01*
X131706148Y-117559702D01*
X131697971Y-117568370D01*
X131633857Y-117654490D01*
X131585225Y-117683519D01*
X131530310Y-117669657D01*
X131501281Y-117621025D01*
X131500500Y-117610300D01*
X131500500Y-111647825D01*
X142600000Y-111647825D01*
X142606402Y-111707375D01*
X142606403Y-111707380D01*
X142656645Y-111842087D01*
X142656646Y-111842088D01*
X142742811Y-111957188D01*
X142857911Y-112043353D01*
X142857912Y-112043354D01*
X142992619Y-112093596D01*
X142992624Y-112093597D01*
X143052171Y-112100000D01*
X143175000Y-112100000D01*
X143675000Y-112100000D01*
X143797829Y-112100000D01*
X143857375Y-112093597D01*
X143857380Y-112093596D01*
X143992087Y-112043354D01*
X143992088Y-112043353D01*
X144107188Y-111957188D01*
X144193353Y-111842088D01*
X144193354Y-111842087D01*
X144243596Y-111707380D01*
X144243597Y-111707375D01*
X144250000Y-111647825D01*
X144250000Y-111325000D01*
X143675000Y-111325000D01*
X143675000Y-112100000D01*
X143175000Y-112100000D01*
X143175000Y-111325000D01*
X142600000Y-111325000D01*
X142600000Y-111647825D01*
X131500500Y-111647825D01*
X131500500Y-110502171D01*
X142600000Y-110502171D01*
X142600000Y-110825000D01*
X143175000Y-110825000D01*
X143675000Y-110825000D01*
X144250000Y-110825000D01*
X144250000Y-110502171D01*
X144243597Y-110442624D01*
X144243596Y-110442619D01*
X144193354Y-110307912D01*
X144193353Y-110307911D01*
X144107188Y-110192811D01*
X143992088Y-110106646D01*
X143992087Y-110106645D01*
X143857380Y-110056403D01*
X143857375Y-110056402D01*
X143797829Y-110050000D01*
X143675000Y-110050000D01*
X143675000Y-110825000D01*
X143175000Y-110825000D01*
X143175000Y-110050000D01*
X143052171Y-110050000D01*
X142992624Y-110056402D01*
X142992619Y-110056403D01*
X142857912Y-110106645D01*
X142857911Y-110106646D01*
X142742811Y-110192811D01*
X142656646Y-110307911D01*
X142656645Y-110307912D01*
X142606403Y-110442619D01*
X142606402Y-110442624D01*
X142600000Y-110502171D01*
X131500500Y-110502171D01*
X131500500Y-108294000D01*
X131522174Y-108241674D01*
X131574500Y-108220000D01*
X131700000Y-108220000D01*
X131700000Y-107520000D01*
X132200000Y-107520000D01*
X132200000Y-108220000D01*
X132348490Y-108220000D01*
X132541682Y-108181572D01*
X132541693Y-108181569D01*
X132723675Y-108106190D01*
X132887459Y-107996753D01*
X133026753Y-107857459D01*
X133136190Y-107693675D01*
X133211569Y-107511693D01*
X133211572Y-107511682D01*
X133219863Y-107470000D01*
X132416988Y-107470000D01*
X132434205Y-107460060D01*
X132490060Y-107404205D01*
X132529556Y-107335796D01*
X132550000Y-107259496D01*
X132550000Y-107180504D01*
X132529556Y-107104204D01*
X132490060Y-107035795D01*
X132434205Y-106979940D01*
X132416988Y-106970000D01*
X133219863Y-106970000D01*
X133219863Y-106969999D01*
X133211572Y-106928317D01*
X133211569Y-106928306D01*
X133136190Y-106746324D01*
X133026753Y-106582540D01*
X132887459Y-106443246D01*
X132723675Y-106333809D01*
X132541693Y-106258430D01*
X132541682Y-106258427D01*
X132348490Y-106220000D01*
X132200000Y-106220000D01*
X132200000Y-106920000D01*
X131700000Y-106920000D01*
X131700000Y-106220000D01*
X131574500Y-106220000D01*
X131522174Y-106198326D01*
X131500500Y-106146000D01*
X131500500Y-99654000D01*
X131522174Y-99601674D01*
X131574500Y-99580000D01*
X131700000Y-99580000D01*
X131700000Y-98880000D01*
X132200000Y-98880000D01*
X132200000Y-99580000D01*
X132348490Y-99580000D01*
X132541682Y-99541572D01*
X132541693Y-99541569D01*
X132723675Y-99466190D01*
X132887459Y-99356753D01*
X133026753Y-99217459D01*
X133136190Y-99053675D01*
X133211569Y-98871693D01*
X133211572Y-98871682D01*
X133219863Y-98830000D01*
X132416988Y-98830000D01*
X132434205Y-98820060D01*
X132490060Y-98764205D01*
X132529556Y-98695796D01*
X132550000Y-98619496D01*
X132550000Y-98540504D01*
X132529556Y-98464204D01*
X132490060Y-98395795D01*
X132434205Y-98339940D01*
X132416988Y-98330000D01*
X133219863Y-98330000D01*
X133219863Y-98329999D01*
X134610136Y-98329999D01*
X134610137Y-98330000D01*
X135413012Y-98330000D01*
X135395795Y-98339940D01*
X135339940Y-98395795D01*
X135300444Y-98464204D01*
X135280000Y-98540504D01*
X135280000Y-98619496D01*
X135300444Y-98695796D01*
X135339940Y-98764205D01*
X135395795Y-98820060D01*
X135413012Y-98830000D01*
X134610137Y-98830000D01*
X134618427Y-98871682D01*
X134618430Y-98871693D01*
X134693809Y-99053675D01*
X134803246Y-99217459D01*
X134942540Y-99356753D01*
X135106324Y-99466190D01*
X135162118Y-99489300D01*
X135202167Y-99529348D01*
X135202167Y-99585985D01*
X135186127Y-99609992D01*
X135139484Y-99656636D01*
X135063721Y-99787860D01*
X135063717Y-99787869D01*
X135024500Y-99934231D01*
X135024500Y-100085768D01*
X135063717Y-100232130D01*
X135063721Y-100232139D01*
X135132806Y-100351797D01*
X135139485Y-100363365D01*
X135246635Y-100470515D01*
X135377865Y-100546281D01*
X135524231Y-100585499D01*
X135524232Y-100585500D01*
X135628500Y-100585500D01*
X135680826Y-100607174D01*
X135702500Y-100659500D01*
X135699977Y-100678656D01*
X135699500Y-100680435D01*
X135699500Y-105140500D01*
X135677826Y-105192826D01*
X135625500Y-105214500D01*
X135524232Y-105214500D01*
X135377869Y-105253717D01*
X135377860Y-105253721D01*
X135246637Y-105329483D01*
X135139483Y-105436637D01*
X135063721Y-105567860D01*
X135063717Y-105567869D01*
X135024500Y-105714231D01*
X135024500Y-105865768D01*
X135063717Y-106012130D01*
X135063718Y-106012133D01*
X135063719Y-106012135D01*
X135139485Y-106143365D01*
X135186126Y-106190006D01*
X135207800Y-106242331D01*
X135186126Y-106294657D01*
X135162120Y-106310698D01*
X135106321Y-106333811D01*
X134942540Y-106443246D01*
X134803246Y-106582540D01*
X134693809Y-106746324D01*
X134618430Y-106928306D01*
X134618427Y-106928317D01*
X134610136Y-106969999D01*
X134610137Y-106970000D01*
X135413012Y-106970000D01*
X135395795Y-106979940D01*
X135339940Y-107035795D01*
X135300444Y-107104204D01*
X135280000Y-107180504D01*
X135280000Y-107259496D01*
X135300444Y-107335796D01*
X135339940Y-107404205D01*
X135395795Y-107460060D01*
X135413012Y-107470000D01*
X134610137Y-107470000D01*
X134618427Y-107511682D01*
X134618430Y-107511693D01*
X134693809Y-107693675D01*
X134803246Y-107857459D01*
X134942540Y-107996753D01*
X135106324Y-108106190D01*
X135288306Y-108181569D01*
X135288317Y-108181572D01*
X135481510Y-108220000D01*
X135880000Y-108220000D01*
X135880000Y-107520000D01*
X136380000Y-107520000D01*
X136380000Y-108220000D01*
X136778490Y-108220000D01*
X136971682Y-108181572D01*
X136971693Y-108181569D01*
X137153675Y-108106190D01*
X137317459Y-107996753D01*
X137456753Y-107857459D01*
X137566190Y-107693675D01*
X137641569Y-107511693D01*
X137641572Y-107511682D01*
X137644328Y-107497828D01*
X142600000Y-107497828D01*
X142606402Y-107557375D01*
X142606403Y-107557380D01*
X142656645Y-107692087D01*
X142656646Y-107692088D01*
X142742811Y-107807188D01*
X142857911Y-107893353D01*
X142857912Y-107893354D01*
X142992619Y-107943596D01*
X142992624Y-107943597D01*
X143052171Y-107950000D01*
X143175000Y-107950000D01*
X143675000Y-107950000D01*
X143797829Y-107950000D01*
X143857375Y-107943597D01*
X143857380Y-107943596D01*
X143992087Y-107893354D01*
X143992088Y-107893353D01*
X144107188Y-107807188D01*
X144193353Y-107692088D01*
X144193354Y-107692087D01*
X144243596Y-107557380D01*
X144243597Y-107557375D01*
X144250000Y-107497828D01*
X144250000Y-107175000D01*
X143675000Y-107175000D01*
X143675000Y-107950000D01*
X143175000Y-107950000D01*
X143175000Y-107175000D01*
X142600000Y-107175000D01*
X142600000Y-107497828D01*
X137644328Y-107497828D01*
X137649863Y-107470000D01*
X136846988Y-107470000D01*
X136864205Y-107460060D01*
X136920060Y-107404205D01*
X136959556Y-107335796D01*
X136980000Y-107259496D01*
X136980000Y-107180504D01*
X136959556Y-107104204D01*
X136920060Y-107035795D01*
X136864205Y-106979940D01*
X136846988Y-106970000D01*
X137657272Y-106970000D01*
X137694024Y-106950356D01*
X137701276Y-106950000D01*
X137817829Y-106950000D01*
X137877375Y-106943597D01*
X137877380Y-106943596D01*
X138012087Y-106893354D01*
X138012088Y-106893353D01*
X138127188Y-106807188D01*
X138213353Y-106692088D01*
X138213354Y-106692087D01*
X138263596Y-106557380D01*
X138263597Y-106557375D01*
X138270000Y-106497828D01*
X138270000Y-106400000D01*
X135970621Y-106400000D01*
X135918295Y-106378326D01*
X135907461Y-106352171D01*
X142600000Y-106352171D01*
X142600000Y-106675000D01*
X143175000Y-106675000D01*
X143675000Y-106675000D01*
X144250000Y-106675000D01*
X144250000Y-106352171D01*
X144243597Y-106292624D01*
X144243596Y-106292619D01*
X144193354Y-106157912D01*
X144193353Y-106157911D01*
X144107188Y-106042811D01*
X143992088Y-105956646D01*
X143992087Y-105956645D01*
X143857380Y-105906403D01*
X143857375Y-105906402D01*
X143797829Y-105900000D01*
X143675000Y-105900000D01*
X143675000Y-106675000D01*
X143175000Y-106675000D01*
X143175000Y-105900000D01*
X143052171Y-105900000D01*
X142992624Y-105906402D01*
X142992619Y-105906403D01*
X142892471Y-105943756D01*
X142879237Y-105943283D01*
X142868278Y-105952780D01*
X142857910Y-105956647D01*
X142742811Y-106042811D01*
X142656646Y-106157911D01*
X142656645Y-106157912D01*
X142606403Y-106292619D01*
X142606402Y-106292624D01*
X142600000Y-106352171D01*
X135907461Y-106352171D01*
X135896621Y-106326000D01*
X135918295Y-106273674D01*
X135933621Y-106261914D01*
X135953365Y-106250515D01*
X136060515Y-106143365D01*
X136136281Y-106012135D01*
X136151631Y-105954846D01*
X136186109Y-105909914D01*
X136223109Y-105900000D01*
X136795000Y-105900000D01*
X136812323Y-105882676D01*
X136816674Y-105872174D01*
X136869000Y-105850500D01*
X137221000Y-105850500D01*
X137273326Y-105872174D01*
X137277676Y-105882676D01*
X137295000Y-105900000D01*
X138270000Y-105900000D01*
X138270000Y-105802171D01*
X138263597Y-105742621D01*
X138263337Y-105741519D01*
X138263422Y-105740992D01*
X138263103Y-105738022D01*
X138263917Y-105737934D01*
X138272395Y-105685611D01*
X138318334Y-105652484D01*
X138335353Y-105650500D01*
X142184333Y-105650500D01*
X142236659Y-105672174D01*
X142240259Y-105676041D01*
X142288868Y-105732139D01*
X142288871Y-105732142D01*
X142288872Y-105732143D01*
X142331503Y-105759540D01*
X142385982Y-105794552D01*
X142409947Y-105809953D01*
X142508420Y-105838867D01*
X142548035Y-105850499D01*
X142548037Y-105850500D01*
X142548039Y-105850500D01*
X142691962Y-105850500D01*
X142731580Y-105838867D01*
X142821568Y-105812444D01*
X142825956Y-105812915D01*
X142826604Y-105812169D01*
X142830051Y-105809953D01*
X142830053Y-105809953D01*
X142951128Y-105732143D01*
X142979413Y-105699500D01*
X142999741Y-105676041D01*
X143050388Y-105650689D01*
X143055667Y-105650500D01*
X143329564Y-105650500D01*
X143329564Y-105650499D01*
X143405989Y-105630021D01*
X143474511Y-105590460D01*
X143530460Y-105534511D01*
X144060460Y-105004511D01*
X144072295Y-104984012D01*
X144100021Y-104935989D01*
X144120499Y-104859564D01*
X144120500Y-104859564D01*
X144120500Y-103270436D01*
X144111718Y-103237666D01*
X144101760Y-103200500D01*
X144100022Y-103194012D01*
X144075416Y-103151394D01*
X144060462Y-103125492D01*
X144060461Y-103125491D01*
X144060460Y-103125489D01*
X143594511Y-102659540D01*
X143575574Y-102648607D01*
X143573667Y-102647506D01*
X143525990Y-102619979D01*
X143525985Y-102619977D01*
X143449564Y-102599500D01*
X143449562Y-102599500D01*
X142612759Y-102599500D01*
X142560433Y-102577826D01*
X142546280Y-102558004D01*
X142539900Y-102544954D01*
X142536391Y-102488429D01*
X142573881Y-102445975D01*
X142627231Y-102441454D01*
X142658037Y-102450500D01*
X142658039Y-102450500D01*
X142801963Y-102450500D01*
X142801964Y-102450499D01*
X142940053Y-102409953D01*
X143061128Y-102332143D01*
X143061138Y-102332131D01*
X143062719Y-102330762D01*
X143063876Y-102330376D01*
X143065581Y-102329281D01*
X143065860Y-102329715D01*
X143116455Y-102312868D01*
X143167106Y-102338211D01*
X143172716Y-102345566D01*
X143205448Y-102394552D01*
X143249560Y-102424027D01*
X143271767Y-102438866D01*
X143271768Y-102438866D01*
X143271769Y-102438867D01*
X143330252Y-102450500D01*
X143330254Y-102450500D01*
X144369746Y-102450500D01*
X144369748Y-102450500D01*
X144428231Y-102438867D01*
X144458887Y-102418382D01*
X144514435Y-102407333D01*
X144541111Y-102418381D01*
X144571769Y-102438867D01*
X144630252Y-102450500D01*
X144630254Y-102450500D01*
X145669746Y-102450500D01*
X145669748Y-102450500D01*
X145728231Y-102438867D01*
X145794552Y-102394552D01*
X145838867Y-102328231D01*
X145850500Y-102269748D01*
X145850500Y-101874500D01*
X145872174Y-101822174D01*
X145924500Y-101800500D01*
X146004877Y-101800500D01*
X146057203Y-101822174D01*
X146702703Y-102467674D01*
X146724377Y-102520000D01*
X146702703Y-102572326D01*
X146259540Y-103015488D01*
X146219979Y-103084009D01*
X146219977Y-103084014D01*
X146199500Y-103160435D01*
X146199500Y-106268398D01*
X146177826Y-106320724D01*
X146125500Y-106342398D01*
X146073174Y-106320724D01*
X146063972Y-106309512D01*
X146044552Y-106280448D01*
X146016814Y-106261914D01*
X145978232Y-106236133D01*
X145978233Y-106236133D01*
X145948989Y-106230316D01*
X145919748Y-106224500D01*
X145230252Y-106224500D01*
X145201010Y-106230316D01*
X145171767Y-106236133D01*
X145105449Y-106280447D01*
X145105447Y-106280449D01*
X145061133Y-106346767D01*
X145057407Y-106365500D01*
X145049500Y-106405252D01*
X145049500Y-107494748D01*
X145052871Y-107511693D01*
X145061133Y-107553232D01*
X145086028Y-107590488D01*
X145105448Y-107619552D01*
X145149560Y-107649027D01*
X145171767Y-107663866D01*
X145171769Y-107663867D01*
X145214936Y-107672453D01*
X145262028Y-107703918D01*
X145274500Y-107745031D01*
X145274500Y-109571855D01*
X145252826Y-109624181D01*
X145248965Y-109627776D01*
X145248873Y-109627855D01*
X145154623Y-109736626D01*
X145094834Y-109867545D01*
X145074353Y-110010000D01*
X145094834Y-110152454D01*
X145094834Y-110152455D01*
X145094835Y-110152457D01*
X145154623Y-110283373D01*
X145154624Y-110283374D01*
X145154625Y-110283376D01*
X145155437Y-110284640D01*
X145155590Y-110285489D01*
X145156822Y-110288187D01*
X145156133Y-110288501D01*
X145165490Y-110340378D01*
X145134296Y-110386171D01*
X145105451Y-110405445D01*
X145105447Y-110405449D01*
X145061133Y-110471767D01*
X145055086Y-110502171D01*
X145050009Y-110527696D01*
X145049500Y-110530253D01*
X145049500Y-111619746D01*
X145061133Y-111678232D01*
X145080610Y-111707380D01*
X145105448Y-111744552D01*
X145144043Y-111770341D01*
X145171767Y-111788866D01*
X145171768Y-111788866D01*
X145171769Y-111788867D01*
X145230252Y-111800500D01*
X145230254Y-111800500D01*
X145919746Y-111800500D01*
X145919748Y-111800500D01*
X145978231Y-111788867D01*
X146044552Y-111744552D01*
X146063972Y-111715487D01*
X146111064Y-111684023D01*
X146166613Y-111695073D01*
X146198078Y-111742165D01*
X146199500Y-111756601D01*
X146199500Y-114539564D01*
X146219977Y-114615985D01*
X146219979Y-114615990D01*
X146248557Y-114665487D01*
X146248559Y-114665490D01*
X146259540Y-114684511D01*
X147252826Y-115677797D01*
X147274500Y-115730123D01*
X147274500Y-119375500D01*
X147252826Y-119427826D01*
X147200500Y-119449500D01*
X146705252Y-119449500D01*
X146676010Y-119455316D01*
X146646767Y-119461133D01*
X146580449Y-119505447D01*
X146580447Y-119505449D01*
X146536133Y-119571767D01*
X146524500Y-119630253D01*
X146524500Y-121369746D01*
X146536133Y-121428232D01*
X146544195Y-121440297D01*
X146580448Y-121494552D01*
X146624560Y-121524027D01*
X146646767Y-121538866D01*
X146646768Y-121538866D01*
X146646769Y-121538867D01*
X146705252Y-121550500D01*
X146705254Y-121550500D01*
X148444746Y-121550500D01*
X148444748Y-121550500D01*
X148503231Y-121538867D01*
X148569552Y-121494552D01*
X148613867Y-121428231D01*
X148625500Y-121369748D01*
X148625500Y-119630252D01*
X148613867Y-119571769D01*
X148569552Y-119505448D01*
X148521569Y-119473386D01*
X148503232Y-119461133D01*
X148503233Y-119461133D01*
X148473989Y-119455316D01*
X148444748Y-119449500D01*
X148444746Y-119449500D01*
X147949500Y-119449500D01*
X147897174Y-119427826D01*
X147875500Y-119375500D01*
X147875500Y-115535438D01*
X147867464Y-115505448D01*
X147865870Y-115499500D01*
X147855023Y-115459016D01*
X147855022Y-115459012D01*
X147837251Y-115428232D01*
X147815462Y-115390492D01*
X147815461Y-115390491D01*
X147815460Y-115390489D01*
X146822174Y-114397203D01*
X146800500Y-114344877D01*
X146800500Y-114304123D01*
X146822174Y-114251797D01*
X146874500Y-114230123D01*
X146926826Y-114251797D01*
X149792826Y-117117797D01*
X149814500Y-117170123D01*
X149814500Y-119438503D01*
X149792826Y-119490829D01*
X149761982Y-119509316D01*
X149711051Y-119524766D01*
X149711038Y-119524771D01*
X149528549Y-119622315D01*
X149368590Y-119753589D01*
X149368589Y-119753590D01*
X149237315Y-119913549D01*
X149139769Y-120096043D01*
X149079700Y-120294064D01*
X149059417Y-120500000D01*
X149079700Y-120705935D01*
X149093067Y-120750000D01*
X149139768Y-120903954D01*
X149237315Y-121086450D01*
X149368590Y-121246410D01*
X149528550Y-121377685D01*
X149711046Y-121475232D01*
X149909066Y-121535300D01*
X150115000Y-121555583D01*
X150320934Y-121535300D01*
X150518954Y-121475232D01*
X150701450Y-121377685D01*
X150861410Y-121246410D01*
X150992685Y-121086450D01*
X151090232Y-120903954D01*
X151150300Y-120705934D01*
X151170583Y-120500000D01*
X151150300Y-120294066D01*
X151090232Y-120096046D01*
X150992685Y-119913550D01*
X150861410Y-119753590D01*
X150701450Y-119622315D01*
X150656666Y-119598377D01*
X150518961Y-119524771D01*
X150518956Y-119524769D01*
X150518954Y-119524768D01*
X150518950Y-119524766D01*
X150518948Y-119524766D01*
X150468018Y-119509316D01*
X150424237Y-119473386D01*
X150415500Y-119438503D01*
X150415500Y-117219123D01*
X150437174Y-117166797D01*
X150489500Y-117145123D01*
X150541826Y-117166797D01*
X152332826Y-118957797D01*
X152354500Y-119010123D01*
X152354500Y-119438503D01*
X152332826Y-119490829D01*
X152301982Y-119509316D01*
X152251051Y-119524766D01*
X152251038Y-119524771D01*
X152068549Y-119622315D01*
X151908590Y-119753589D01*
X151908589Y-119753590D01*
X151777315Y-119913549D01*
X151679769Y-120096043D01*
X151619700Y-120294064D01*
X151599417Y-120500000D01*
X151619700Y-120705935D01*
X151633067Y-120750000D01*
X151679768Y-120903954D01*
X151777315Y-121086450D01*
X151908590Y-121246410D01*
X152068550Y-121377685D01*
X152251046Y-121475232D01*
X152449066Y-121535300D01*
X152655000Y-121555583D01*
X152860934Y-121535300D01*
X153058954Y-121475232D01*
X153241450Y-121377685D01*
X153401410Y-121246410D01*
X153532685Y-121086450D01*
X153630232Y-120903954D01*
X153690300Y-120705934D01*
X153710583Y-120500000D01*
X153690300Y-120294066D01*
X153630232Y-120096046D01*
X153532685Y-119913550D01*
X153401410Y-119753590D01*
X153241450Y-119622315D01*
X153196666Y-119598377D01*
X153058961Y-119524771D01*
X153058956Y-119524769D01*
X153058954Y-119524768D01*
X153058950Y-119524766D01*
X153058948Y-119524766D01*
X153008018Y-119509316D01*
X152964237Y-119473386D01*
X152955500Y-119438503D01*
X152955500Y-118859123D01*
X152977174Y-118806797D01*
X153029500Y-118785123D01*
X153081826Y-118806797D01*
X153359540Y-119084511D01*
X153415489Y-119140460D01*
X153484011Y-119180021D01*
X153484012Y-119180021D01*
X153484014Y-119180022D01*
X153521711Y-119190123D01*
X153560435Y-119200499D01*
X153560436Y-119200500D01*
X153560438Y-119200500D01*
X154744877Y-119200500D01*
X154797203Y-119222174D01*
X154872826Y-119297797D01*
X154894500Y-119350123D01*
X154894500Y-119438503D01*
X154872826Y-119490829D01*
X154841982Y-119509316D01*
X154791051Y-119524766D01*
X154791038Y-119524771D01*
X154608549Y-119622315D01*
X154448590Y-119753589D01*
X154448589Y-119753590D01*
X154317315Y-119913549D01*
X154219769Y-120096043D01*
X154159700Y-120294064D01*
X154139417Y-120500000D01*
X154159700Y-120705935D01*
X154173067Y-120750000D01*
X154219768Y-120903954D01*
X154317315Y-121086450D01*
X154448590Y-121246410D01*
X154608550Y-121377685D01*
X154791046Y-121475232D01*
X154989066Y-121535300D01*
X155195000Y-121555583D01*
X155400934Y-121535300D01*
X155598954Y-121475232D01*
X155781450Y-121377685D01*
X155941410Y-121246410D01*
X156072685Y-121086450D01*
X156170232Y-120903954D01*
X156230300Y-120705934D01*
X156250583Y-120500000D01*
X156230300Y-120294066D01*
X156170232Y-120096046D01*
X156072685Y-119913550D01*
X155941410Y-119753590D01*
X155781450Y-119622315D01*
X155736666Y-119598377D01*
X155598961Y-119524771D01*
X155598956Y-119524769D01*
X155598954Y-119524768D01*
X155598950Y-119524766D01*
X155598948Y-119524766D01*
X155548018Y-119509316D01*
X155504237Y-119473386D01*
X155495500Y-119438503D01*
X155495500Y-119155436D01*
X155495499Y-119155435D01*
X155491486Y-119140460D01*
X155475021Y-119079011D01*
X155435460Y-119010489D01*
X155379511Y-118954540D01*
X155151795Y-118726824D01*
X155130122Y-118674500D01*
X155151796Y-118622174D01*
X155204122Y-118600500D01*
X156844877Y-118600500D01*
X156897203Y-118622174D01*
X157412826Y-119137797D01*
X157434500Y-119190123D01*
X157434500Y-119438503D01*
X157412826Y-119490829D01*
X157381982Y-119509316D01*
X157331051Y-119524766D01*
X157331038Y-119524771D01*
X157148549Y-119622315D01*
X156988590Y-119753589D01*
X156988589Y-119753590D01*
X156857315Y-119913549D01*
X156759769Y-120096043D01*
X156699700Y-120294064D01*
X156679417Y-120500000D01*
X156699700Y-120705935D01*
X156713067Y-120750000D01*
X156759768Y-120903954D01*
X156857315Y-121086450D01*
X156988590Y-121246410D01*
X157148550Y-121377685D01*
X157331046Y-121475232D01*
X157529066Y-121535300D01*
X157735000Y-121555583D01*
X157940934Y-121535300D01*
X158138954Y-121475232D01*
X158321450Y-121377685D01*
X158481410Y-121246410D01*
X158612685Y-121086450D01*
X158710232Y-120903954D01*
X158770300Y-120705934D01*
X158790583Y-120500000D01*
X158770300Y-120294066D01*
X158710232Y-120096046D01*
X158612685Y-119913550D01*
X158481410Y-119753590D01*
X158321450Y-119622315D01*
X158276666Y-119598377D01*
X158138961Y-119524771D01*
X158138956Y-119524769D01*
X158138954Y-119524768D01*
X158138950Y-119524766D01*
X158138948Y-119524766D01*
X158088018Y-119509316D01*
X158044237Y-119473386D01*
X158035500Y-119438503D01*
X158035500Y-118995436D01*
X158035499Y-118995435D01*
X158031221Y-118979471D01*
X158015021Y-118919011D01*
X157975460Y-118850489D01*
X157919511Y-118794540D01*
X157184511Y-118059540D01*
X157115990Y-118019979D01*
X157115985Y-118019977D01*
X157039564Y-117999500D01*
X157039562Y-117999500D01*
X154055123Y-117999500D01*
X154002797Y-117977826D01*
X152322174Y-116297203D01*
X152300500Y-116244877D01*
X152300500Y-113681250D01*
X152322174Y-113628924D01*
X152333388Y-113619721D01*
X152446542Y-113544114D01*
X152544114Y-113446542D01*
X152620775Y-113331811D01*
X152673580Y-113204328D01*
X152700500Y-113068993D01*
X152700500Y-111931007D01*
X152673580Y-111795672D01*
X152655548Y-111752139D01*
X152620776Y-111668191D01*
X152588407Y-111619748D01*
X152544114Y-111553458D01*
X152446542Y-111455886D01*
X152446536Y-111455882D01*
X152331808Y-111379223D01*
X152204332Y-111326421D01*
X152204322Y-111326418D01*
X152111273Y-111307910D01*
X152068993Y-111299500D01*
X151931007Y-111299500D01*
X151888726Y-111307910D01*
X151833177Y-111296860D01*
X151801712Y-111249768D01*
X151812762Y-111194219D01*
X151821959Y-111183011D01*
X152732797Y-110272174D01*
X152785123Y-110250500D01*
X155739505Y-110250500D01*
X155791831Y-110272174D01*
X155813505Y-110324500D01*
X155791831Y-110376826D01*
X155779516Y-110386750D01*
X155750421Y-110405449D01*
X155668872Y-110457857D01*
X155668868Y-110457860D01*
X155574623Y-110566626D01*
X155514834Y-110697545D01*
X155494353Y-110840000D01*
X155514834Y-110982454D01*
X155514834Y-110982455D01*
X155514835Y-110982457D01*
X155554587Y-111069500D01*
X155574623Y-111113373D01*
X155668868Y-111222140D01*
X155672869Y-111225606D01*
X155670946Y-111227825D01*
X155697803Y-111266476D01*
X155699500Y-111282233D01*
X155699500Y-111318749D01*
X155677826Y-111371075D01*
X155666613Y-111380278D01*
X155553458Y-111455886D01*
X155455883Y-111553461D01*
X155379223Y-111668191D01*
X155326421Y-111795667D01*
X155326418Y-111795677D01*
X155299500Y-111931008D01*
X155299500Y-113068991D01*
X155326418Y-113204322D01*
X155326421Y-113204332D01*
X155379223Y-113331808D01*
X155395806Y-113356627D01*
X155455886Y-113446542D01*
X155553458Y-113544114D01*
X155553461Y-113544116D01*
X155666612Y-113619721D01*
X155698078Y-113666813D01*
X155699500Y-113681250D01*
X155699500Y-113991531D01*
X155677826Y-114043857D01*
X155656775Y-114058597D01*
X155619596Y-114075934D01*
X155535935Y-114159595D01*
X155485931Y-114266828D01*
X155485281Y-114271769D01*
X155479500Y-114315684D01*
X155479500Y-114664316D01*
X155479655Y-114665490D01*
X155485931Y-114713171D01*
X155485932Y-114713173D01*
X155535935Y-114820404D01*
X155619596Y-114904065D01*
X155681504Y-114932933D01*
X155719767Y-114974691D01*
X155717297Y-115031274D01*
X155681504Y-115067066D01*
X155653531Y-115080110D01*
X155619595Y-115095935D01*
X155614292Y-115099649D01*
X155612520Y-115097119D01*
X155570251Y-115114628D01*
X155517925Y-115092954D01*
X155034511Y-114609540D01*
X155017121Y-114599500D01*
X154987500Y-114582398D01*
X154953021Y-114537464D01*
X154950500Y-114518312D01*
X154950500Y-114330253D01*
X154947602Y-114315684D01*
X154938867Y-114271769D01*
X154935565Y-114266828D01*
X154923249Y-114248396D01*
X154894552Y-114205448D01*
X154870402Y-114189311D01*
X154828232Y-114161133D01*
X154828233Y-114161133D01*
X154798989Y-114155316D01*
X154769748Y-114149500D01*
X154769746Y-114149500D01*
X154374500Y-114149500D01*
X154322174Y-114127826D01*
X154300500Y-114075500D01*
X154300500Y-113681250D01*
X154322174Y-113628924D01*
X154333388Y-113619721D01*
X154446542Y-113544114D01*
X154544114Y-113446542D01*
X154620775Y-113331811D01*
X154673580Y-113204328D01*
X154700500Y-113068993D01*
X154700500Y-111931007D01*
X154673580Y-111795672D01*
X154655548Y-111752139D01*
X154620776Y-111668191D01*
X154588407Y-111619748D01*
X154544114Y-111553458D01*
X154446542Y-111455886D01*
X154430156Y-111444937D01*
X154398692Y-111397844D01*
X154409742Y-111342295D01*
X154415339Y-111334956D01*
X154425377Y-111323373D01*
X154485165Y-111192457D01*
X154505647Y-111050000D01*
X154485165Y-110907543D01*
X154425377Y-110776627D01*
X154331128Y-110667857D01*
X154252838Y-110617543D01*
X154210054Y-110590047D01*
X154210050Y-110590046D01*
X154071964Y-110549500D01*
X154071961Y-110549500D01*
X153928039Y-110549500D01*
X153928036Y-110549500D01*
X153789949Y-110590046D01*
X153789945Y-110590047D01*
X153668875Y-110667855D01*
X153668868Y-110667860D01*
X153574623Y-110776626D01*
X153514834Y-110907545D01*
X153494353Y-111050000D01*
X153514834Y-111192454D01*
X153514834Y-111192455D01*
X153514835Y-111192457D01*
X153574623Y-111323373D01*
X153577261Y-111326418D01*
X153584654Y-111334949D01*
X153602541Y-111388687D01*
X153577189Y-111439334D01*
X153569844Y-111444936D01*
X153553462Y-111455882D01*
X153455883Y-111553461D01*
X153379223Y-111668191D01*
X153326421Y-111795667D01*
X153326418Y-111795677D01*
X153299500Y-111931008D01*
X153299500Y-113068991D01*
X153326418Y-113204322D01*
X153326421Y-113204332D01*
X153379223Y-113331808D01*
X153395806Y-113356627D01*
X153455886Y-113446542D01*
X153553458Y-113544114D01*
X153553461Y-113544116D01*
X153666612Y-113619721D01*
X153698078Y-113666813D01*
X153699500Y-113681250D01*
X153699500Y-114075500D01*
X153677826Y-114127826D01*
X153625500Y-114149500D01*
X153230252Y-114149500D01*
X153201010Y-114155316D01*
X153171767Y-114161133D01*
X153105449Y-114205447D01*
X153105447Y-114205449D01*
X153061133Y-114271767D01*
X153061133Y-114271769D01*
X153049500Y-114330252D01*
X153049500Y-115369748D01*
X153053626Y-115390489D01*
X153061133Y-115428232D01*
X153081617Y-115458888D01*
X153092666Y-115514436D01*
X153081617Y-115541112D01*
X153061133Y-115571767D01*
X153061133Y-115571769D01*
X153049500Y-115630252D01*
X153049500Y-116669748D01*
X153057255Y-116708736D01*
X153061133Y-116728232D01*
X153090608Y-116772343D01*
X153105448Y-116794552D01*
X153149560Y-116824027D01*
X153171767Y-116838866D01*
X153171768Y-116838866D01*
X153171769Y-116838867D01*
X153230252Y-116850500D01*
X153230254Y-116850500D01*
X154769746Y-116850500D01*
X154769748Y-116850500D01*
X154828231Y-116838867D01*
X154894552Y-116794552D01*
X154938867Y-116728231D01*
X154950500Y-116669748D01*
X154950500Y-116564136D01*
X154972174Y-116511810D01*
X155024500Y-116490136D01*
X155076826Y-116511810D01*
X155097747Y-116553605D01*
X155114834Y-116672454D01*
X155114834Y-116672455D01*
X155114835Y-116672457D01*
X155140307Y-116728232D01*
X155174623Y-116803373D01*
X155268868Y-116912139D01*
X155268869Y-116912140D01*
X155268872Y-116912143D01*
X155389947Y-116989953D01*
X155496403Y-117021211D01*
X155528035Y-117030499D01*
X155528037Y-117030500D01*
X155528039Y-117030500D01*
X155671963Y-117030500D01*
X155671964Y-117030499D01*
X155810053Y-116989953D01*
X155931128Y-116912143D01*
X156025377Y-116803373D01*
X156085165Y-116672457D01*
X156105647Y-116530000D01*
X156085165Y-116387543D01*
X156025377Y-116256627D01*
X155982170Y-116206763D01*
X155931131Y-116147860D01*
X155931129Y-116147858D01*
X155931128Y-116147857D01*
X155931126Y-116147855D01*
X155931124Y-116147854D01*
X155882729Y-116116753D01*
X155850427Y-116070230D01*
X155860483Y-116014493D01*
X155907006Y-115982191D01*
X155922736Y-115980500D01*
X156224314Y-115980500D01*
X156224316Y-115980500D01*
X156273173Y-115974068D01*
X156380404Y-115924065D01*
X156464065Y-115840404D01*
X156464065Y-115840403D01*
X156468643Y-115835826D01*
X156470217Y-115837400D01*
X156510674Y-115811625D01*
X156523526Y-115810500D01*
X157476474Y-115810500D01*
X157528800Y-115832174D01*
X157534506Y-115838975D01*
X157619597Y-115924066D01*
X157656773Y-115941401D01*
X157695037Y-115983158D01*
X157699500Y-116008468D01*
X157699500Y-117039564D01*
X157719977Y-117115985D01*
X157719980Y-117115991D01*
X157728637Y-117130984D01*
X157728638Y-117130988D01*
X157728639Y-117130988D01*
X157759540Y-117184511D01*
X159952826Y-119377797D01*
X159974500Y-119430123D01*
X159974500Y-119438503D01*
X159952826Y-119490829D01*
X159921982Y-119509316D01*
X159871051Y-119524766D01*
X159871038Y-119524771D01*
X159688549Y-119622315D01*
X159528590Y-119753589D01*
X159528589Y-119753590D01*
X159397315Y-119913549D01*
X159299769Y-120096043D01*
X159239700Y-120294064D01*
X159219417Y-120500000D01*
X159239700Y-120705935D01*
X159253067Y-120750000D01*
X159299768Y-120903954D01*
X159397315Y-121086450D01*
X159528590Y-121246410D01*
X159688550Y-121377685D01*
X159871046Y-121475232D01*
X160069066Y-121535300D01*
X160275000Y-121555583D01*
X160480934Y-121535300D01*
X160678954Y-121475232D01*
X160861450Y-121377685D01*
X161021410Y-121246410D01*
X161152685Y-121086450D01*
X161250232Y-120903954D01*
X161310300Y-120705934D01*
X161330583Y-120500000D01*
X161310300Y-120294066D01*
X161250232Y-120096046D01*
X161152685Y-119913550D01*
X161021410Y-119753590D01*
X160861450Y-119622315D01*
X160816666Y-119598377D01*
X160678961Y-119524771D01*
X160678956Y-119524769D01*
X160678954Y-119524768D01*
X160678950Y-119524766D01*
X160678948Y-119524766D01*
X160628018Y-119509316D01*
X160584237Y-119473386D01*
X160575500Y-119438503D01*
X160575500Y-119235436D01*
X160575499Y-119235435D01*
X160555022Y-119159014D01*
X160555020Y-119159009D01*
X160515459Y-119090488D01*
X158322174Y-116897203D01*
X158300500Y-116844877D01*
X158300500Y-116008468D01*
X158322174Y-115956142D01*
X158343227Y-115941401D01*
X158380402Y-115924066D01*
X158380402Y-115924065D01*
X158380404Y-115924065D01*
X158464065Y-115840404D01*
X158514068Y-115733173D01*
X158520500Y-115684316D01*
X158520500Y-115335684D01*
X158514068Y-115286827D01*
X158464065Y-115179596D01*
X158380404Y-115095935D01*
X158380402Y-115095933D01*
X158334886Y-115074709D01*
X158318495Y-115067066D01*
X158280232Y-115025310D01*
X158282702Y-114968727D01*
X158318495Y-114932933D01*
X158380404Y-114904065D01*
X158464065Y-114820404D01*
X158464065Y-114820403D01*
X158468643Y-114815826D01*
X158470217Y-114817400D01*
X158510674Y-114791625D01*
X158523526Y-114790500D01*
X158534877Y-114790500D01*
X158587203Y-114812174D01*
X159153087Y-115378058D01*
X159174761Y-115430384D01*
X159153087Y-115482710D01*
X159121610Y-115501386D01*
X158989947Y-115540046D01*
X158989945Y-115540047D01*
X158868875Y-115617855D01*
X158868868Y-115617860D01*
X158774623Y-115726626D01*
X158714834Y-115857545D01*
X158694353Y-116000000D01*
X158695570Y-116008468D01*
X158714835Y-116142457D01*
X158766975Y-116256626D01*
X158774623Y-116273373D01*
X158868868Y-116382139D01*
X158868869Y-116382140D01*
X158868872Y-116382143D01*
X158958218Y-116439562D01*
X158989187Y-116459465D01*
X158989947Y-116459953D01*
X159092742Y-116490136D01*
X159128035Y-116500499D01*
X159128037Y-116500500D01*
X159244877Y-116500500D01*
X159297203Y-116522174D01*
X161059540Y-118284511D01*
X161115489Y-118340460D01*
X161184011Y-118380021D01*
X161184012Y-118380021D01*
X161184014Y-118380022D01*
X161203335Y-118385199D01*
X161260435Y-118400499D01*
X161260436Y-118400500D01*
X161260438Y-118400500D01*
X161944877Y-118400500D01*
X161997203Y-118422174D01*
X162492826Y-118917797D01*
X162514500Y-118970123D01*
X162514500Y-119438503D01*
X162492826Y-119490829D01*
X162461982Y-119509316D01*
X162411051Y-119524766D01*
X162411038Y-119524771D01*
X162228549Y-119622315D01*
X162068590Y-119753589D01*
X162068589Y-119753590D01*
X161937315Y-119913549D01*
X161839769Y-120096043D01*
X161779700Y-120294064D01*
X161759417Y-120500000D01*
X161779700Y-120705935D01*
X161793067Y-120750000D01*
X161839768Y-120903954D01*
X161937315Y-121086450D01*
X162068590Y-121246410D01*
X162228550Y-121377685D01*
X162411046Y-121475232D01*
X162609066Y-121535300D01*
X162815000Y-121555583D01*
X163020934Y-121535300D01*
X163218954Y-121475232D01*
X163401450Y-121377685D01*
X163561410Y-121246410D01*
X163692685Y-121086450D01*
X163790232Y-120903954D01*
X163850300Y-120705934D01*
X163870583Y-120500000D01*
X163850300Y-120294066D01*
X163790232Y-120096046D01*
X163692685Y-119913550D01*
X163561410Y-119753590D01*
X163401450Y-119622315D01*
X163356666Y-119598377D01*
X163218961Y-119524771D01*
X163218956Y-119524769D01*
X163218954Y-119524768D01*
X163218950Y-119524766D01*
X163218948Y-119524766D01*
X163168018Y-119509316D01*
X163124237Y-119473386D01*
X163115500Y-119438503D01*
X163115500Y-118775437D01*
X163109890Y-118754499D01*
X163109890Y-118754498D01*
X163095023Y-118699015D01*
X163095021Y-118699010D01*
X163055462Y-118630492D01*
X163055461Y-118630491D01*
X163055460Y-118630489D01*
X162284511Y-117859540D01*
X162265692Y-117848675D01*
X162215990Y-117819979D01*
X162215985Y-117819977D01*
X162139564Y-117799500D01*
X162139562Y-117799500D01*
X161455123Y-117799500D01*
X161402797Y-117777826D01*
X161234750Y-117609779D01*
X161213076Y-117557453D01*
X161234750Y-117505127D01*
X161287076Y-117483453D01*
X161306229Y-117485975D01*
X161360438Y-117500500D01*
X161439562Y-117500500D01*
X163344877Y-117500500D01*
X163397203Y-117522174D01*
X165032826Y-119157797D01*
X165054500Y-119210123D01*
X165054500Y-119438503D01*
X165032826Y-119490829D01*
X165001982Y-119509316D01*
X164951051Y-119524766D01*
X164951038Y-119524771D01*
X164768549Y-119622315D01*
X164608590Y-119753589D01*
X164608589Y-119753590D01*
X164477315Y-119913549D01*
X164379769Y-120096043D01*
X164319700Y-120294064D01*
X164299417Y-120500000D01*
X164319700Y-120705935D01*
X164333067Y-120750000D01*
X164379768Y-120903954D01*
X164477315Y-121086450D01*
X164608590Y-121246410D01*
X164768550Y-121377685D01*
X164951046Y-121475232D01*
X165149066Y-121535300D01*
X165355000Y-121555583D01*
X165560934Y-121535300D01*
X165758954Y-121475232D01*
X165941450Y-121377685D01*
X166101410Y-121246410D01*
X166232685Y-121086450D01*
X166330232Y-120903954D01*
X166390300Y-120705934D01*
X166410583Y-120500000D01*
X166390300Y-120294066D01*
X166330232Y-120096046D01*
X166232685Y-119913550D01*
X166101410Y-119753590D01*
X165941450Y-119622315D01*
X165896666Y-119598377D01*
X165758961Y-119524771D01*
X165758956Y-119524769D01*
X165758954Y-119524768D01*
X165758950Y-119524766D01*
X165758948Y-119524766D01*
X165708018Y-119509316D01*
X165664237Y-119473386D01*
X165655500Y-119438503D01*
X165655500Y-119015436D01*
X165655499Y-119015435D01*
X165654173Y-119010488D01*
X165635021Y-118939011D01*
X165595460Y-118870489D01*
X165539511Y-118814540D01*
X163751797Y-117026826D01*
X163730123Y-116974500D01*
X163751797Y-116922174D01*
X163804123Y-116900500D01*
X165444877Y-116900500D01*
X165497203Y-116922174D01*
X167572826Y-118997797D01*
X167594500Y-119050123D01*
X167594500Y-119438503D01*
X167572826Y-119490829D01*
X167541982Y-119509316D01*
X167491051Y-119524766D01*
X167491038Y-119524771D01*
X167308549Y-119622315D01*
X167148590Y-119753589D01*
X167148589Y-119753590D01*
X167017315Y-119913549D01*
X166919769Y-120096043D01*
X166859700Y-120294064D01*
X166839417Y-120500000D01*
X166859700Y-120705935D01*
X166873067Y-120750000D01*
X166919768Y-120903954D01*
X167017315Y-121086450D01*
X167148590Y-121246410D01*
X167308550Y-121377685D01*
X167491046Y-121475232D01*
X167689066Y-121535300D01*
X167895000Y-121555583D01*
X168100934Y-121535300D01*
X168298954Y-121475232D01*
X168481450Y-121377685D01*
X168641410Y-121246410D01*
X168772685Y-121086450D01*
X168870232Y-120903954D01*
X168930300Y-120705934D01*
X168950583Y-120500000D01*
X168930300Y-120294066D01*
X168870232Y-120096046D01*
X168772685Y-119913550D01*
X168641410Y-119753590D01*
X168481450Y-119622315D01*
X168436666Y-119598377D01*
X168298961Y-119524771D01*
X168298956Y-119524769D01*
X168298954Y-119524768D01*
X168298950Y-119524766D01*
X168298948Y-119524766D01*
X168248018Y-119509316D01*
X168204237Y-119473386D01*
X168195500Y-119438503D01*
X168195500Y-118855436D01*
X168195499Y-118855435D01*
X168194173Y-118850488D01*
X168175021Y-118779011D01*
X168135460Y-118710489D01*
X168079511Y-118654540D01*
X165784511Y-116359540D01*
X165727473Y-116326609D01*
X165715990Y-116319979D01*
X165715985Y-116319977D01*
X165639564Y-116299500D01*
X165639562Y-116299500D01*
X164596241Y-116299500D01*
X164543915Y-116277826D01*
X164522241Y-116225500D01*
X164543915Y-116173174D01*
X164558572Y-116161805D01*
X164577289Y-116150735D01*
X164690735Y-116037289D01*
X164772405Y-115899193D01*
X164812845Y-115760000D01*
X163187155Y-115760000D01*
X163227594Y-115899193D01*
X163309264Y-116037289D01*
X163422710Y-116150735D01*
X163441428Y-116161805D01*
X163475434Y-116207097D01*
X163467454Y-116263169D01*
X163422162Y-116297175D01*
X163403759Y-116299500D01*
X162596241Y-116299500D01*
X162543915Y-116277826D01*
X162522241Y-116225500D01*
X162543915Y-116173174D01*
X162558572Y-116161805D01*
X162577289Y-116150735D01*
X162690735Y-116037289D01*
X162772405Y-115899193D01*
X162812845Y-115760000D01*
X161315623Y-115760000D01*
X161263297Y-115738326D01*
X160784970Y-115259999D01*
X161187154Y-115259999D01*
X161187155Y-115260000D01*
X162812845Y-115260000D01*
X162812845Y-115259999D01*
X163187154Y-115259999D01*
X163187155Y-115260000D01*
X164812845Y-115260000D01*
X164812845Y-115259999D01*
X164772405Y-115120806D01*
X164690735Y-114982710D01*
X164577290Y-114869265D01*
X164528435Y-114840372D01*
X164494430Y-114795079D01*
X164499038Y-114745404D01*
X164514068Y-114713173D01*
X164520500Y-114664316D01*
X164520500Y-114315684D01*
X164514068Y-114266827D01*
X164464065Y-114159596D01*
X164380404Y-114075935D01*
X164380403Y-114075934D01*
X164343225Y-114058597D01*
X164304962Y-114016839D01*
X164300500Y-113991531D01*
X164300500Y-113681250D01*
X164320415Y-113633170D01*
X165220381Y-113633170D01*
X165223248Y-113637462D01*
X165223250Y-113637464D01*
X165362539Y-113776752D01*
X165362540Y-113776753D01*
X165526324Y-113886190D01*
X165708306Y-113961569D01*
X165708317Y-113961572D01*
X165901510Y-114000000D01*
X166098490Y-114000000D01*
X166291682Y-113961572D01*
X166291693Y-113961569D01*
X166473675Y-113886190D01*
X166637459Y-113776753D01*
X166637460Y-113776752D01*
X166776751Y-113637462D01*
X166779617Y-113633171D01*
X166000000Y-112853553D01*
X165220381Y-113633170D01*
X164320415Y-113633170D01*
X164322174Y-113628924D01*
X164333388Y-113619721D01*
X164446542Y-113544114D01*
X164544114Y-113446542D01*
X164620775Y-113331811D01*
X164673580Y-113204328D01*
X164700500Y-113068993D01*
X164700500Y-111931007D01*
X164694632Y-111901509D01*
X165000000Y-111901509D01*
X165000000Y-113098490D01*
X165007956Y-113138489D01*
X165646446Y-112499999D01*
X166353553Y-112499999D01*
X166353553Y-112500000D01*
X166992042Y-113138489D01*
X167000000Y-113098489D01*
X167000000Y-111901510D01*
X166992042Y-111861509D01*
X166353553Y-112499999D01*
X165646446Y-112499999D01*
X165007956Y-111861509D01*
X165007955Y-111861509D01*
X165000000Y-111901509D01*
X164694632Y-111901509D01*
X164673580Y-111795672D01*
X164655548Y-111752139D01*
X164620776Y-111668191D01*
X164588407Y-111619748D01*
X164544114Y-111553458D01*
X164446542Y-111455886D01*
X164446536Y-111455882D01*
X164331808Y-111379223D01*
X164301881Y-111366827D01*
X165220381Y-111366827D01*
X165999999Y-112146446D01*
X166779617Y-111366828D01*
X166779617Y-111366827D01*
X166776752Y-111362539D01*
X166776751Y-111362537D01*
X166637460Y-111223247D01*
X166637459Y-111223246D01*
X166473675Y-111113809D01*
X166291693Y-111038430D01*
X166291682Y-111038427D01*
X166098490Y-111000000D01*
X165901510Y-111000000D01*
X165708317Y-111038427D01*
X165708306Y-111038430D01*
X165526324Y-111113809D01*
X165362540Y-111223246D01*
X165362539Y-111223247D01*
X165223250Y-111362535D01*
X165220381Y-111366827D01*
X164301881Y-111366827D01*
X164204332Y-111326421D01*
X164204322Y-111326418D01*
X164111273Y-111307910D01*
X164068993Y-111299500D01*
X163931007Y-111299500D01*
X163892642Y-111307131D01*
X163795677Y-111326418D01*
X163795667Y-111326421D01*
X163668191Y-111379223D01*
X163553461Y-111455883D01*
X163455883Y-111553461D01*
X163379223Y-111668191D01*
X163326421Y-111795667D01*
X163326418Y-111795677D01*
X163299500Y-111931008D01*
X163299500Y-113068991D01*
X163326418Y-113204322D01*
X163326421Y-113204332D01*
X163379223Y-113331808D01*
X163395806Y-113356627D01*
X163455886Y-113446542D01*
X163553458Y-113544114D01*
X163553461Y-113544116D01*
X163666612Y-113619721D01*
X163698078Y-113666813D01*
X163699500Y-113681250D01*
X163699500Y-113991531D01*
X163677826Y-114043857D01*
X163656775Y-114058597D01*
X163619596Y-114075934D01*
X163535935Y-114159595D01*
X163485931Y-114266828D01*
X163485281Y-114271769D01*
X163479500Y-114315684D01*
X163479500Y-114664316D01*
X163479655Y-114665490D01*
X163485932Y-114713174D01*
X163500961Y-114745404D01*
X163503431Y-114801987D01*
X163471564Y-114840372D01*
X163422710Y-114869264D01*
X163309264Y-114982710D01*
X163227594Y-115120806D01*
X163187154Y-115259999D01*
X162812845Y-115259999D01*
X162772405Y-115120806D01*
X162690735Y-114982710D01*
X162577290Y-114869265D01*
X162528435Y-114840372D01*
X162494430Y-114795079D01*
X162499038Y-114745404D01*
X162514068Y-114713173D01*
X162520500Y-114664316D01*
X162520500Y-114315684D01*
X162514068Y-114266827D01*
X162464065Y-114159596D01*
X162380404Y-114075935D01*
X162380403Y-114075934D01*
X162343225Y-114058597D01*
X162304962Y-114016839D01*
X162300500Y-113991531D01*
X162300500Y-113681250D01*
X162322174Y-113628924D01*
X162333388Y-113619721D01*
X162446542Y-113544114D01*
X162544114Y-113446542D01*
X162620775Y-113331811D01*
X162673580Y-113204328D01*
X162700500Y-113068993D01*
X162700500Y-111931007D01*
X162673580Y-111795672D01*
X162655548Y-111752139D01*
X162620776Y-111668191D01*
X162588407Y-111619748D01*
X162544114Y-111553458D01*
X162446542Y-111455886D01*
X162446536Y-111455882D01*
X162331808Y-111379223D01*
X162204332Y-111326421D01*
X162204322Y-111326418D01*
X162111273Y-111307910D01*
X162068993Y-111299500D01*
X161931007Y-111299500D01*
X161892642Y-111307131D01*
X161795677Y-111326418D01*
X161795667Y-111326421D01*
X161668191Y-111379223D01*
X161553461Y-111455883D01*
X161455883Y-111553461D01*
X161379223Y-111668191D01*
X161326421Y-111795667D01*
X161326418Y-111795677D01*
X161299500Y-111931008D01*
X161299500Y-113068991D01*
X161326418Y-113204322D01*
X161326421Y-113204332D01*
X161379223Y-113331808D01*
X161395806Y-113356627D01*
X161455886Y-113446542D01*
X161553458Y-113544114D01*
X161553461Y-113544116D01*
X161666612Y-113619721D01*
X161698078Y-113666813D01*
X161699500Y-113681250D01*
X161699500Y-113991531D01*
X161677826Y-114043857D01*
X161656775Y-114058597D01*
X161619596Y-114075934D01*
X161535935Y-114159595D01*
X161485931Y-114266828D01*
X161485281Y-114271769D01*
X161479500Y-114315684D01*
X161479500Y-114664316D01*
X161479655Y-114665490D01*
X161485932Y-114713174D01*
X161500961Y-114745404D01*
X161503431Y-114801987D01*
X161471564Y-114840372D01*
X161422710Y-114869264D01*
X161309264Y-114982710D01*
X161227594Y-115120806D01*
X161187154Y-115259999D01*
X160784970Y-115259999D01*
X160322174Y-114797203D01*
X160300500Y-114744877D01*
X160300500Y-113681250D01*
X160322174Y-113628924D01*
X160333388Y-113619721D01*
X160446542Y-113544114D01*
X160544114Y-113446542D01*
X160620775Y-113331811D01*
X160673580Y-113204328D01*
X160700500Y-113068993D01*
X160700500Y-111931007D01*
X160673580Y-111795672D01*
X160655548Y-111752139D01*
X160620776Y-111668191D01*
X160588407Y-111619748D01*
X160544114Y-111553458D01*
X160446542Y-111455886D01*
X160333387Y-111380278D01*
X160301922Y-111333185D01*
X160300500Y-111318749D01*
X160300500Y-111180436D01*
X160300499Y-111180435D01*
X160280022Y-111104014D01*
X160280020Y-111104009D01*
X160248838Y-111050000D01*
X160240460Y-111035489D01*
X160197013Y-110992042D01*
X167861510Y-110992042D01*
X167901511Y-111000000D01*
X169098489Y-111000000D01*
X169138488Y-110992042D01*
X168500000Y-110353553D01*
X167861510Y-110992042D01*
X160197013Y-110992042D01*
X160184511Y-110979540D01*
X159106480Y-109901509D01*
X167000000Y-109901509D01*
X167000000Y-110098490D01*
X167038427Y-110291682D01*
X167038430Y-110291693D01*
X167113809Y-110473675D01*
X167223246Y-110637459D01*
X167223247Y-110637460D01*
X167362537Y-110776751D01*
X167362539Y-110776752D01*
X167366827Y-110779617D01*
X167366828Y-110779617D01*
X168146446Y-109999999D01*
X168853553Y-109999999D01*
X169633171Y-110779617D01*
X169637462Y-110776751D01*
X169776752Y-110637460D01*
X169776753Y-110637459D01*
X169886190Y-110473675D01*
X169961569Y-110291693D01*
X169961572Y-110291682D01*
X170000000Y-110098490D01*
X170000000Y-109901509D01*
X169961572Y-109708317D01*
X169961569Y-109708306D01*
X169886190Y-109526324D01*
X169776753Y-109362540D01*
X169776752Y-109362539D01*
X169637464Y-109223250D01*
X169637462Y-109223248D01*
X169633170Y-109220381D01*
X168853553Y-109999999D01*
X168146446Y-109999999D01*
X167366827Y-109220381D01*
X167362535Y-109223250D01*
X167223247Y-109362539D01*
X167223246Y-109362540D01*
X167113809Y-109526324D01*
X167038430Y-109708306D01*
X167038427Y-109708317D01*
X167000000Y-109901509D01*
X159106480Y-109901509D01*
X158914511Y-109709540D01*
X158866723Y-109681950D01*
X158866722Y-109681948D01*
X158845991Y-109669980D01*
X158845985Y-109669977D01*
X158769564Y-109649500D01*
X158769562Y-109649500D01*
X152590438Y-109649500D01*
X152590436Y-109649500D01*
X152514014Y-109669977D01*
X152514008Y-109669980D01*
X152493276Y-109681950D01*
X152445488Y-109709540D01*
X151107203Y-111047826D01*
X151054877Y-111069500D01*
X150214770Y-111069500D01*
X150162444Y-111047826D01*
X150140770Y-110995500D01*
X150140921Y-110994476D01*
X149500000Y-110353553D01*
X148861510Y-110992042D01*
X148901511Y-111000000D01*
X148963605Y-111000000D01*
X149015931Y-111021674D01*
X149037605Y-111074000D01*
X149030918Y-111104738D01*
X148990054Y-111194219D01*
X148974834Y-111227545D01*
X148954353Y-111370000D01*
X148974834Y-111512454D01*
X149034623Y-111643373D01*
X149128868Y-111752139D01*
X149128869Y-111752140D01*
X149128872Y-111752143D01*
X149249947Y-111829953D01*
X149356403Y-111861211D01*
X149388035Y-111870499D01*
X149388037Y-111870500D01*
X149388039Y-111870500D01*
X149531963Y-111870500D01*
X149531964Y-111870499D01*
X149670053Y-111829953D01*
X149791128Y-111752143D01*
X149822890Y-111715488D01*
X149839741Y-111696041D01*
X149890388Y-111670689D01*
X149895667Y-111670500D01*
X151249564Y-111670500D01*
X151254373Y-111669867D01*
X151254551Y-111671226D01*
X151305538Y-111677934D01*
X151340021Y-111722864D01*
X151336912Y-111770341D01*
X151326420Y-111795671D01*
X151326418Y-111795677D01*
X151299500Y-111931008D01*
X151299500Y-113068991D01*
X151326418Y-113204322D01*
X151326421Y-113204332D01*
X151379223Y-113331808D01*
X151395806Y-113356627D01*
X151455886Y-113446542D01*
X151553458Y-113544114D01*
X151553461Y-113544116D01*
X151666612Y-113619721D01*
X151698078Y-113666813D01*
X151699500Y-113681250D01*
X151699500Y-116395877D01*
X151677826Y-116448203D01*
X151625500Y-116469877D01*
X151573174Y-116448203D01*
X148322174Y-113197203D01*
X148300500Y-113144877D01*
X148300500Y-110853220D01*
X148322174Y-110800894D01*
X148366531Y-110779914D01*
X149146446Y-109999999D01*
X149853553Y-109999999D01*
X150633171Y-110779617D01*
X150637462Y-110776751D01*
X150776752Y-110637460D01*
X150776753Y-110637459D01*
X150886190Y-110473675D01*
X150961569Y-110291693D01*
X150961572Y-110291682D01*
X151000000Y-110098490D01*
X151000000Y-109901509D01*
X150961572Y-109708317D01*
X150961569Y-109708306D01*
X150886190Y-109526324D01*
X150776753Y-109362540D01*
X150776752Y-109362539D01*
X150637464Y-109223250D01*
X150637462Y-109223248D01*
X150633170Y-109220381D01*
X149853553Y-109999999D01*
X149146446Y-109999999D01*
X148366430Y-109219984D01*
X148317299Y-109193725D01*
X148300500Y-109146778D01*
X148300500Y-109007956D01*
X148861510Y-109007956D01*
X149499999Y-109646445D01*
X150138488Y-109007956D01*
X167861510Y-109007956D01*
X168499999Y-109646445D01*
X169138488Y-109007956D01*
X169098490Y-109000000D01*
X167901510Y-109000000D01*
X167861510Y-109007956D01*
X150138488Y-109007956D01*
X150098490Y-109000000D01*
X148901510Y-109000000D01*
X148861510Y-109007956D01*
X148300500Y-109007956D01*
X148300500Y-108457935D01*
X148322174Y-108405609D01*
X148374500Y-108383935D01*
X148426826Y-108405609D01*
X148436025Y-108416818D01*
X148455886Y-108446542D01*
X148553458Y-108544114D01*
X148668189Y-108620775D01*
X148795672Y-108673580D01*
X148931007Y-108700500D01*
X148931009Y-108700500D01*
X150068991Y-108700500D01*
X150068993Y-108700500D01*
X150204328Y-108673580D01*
X150331811Y-108620775D01*
X150446542Y-108544114D01*
X150544114Y-108446542D01*
X150620775Y-108331811D01*
X150673580Y-108204328D01*
X150700500Y-108068993D01*
X150700500Y-107931007D01*
X150673580Y-107795672D01*
X150658614Y-107759540D01*
X150620776Y-107668191D01*
X150596327Y-107631601D01*
X150544114Y-107553458D01*
X150446542Y-107455886D01*
X150393568Y-107420490D01*
X150331808Y-107379223D01*
X150204332Y-107326421D01*
X150204322Y-107326418D01*
X150113694Y-107308391D01*
X150068993Y-107299500D01*
X148931007Y-107299500D01*
X148892642Y-107307131D01*
X148795677Y-107326418D01*
X148795667Y-107326421D01*
X148668191Y-107379223D01*
X148553461Y-107455883D01*
X148455883Y-107553461D01*
X148380279Y-107666612D01*
X148333187Y-107698078D01*
X148318750Y-107699500D01*
X148239562Y-107699500D01*
X148160438Y-107699500D01*
X148084012Y-107719978D01*
X148084011Y-107719978D01*
X148084009Y-107719979D01*
X148084007Y-107719980D01*
X148015492Y-107759537D01*
X147926826Y-107848203D01*
X147874500Y-107869877D01*
X147822174Y-107848203D01*
X147800500Y-107795877D01*
X147800500Y-106755123D01*
X147822174Y-106702797D01*
X148202797Y-106322174D01*
X148255123Y-106300500D01*
X148318750Y-106300500D01*
X148371076Y-106322174D01*
X148380277Y-106333386D01*
X148402949Y-106367316D01*
X148453683Y-106443246D01*
X148455886Y-106446542D01*
X148553458Y-106544114D01*
X148668189Y-106620775D01*
X148795672Y-106673580D01*
X148931007Y-106700500D01*
X148931009Y-106700500D01*
X150068991Y-106700500D01*
X150068993Y-106700500D01*
X150204328Y-106673580D01*
X150331811Y-106620775D01*
X150446542Y-106544114D01*
X150544114Y-106446542D01*
X150620775Y-106331811D01*
X150673580Y-106204328D01*
X150700500Y-106068993D01*
X150700500Y-105931007D01*
X150673580Y-105795672D01*
X150642226Y-105719977D01*
X150620776Y-105668191D01*
X150608955Y-105650500D01*
X150544114Y-105553458D01*
X150446542Y-105455886D01*
X150331811Y-105379225D01*
X150331810Y-105379224D01*
X150331808Y-105379223D01*
X150204332Y-105326421D01*
X150204322Y-105326418D01*
X150113694Y-105308391D01*
X150068993Y-105299500D01*
X148931007Y-105299500D01*
X148892642Y-105307131D01*
X148795677Y-105326418D01*
X148795667Y-105326421D01*
X148668191Y-105379223D01*
X148553461Y-105455883D01*
X148455883Y-105553461D01*
X148407749Y-105625500D01*
X148391045Y-105650500D01*
X148380279Y-105666612D01*
X148333187Y-105698078D01*
X148318750Y-105699500D01*
X148060436Y-105699500D01*
X147984014Y-105719977D01*
X147984009Y-105719979D01*
X147956875Y-105735646D01*
X147915488Y-105759540D01*
X147426826Y-106248203D01*
X147374500Y-106269877D01*
X147322174Y-106248203D01*
X147300500Y-106195877D01*
X147300500Y-105255123D01*
X147322174Y-105202797D01*
X148202797Y-104322174D01*
X148255123Y-104300500D01*
X148318750Y-104300500D01*
X148371076Y-104322174D01*
X148380277Y-104333386D01*
X148455886Y-104446542D01*
X148553458Y-104544114D01*
X148668189Y-104620775D01*
X148795672Y-104673580D01*
X148931007Y-104700500D01*
X148931009Y-104700500D01*
X150068991Y-104700500D01*
X150068993Y-104700500D01*
X150204328Y-104673580D01*
X150331811Y-104620775D01*
X150446542Y-104544114D01*
X150544114Y-104446542D01*
X150620775Y-104331811D01*
X150673580Y-104204328D01*
X150700500Y-104068993D01*
X150700500Y-103931007D01*
X150673580Y-103795672D01*
X150637076Y-103707543D01*
X150620776Y-103668191D01*
X150604692Y-103644120D01*
X150544114Y-103553458D01*
X150446542Y-103455886D01*
X150414492Y-103434471D01*
X150331808Y-103379223D01*
X150204332Y-103326421D01*
X150204322Y-103326418D01*
X150113694Y-103308391D01*
X150068993Y-103299500D01*
X148931007Y-103299500D01*
X148892642Y-103307131D01*
X148795677Y-103326418D01*
X148795667Y-103326421D01*
X148668191Y-103379223D01*
X148553461Y-103455883D01*
X148455883Y-103553461D01*
X148380279Y-103666612D01*
X148333187Y-103698078D01*
X148318750Y-103699500D01*
X148060436Y-103699500D01*
X147984014Y-103719977D01*
X147984009Y-103719979D01*
X147915488Y-103759540D01*
X146926826Y-104748203D01*
X146874500Y-104769877D01*
X146822174Y-104748203D01*
X146800500Y-104695877D01*
X146800500Y-103355123D01*
X146822174Y-103302797D01*
X147802797Y-102322174D01*
X147855123Y-102300500D01*
X148318750Y-102300500D01*
X148371076Y-102322174D01*
X148380277Y-102333386D01*
X148388416Y-102345566D01*
X148451897Y-102440573D01*
X148455886Y-102446542D01*
X148553458Y-102544114D01*
X148668189Y-102620775D01*
X148668190Y-102620775D01*
X148668191Y-102620776D01*
X148761776Y-102659540D01*
X148795672Y-102673580D01*
X148931007Y-102700500D01*
X148931009Y-102700500D01*
X150068991Y-102700500D01*
X150068993Y-102700500D01*
X150204328Y-102673580D01*
X150331811Y-102620775D01*
X150446542Y-102544114D01*
X150544114Y-102446542D01*
X150620775Y-102331811D01*
X150673580Y-102204328D01*
X150700500Y-102068993D01*
X150700500Y-101931007D01*
X150673580Y-101795672D01*
X150642226Y-101719977D01*
X150620776Y-101668191D01*
X150602368Y-101640642D01*
X150544114Y-101553458D01*
X150446542Y-101455886D01*
X150377180Y-101409540D01*
X150331808Y-101379223D01*
X150204332Y-101326421D01*
X150204322Y-101326418D01*
X150113694Y-101308391D01*
X150068993Y-101299500D01*
X148931007Y-101299500D01*
X148892642Y-101307131D01*
X148795677Y-101326418D01*
X148795667Y-101326421D01*
X148668191Y-101379223D01*
X148553461Y-101455883D01*
X148455883Y-101553461D01*
X148380279Y-101666612D01*
X148333187Y-101698078D01*
X148318750Y-101699500D01*
X147660436Y-101699500D01*
X147584014Y-101719977D01*
X147584009Y-101719979D01*
X147548537Y-101740460D01*
X147515488Y-101759540D01*
X147232326Y-102042703D01*
X147180000Y-102064377D01*
X147127674Y-102042703D01*
X146344511Y-101259540D01*
X146275990Y-101219979D01*
X146275985Y-101219977D01*
X146199564Y-101199500D01*
X146199562Y-101199500D01*
X145924500Y-101199500D01*
X145872174Y-101177826D01*
X145850500Y-101125500D01*
X145850500Y-100992042D01*
X148861510Y-100992042D01*
X148901511Y-101000000D01*
X150098489Y-101000000D01*
X150138488Y-100992042D01*
X149500000Y-100353553D01*
X148861510Y-100992042D01*
X145850500Y-100992042D01*
X145850500Y-100730253D01*
X145850500Y-100730252D01*
X145838867Y-100671769D01*
X145794552Y-100605448D01*
X145758887Y-100581617D01*
X145728232Y-100561133D01*
X145728233Y-100561133D01*
X145698989Y-100555316D01*
X145669748Y-100549500D01*
X144630252Y-100549500D01*
X144601010Y-100555316D01*
X144571767Y-100561133D01*
X144541112Y-100581617D01*
X144485564Y-100592666D01*
X144458888Y-100581617D01*
X144428231Y-100561133D01*
X144428233Y-100561133D01*
X144398989Y-100555316D01*
X144369748Y-100549500D01*
X144369746Y-100549500D01*
X144224500Y-100549500D01*
X144172174Y-100527826D01*
X144150500Y-100475500D01*
X144150500Y-100370436D01*
X144147439Y-100359016D01*
X144147439Y-100359012D01*
X144130023Y-100294016D01*
X144130022Y-100294012D01*
X144099103Y-100240459D01*
X144090462Y-100225492D01*
X144090461Y-100225491D01*
X144090460Y-100225489D01*
X143759814Y-99894843D01*
X143738140Y-99842517D01*
X143759814Y-99790191D01*
X143797703Y-99769939D01*
X143828231Y-99763867D01*
X143894552Y-99719552D01*
X143938867Y-99653231D01*
X143939942Y-99647828D01*
X144750000Y-99647828D01*
X144756402Y-99707375D01*
X144756403Y-99707380D01*
X144806645Y-99842087D01*
X144806646Y-99842088D01*
X144892811Y-99957188D01*
X145007911Y-100043353D01*
X145007912Y-100043354D01*
X145142619Y-100093596D01*
X145142624Y-100093597D01*
X145202171Y-100100000D01*
X145325000Y-100100000D01*
X145825000Y-100100000D01*
X145947829Y-100100000D01*
X146007375Y-100093597D01*
X146007380Y-100093596D01*
X146142087Y-100043354D01*
X146142088Y-100043353D01*
X146257188Y-99957188D01*
X146298870Y-99901509D01*
X148000000Y-99901509D01*
X148000000Y-100098490D01*
X148038427Y-100291682D01*
X148038430Y-100291693D01*
X148113809Y-100473675D01*
X148223246Y-100637459D01*
X148223247Y-100637460D01*
X148362537Y-100776751D01*
X148362539Y-100776752D01*
X148366827Y-100779617D01*
X148366828Y-100779617D01*
X149146446Y-99999999D01*
X149853553Y-99999999D01*
X150633171Y-100779617D01*
X150637462Y-100776751D01*
X150776752Y-100637460D01*
X150776753Y-100637459D01*
X150886190Y-100473675D01*
X150961569Y-100291693D01*
X150961572Y-100291682D01*
X151000000Y-100098490D01*
X151000000Y-99901509D01*
X150961572Y-99708317D01*
X150961569Y-99708306D01*
X150886190Y-99526324D01*
X150776753Y-99362540D01*
X150776752Y-99362539D01*
X150637464Y-99223250D01*
X150637462Y-99223248D01*
X150633170Y-99220381D01*
X149853553Y-99999999D01*
X149146446Y-99999999D01*
X148366827Y-99220381D01*
X148362535Y-99223250D01*
X148223247Y-99362539D01*
X148223246Y-99362540D01*
X148113809Y-99526324D01*
X148038430Y-99708306D01*
X148038427Y-99708317D01*
X148000000Y-99901509D01*
X146298870Y-99901509D01*
X146343353Y-99842088D01*
X146343354Y-99842087D01*
X146393596Y-99707380D01*
X146393597Y-99707375D01*
X146400000Y-99647828D01*
X146400000Y-99325000D01*
X145825000Y-99325000D01*
X145825000Y-100100000D01*
X145325000Y-100100000D01*
X145325000Y-99325000D01*
X144750000Y-99325000D01*
X144750000Y-99647828D01*
X143939942Y-99647828D01*
X143950500Y-99594748D01*
X143950500Y-99007956D01*
X148861510Y-99007956D01*
X149499999Y-99646445D01*
X150138488Y-99007956D01*
X150098490Y-99000000D01*
X148901510Y-99000000D01*
X148861510Y-99007956D01*
X143950500Y-99007956D01*
X143950500Y-98505252D01*
X143949887Y-98502171D01*
X144750000Y-98502171D01*
X144750000Y-98825000D01*
X145325000Y-98825000D01*
X145825000Y-98825000D01*
X146400000Y-98825000D01*
X146400000Y-98502171D01*
X146393597Y-98442624D01*
X146393596Y-98442619D01*
X146343354Y-98307912D01*
X146343353Y-98307911D01*
X146257188Y-98192811D01*
X146142088Y-98106646D01*
X146142087Y-98106645D01*
X146007380Y-98056403D01*
X146007375Y-98056402D01*
X145947829Y-98050000D01*
X145825000Y-98050000D01*
X145825000Y-98825000D01*
X145325000Y-98825000D01*
X145325000Y-98050000D01*
X145202171Y-98050000D01*
X145142624Y-98056402D01*
X145142619Y-98056403D01*
X145007912Y-98106645D01*
X145007911Y-98106646D01*
X144892811Y-98192811D01*
X144806646Y-98307911D01*
X144806645Y-98307912D01*
X144756403Y-98442619D01*
X144756402Y-98442624D01*
X144750000Y-98502171D01*
X143949887Y-98502171D01*
X143938867Y-98446769D01*
X143938715Y-98446542D01*
X143920661Y-98419522D01*
X143894552Y-98380448D01*
X143872343Y-98365608D01*
X143828232Y-98336133D01*
X143785063Y-98327546D01*
X143737971Y-98296080D01*
X143725500Y-98254968D01*
X143725500Y-98000000D01*
X147594353Y-98000000D01*
X147614834Y-98142454D01*
X147614834Y-98142455D01*
X147614835Y-98142457D01*
X147637831Y-98192811D01*
X147674623Y-98273373D01*
X147768868Y-98382139D01*
X147768869Y-98382140D01*
X147768872Y-98382143D01*
X147861474Y-98441654D01*
X147865246Y-98444079D01*
X147889947Y-98459953D01*
X147996403Y-98491211D01*
X148028035Y-98500499D01*
X148028037Y-98500500D01*
X148028039Y-98500500D01*
X148171963Y-98500500D01*
X148171964Y-98500499D01*
X148310053Y-98459953D01*
X148357318Y-98429577D01*
X148413054Y-98419522D01*
X148453206Y-98444079D01*
X148453315Y-98443971D01*
X148453763Y-98444419D01*
X148454528Y-98444887D01*
X148455883Y-98446538D01*
X148455886Y-98446542D01*
X148553458Y-98544114D01*
X148668189Y-98620775D01*
X148795672Y-98673580D01*
X148931007Y-98700500D01*
X148931009Y-98700500D01*
X150068991Y-98700500D01*
X150068993Y-98700500D01*
X150204328Y-98673580D01*
X150331811Y-98620775D01*
X150446542Y-98544114D01*
X150544114Y-98446542D01*
X150620775Y-98331811D01*
X150673580Y-98204328D01*
X150700500Y-98068993D01*
X150700500Y-97931007D01*
X150673580Y-97795672D01*
X150644980Y-97726626D01*
X150620776Y-97668191D01*
X150597052Y-97632686D01*
X150544114Y-97553458D01*
X150446542Y-97455886D01*
X150436236Y-97449000D01*
X150331808Y-97379223D01*
X150204332Y-97326421D01*
X150204322Y-97326418D01*
X150113694Y-97308391D01*
X150068993Y-97299500D01*
X148931007Y-97299500D01*
X148892642Y-97307131D01*
X148795677Y-97326418D01*
X148795667Y-97326421D01*
X148668191Y-97379223D01*
X148553461Y-97455883D01*
X148455878Y-97553466D01*
X148454516Y-97555126D01*
X148453878Y-97555466D01*
X148453316Y-97556029D01*
X148453145Y-97555858D01*
X148404561Y-97581813D01*
X148357317Y-97570421D01*
X148325777Y-97550152D01*
X148310053Y-97540047D01*
X148310050Y-97540046D01*
X148171964Y-97499500D01*
X148171961Y-97499500D01*
X148028039Y-97499500D01*
X148028036Y-97499500D01*
X147889949Y-97540046D01*
X147889945Y-97540047D01*
X147768875Y-97617855D01*
X147768868Y-97617860D01*
X147674623Y-97726626D01*
X147614834Y-97857545D01*
X147594353Y-98000000D01*
X143725500Y-98000000D01*
X143725500Y-97010000D01*
X158184353Y-97010000D01*
X158204834Y-97152454D01*
X158204834Y-97152455D01*
X158204835Y-97152457D01*
X158257510Y-97267797D01*
X158264623Y-97283373D01*
X158358868Y-97392139D01*
X158358869Y-97392140D01*
X158358872Y-97392143D01*
X158479947Y-97469953D01*
X158580576Y-97499500D01*
X158618035Y-97510499D01*
X158618037Y-97510500D01*
X158734877Y-97510500D01*
X158787203Y-97532174D01*
X159787826Y-98532797D01*
X159809500Y-98585123D01*
X159809500Y-106667766D01*
X159787826Y-106720092D01*
X159782715Y-106724211D01*
X159782872Y-106724392D01*
X159778868Y-106727860D01*
X159684623Y-106836626D01*
X159624834Y-106967545D01*
X159604353Y-107110000D01*
X159624834Y-107252454D01*
X159624834Y-107252455D01*
X159624835Y-107252457D01*
X159640064Y-107285803D01*
X159684623Y-107383373D01*
X159778868Y-107492139D01*
X159778869Y-107492140D01*
X159778872Y-107492143D01*
X159856039Y-107541735D01*
X159882939Y-107559023D01*
X159899947Y-107569953D01*
X159969884Y-107590488D01*
X160038035Y-107610499D01*
X160038037Y-107610500D01*
X160038039Y-107610500D01*
X160181963Y-107610500D01*
X160181964Y-107610499D01*
X160320053Y-107569953D01*
X160441128Y-107492143D01*
X160535377Y-107383373D01*
X160595165Y-107252457D01*
X160615647Y-107110000D01*
X160598706Y-106992171D01*
X171240000Y-106992171D01*
X171240000Y-107290000D01*
X172240000Y-107290000D01*
X172240000Y-106540000D01*
X171692171Y-106540000D01*
X171632624Y-106546402D01*
X171632619Y-106546403D01*
X171497912Y-106596645D01*
X171497911Y-106596646D01*
X171382811Y-106682811D01*
X171296646Y-106797911D01*
X171296645Y-106797912D01*
X171246403Y-106932619D01*
X171246402Y-106932624D01*
X171240000Y-106992171D01*
X160598706Y-106992171D01*
X160595165Y-106967543D01*
X160535377Y-106836627D01*
X160441128Y-106727857D01*
X160441126Y-106727855D01*
X160437128Y-106724392D01*
X160439041Y-106722183D01*
X160412183Y-106683459D01*
X160410500Y-106667766D01*
X160410500Y-102000000D01*
X166524353Y-102000000D01*
X166544834Y-102142454D01*
X166544834Y-102142455D01*
X166544835Y-102142457D01*
X166604075Y-102272174D01*
X166604623Y-102273373D01*
X166698868Y-102382139D01*
X166698869Y-102382140D01*
X166698872Y-102382143D01*
X166819947Y-102459953D01*
X166921598Y-102489800D01*
X166958035Y-102500499D01*
X166958037Y-102500500D01*
X166958039Y-102500500D01*
X167101963Y-102500500D01*
X167101964Y-102500499D01*
X167240053Y-102459953D01*
X167336166Y-102398184D01*
X167391902Y-102388129D01*
X167437701Y-102419326D01*
X167451897Y-102440573D01*
X167455886Y-102446542D01*
X167553458Y-102544114D01*
X167668189Y-102620775D01*
X167668190Y-102620775D01*
X167668191Y-102620776D01*
X167761776Y-102659540D01*
X167795672Y-102673580D01*
X167931007Y-102700500D01*
X167931009Y-102700500D01*
X169068991Y-102700500D01*
X169068993Y-102700500D01*
X169204328Y-102673580D01*
X169331811Y-102620775D01*
X169446542Y-102544114D01*
X169544114Y-102446542D01*
X169620775Y-102331811D01*
X169673580Y-102204328D01*
X169700500Y-102068993D01*
X169700500Y-101931007D01*
X169673580Y-101795672D01*
X169642226Y-101719977D01*
X169620776Y-101668191D01*
X169602368Y-101640642D01*
X169544114Y-101553458D01*
X169446542Y-101455886D01*
X169377180Y-101409540D01*
X169331808Y-101379223D01*
X169204332Y-101326421D01*
X169204322Y-101326418D01*
X169113694Y-101308391D01*
X169068993Y-101299500D01*
X167931007Y-101299500D01*
X167892642Y-101307131D01*
X167795677Y-101326418D01*
X167795667Y-101326421D01*
X167668191Y-101379223D01*
X167553461Y-101455883D01*
X167455881Y-101553463D01*
X167437700Y-101580674D01*
X167390608Y-101612139D01*
X167336165Y-101601814D01*
X167240054Y-101540047D01*
X167240050Y-101540046D01*
X167101964Y-101499500D01*
X167101961Y-101499500D01*
X166958039Y-101499500D01*
X166958036Y-101499500D01*
X166819949Y-101540046D01*
X166819945Y-101540047D01*
X166698875Y-101617855D01*
X166698868Y-101617860D01*
X166604623Y-101726626D01*
X166544834Y-101857545D01*
X166524353Y-102000000D01*
X160410500Y-102000000D01*
X160410500Y-100405000D01*
X164379353Y-100405000D01*
X164399834Y-100547454D01*
X164399834Y-100547455D01*
X164399835Y-100547457D01*
X164451004Y-100659500D01*
X164459623Y-100678373D01*
X164553868Y-100787139D01*
X164553869Y-100787140D01*
X164553872Y-100787143D01*
X164626606Y-100833886D01*
X164668120Y-100860566D01*
X164674947Y-100864953D01*
X164781403Y-100896211D01*
X164813035Y-100905499D01*
X164813037Y-100905500D01*
X164813039Y-100905500D01*
X164956963Y-100905500D01*
X164956964Y-100905499D01*
X165095053Y-100864953D01*
X165216128Y-100787143D01*
X165310377Y-100678373D01*
X165370165Y-100547457D01*
X165390647Y-100405000D01*
X165370165Y-100262543D01*
X165310377Y-100131627D01*
X165227100Y-100035519D01*
X165216131Y-100022860D01*
X165212128Y-100019392D01*
X165214041Y-100017183D01*
X165187183Y-99978459D01*
X165185500Y-99962766D01*
X165185500Y-98000000D01*
X165754353Y-98000000D01*
X165774834Y-98142454D01*
X165774834Y-98142455D01*
X165774835Y-98142457D01*
X165797831Y-98192811D01*
X165834623Y-98273373D01*
X165928868Y-98382139D01*
X165928869Y-98382140D01*
X165928872Y-98382143D01*
X166021474Y-98441654D01*
X166025246Y-98444079D01*
X166049947Y-98459953D01*
X166156403Y-98491211D01*
X166188035Y-98500499D01*
X166188037Y-98500500D01*
X166188039Y-98500500D01*
X166331963Y-98500500D01*
X166331964Y-98500499D01*
X166470053Y-98459953D01*
X166591128Y-98382143D01*
X166630996Y-98336133D01*
X166639741Y-98326041D01*
X166690388Y-98300689D01*
X166695667Y-98300500D01*
X167318750Y-98300500D01*
X167371076Y-98322174D01*
X167380279Y-98333388D01*
X167453264Y-98442619D01*
X167455886Y-98446542D01*
X167553458Y-98544114D01*
X167668189Y-98620775D01*
X167795672Y-98673580D01*
X167931007Y-98700500D01*
X167931009Y-98700500D01*
X169068991Y-98700500D01*
X169068993Y-98700500D01*
X169204328Y-98673580D01*
X169331811Y-98620775D01*
X169446542Y-98544114D01*
X169544114Y-98446542D01*
X169620775Y-98331811D01*
X169673580Y-98204328D01*
X169700500Y-98068993D01*
X169700500Y-97931007D01*
X169673580Y-97795672D01*
X169644980Y-97726626D01*
X169620776Y-97668191D01*
X169597052Y-97632686D01*
X169544114Y-97553458D01*
X169446542Y-97455886D01*
X169436236Y-97449000D01*
X169331808Y-97379223D01*
X169204332Y-97326421D01*
X169204322Y-97326418D01*
X169113694Y-97308391D01*
X169068993Y-97299500D01*
X167931007Y-97299500D01*
X167892642Y-97307131D01*
X167795677Y-97326418D01*
X167795667Y-97326421D01*
X167668191Y-97379223D01*
X167553461Y-97455883D01*
X167455883Y-97553461D01*
X167380279Y-97666612D01*
X167333187Y-97698078D01*
X167318750Y-97699500D01*
X166695667Y-97699500D01*
X166643341Y-97677826D01*
X166639741Y-97673959D01*
X166591131Y-97617860D01*
X166591128Y-97617857D01*
X166470054Y-97540047D01*
X166470050Y-97540046D01*
X166331964Y-97499500D01*
X166331961Y-97499500D01*
X166188039Y-97499500D01*
X166188036Y-97499500D01*
X166049949Y-97540046D01*
X166049945Y-97540047D01*
X165928875Y-97617855D01*
X165928868Y-97617860D01*
X165834623Y-97726626D01*
X165774834Y-97857545D01*
X165754353Y-98000000D01*
X165185500Y-98000000D01*
X165185500Y-97320123D01*
X165207174Y-97267797D01*
X166152797Y-96322174D01*
X166205123Y-96300500D01*
X167318750Y-96300500D01*
X167371076Y-96322174D01*
X167380277Y-96333386D01*
X167455886Y-96446542D01*
X167553458Y-96544114D01*
X167668189Y-96620775D01*
X167668190Y-96620775D01*
X167668191Y-96620776D01*
X167795667Y-96673578D01*
X167795672Y-96673580D01*
X167931007Y-96700500D01*
X167931009Y-96700500D01*
X169068991Y-96700500D01*
X169068993Y-96700500D01*
X169204328Y-96673580D01*
X169331811Y-96620775D01*
X169446542Y-96544114D01*
X169544114Y-96446542D01*
X169620775Y-96331811D01*
X169673580Y-96204328D01*
X169700500Y-96068993D01*
X169700500Y-95931007D01*
X169673580Y-95795672D01*
X169642226Y-95719977D01*
X169620776Y-95668191D01*
X169620451Y-95667705D01*
X169544114Y-95553458D01*
X169446542Y-95455886D01*
X169331811Y-95379225D01*
X169331810Y-95379224D01*
X169331808Y-95379223D01*
X169204332Y-95326421D01*
X169204322Y-95326418D01*
X169101062Y-95305879D01*
X169068993Y-95299500D01*
X167931007Y-95299500D01*
X167898938Y-95305879D01*
X167795677Y-95326418D01*
X167795667Y-95326421D01*
X167668191Y-95379223D01*
X167553461Y-95455883D01*
X167455883Y-95553461D01*
X167412857Y-95617855D01*
X167391045Y-95650500D01*
X167380279Y-95666612D01*
X167333187Y-95698078D01*
X167318750Y-95699500D01*
X166010436Y-95699500D01*
X165934014Y-95719977D01*
X165934009Y-95719979D01*
X165906875Y-95735646D01*
X165865488Y-95759540D01*
X164644540Y-96980488D01*
X164604979Y-97049009D01*
X164604977Y-97049014D01*
X164584500Y-97125435D01*
X164584500Y-99962766D01*
X164562826Y-100015092D01*
X164557715Y-100019211D01*
X164557872Y-100019392D01*
X164553868Y-100022860D01*
X164459623Y-100131626D01*
X164399834Y-100262545D01*
X164379353Y-100405000D01*
X160410500Y-100405000D01*
X160410500Y-98390436D01*
X160410499Y-98390435D01*
X160410478Y-98390358D01*
X160393648Y-98327546D01*
X160390022Y-98314014D01*
X160390020Y-98314009D01*
X160366559Y-98273373D01*
X160350460Y-98245489D01*
X160294511Y-98189540D01*
X159211697Y-97106726D01*
X159190023Y-97054400D01*
X159190777Y-97043866D01*
X159195647Y-97010002D01*
X159195647Y-97010001D01*
X159175165Y-96867545D01*
X159175165Y-96867543D01*
X159115377Y-96736627D01*
X159021128Y-96627857D01*
X158964182Y-96591260D01*
X158900054Y-96550047D01*
X158900050Y-96550046D01*
X158761964Y-96509500D01*
X158761961Y-96509500D01*
X158618039Y-96509500D01*
X158618036Y-96509500D01*
X158479949Y-96550046D01*
X158479945Y-96550047D01*
X158358875Y-96627855D01*
X158358868Y-96627860D01*
X158264623Y-96736626D01*
X158204834Y-96867545D01*
X158184353Y-97010000D01*
X143725500Y-97010000D01*
X143725500Y-96000000D01*
X147594353Y-96000000D01*
X147614834Y-96142454D01*
X147674623Y-96273373D01*
X147768868Y-96382139D01*
X147768869Y-96382140D01*
X147768872Y-96382143D01*
X147861474Y-96441654D01*
X147865246Y-96444079D01*
X147889947Y-96459953D01*
X147996403Y-96491211D01*
X148028035Y-96500499D01*
X148028037Y-96500500D01*
X148028039Y-96500500D01*
X148171963Y-96500500D01*
X148171964Y-96500499D01*
X148310053Y-96459953D01*
X148357318Y-96429577D01*
X148413054Y-96419522D01*
X148453206Y-96444079D01*
X148453315Y-96443971D01*
X148453763Y-96444419D01*
X148454528Y-96444887D01*
X148455883Y-96446538D01*
X148455886Y-96446542D01*
X148553458Y-96544114D01*
X148668189Y-96620775D01*
X148668190Y-96620775D01*
X148668191Y-96620776D01*
X148795667Y-96673578D01*
X148795672Y-96673580D01*
X148931007Y-96700500D01*
X148931009Y-96700500D01*
X150068991Y-96700500D01*
X150068993Y-96700500D01*
X150204328Y-96673580D01*
X150331811Y-96620775D01*
X150446542Y-96544114D01*
X150544114Y-96446542D01*
X150620775Y-96331811D01*
X150673580Y-96204328D01*
X150700500Y-96068993D01*
X150700500Y-95931007D01*
X150673580Y-95795672D01*
X150642226Y-95719977D01*
X150620776Y-95668191D01*
X150620451Y-95667705D01*
X150544114Y-95553458D01*
X150446542Y-95455886D01*
X150331811Y-95379225D01*
X150331810Y-95379224D01*
X150331808Y-95379223D01*
X150204332Y-95326421D01*
X150204322Y-95326418D01*
X150101062Y-95305879D01*
X150068993Y-95299500D01*
X148931007Y-95299500D01*
X148898938Y-95305879D01*
X148795677Y-95326418D01*
X148795667Y-95326421D01*
X148668191Y-95379223D01*
X148553461Y-95455883D01*
X148455878Y-95553466D01*
X148454516Y-95555126D01*
X148453878Y-95555466D01*
X148453316Y-95556029D01*
X148453145Y-95555858D01*
X148404561Y-95581813D01*
X148357317Y-95570421D01*
X148330921Y-95553458D01*
X148310053Y-95540047D01*
X148310050Y-95540046D01*
X148171964Y-95499500D01*
X148171961Y-95499500D01*
X148028039Y-95499500D01*
X148028036Y-95499500D01*
X147889949Y-95540046D01*
X147889945Y-95540047D01*
X147768875Y-95617855D01*
X147768868Y-95617860D01*
X147674623Y-95726626D01*
X147614834Y-95857545D01*
X147594353Y-96000000D01*
X143725500Y-96000000D01*
X143725500Y-95720031D01*
X143747174Y-95667705D01*
X143785062Y-95647453D01*
X143828231Y-95638867D01*
X143894552Y-95594552D01*
X143938867Y-95528231D01*
X143944915Y-95497828D01*
X144750000Y-95497828D01*
X144756402Y-95557375D01*
X144756403Y-95557380D01*
X144806645Y-95692087D01*
X144806646Y-95692088D01*
X144892811Y-95807188D01*
X145007911Y-95893353D01*
X145007912Y-95893354D01*
X145142619Y-95943596D01*
X145142624Y-95943597D01*
X145202171Y-95950000D01*
X145325000Y-95950000D01*
X145825000Y-95950000D01*
X145947829Y-95950000D01*
X146007375Y-95943597D01*
X146007380Y-95943596D01*
X146142087Y-95893354D01*
X146142088Y-95893353D01*
X146257188Y-95807188D01*
X146343353Y-95692088D01*
X146343354Y-95692087D01*
X146393596Y-95557380D01*
X146393597Y-95557375D01*
X146400000Y-95497828D01*
X146400000Y-95175000D01*
X145825000Y-95175000D01*
X145825000Y-95950000D01*
X145325000Y-95950000D01*
X145325000Y-95175000D01*
X144750000Y-95175000D01*
X144750000Y-95497828D01*
X143944915Y-95497828D01*
X143950500Y-95469748D01*
X143950500Y-94380252D01*
X143944914Y-94352171D01*
X144750000Y-94352171D01*
X144750000Y-94675000D01*
X145325000Y-94675000D01*
X145825000Y-94675000D01*
X146400000Y-94675000D01*
X146400000Y-94352171D01*
X146393597Y-94292624D01*
X146393596Y-94292619D01*
X146343354Y-94157912D01*
X146343353Y-94157911D01*
X146257188Y-94042811D01*
X146142088Y-93956646D01*
X146142087Y-93956645D01*
X146007380Y-93906403D01*
X146007375Y-93906402D01*
X145947829Y-93900000D01*
X145825000Y-93900000D01*
X145825000Y-94675000D01*
X145325000Y-94675000D01*
X145325000Y-93900000D01*
X145202171Y-93900000D01*
X145142624Y-93906402D01*
X145142619Y-93906403D01*
X145007912Y-93956645D01*
X145007911Y-93956646D01*
X144892811Y-94042811D01*
X144806646Y-94157911D01*
X144806645Y-94157912D01*
X144756403Y-94292619D01*
X144756402Y-94292624D01*
X144750000Y-94352171D01*
X143944914Y-94352171D01*
X143938867Y-94321769D01*
X143894552Y-94255448D01*
X143872343Y-94240608D01*
X143828232Y-94211133D01*
X143828233Y-94211133D01*
X143794020Y-94204328D01*
X143769748Y-94199500D01*
X143080252Y-94199500D01*
X143055980Y-94204328D01*
X143021767Y-94211133D01*
X142955449Y-94255447D01*
X142955447Y-94255449D01*
X142911133Y-94321767D01*
X142905086Y-94352171D01*
X142899500Y-94380252D01*
X142899500Y-95469748D01*
X142905418Y-95499500D01*
X142911133Y-95528232D01*
X142930610Y-95557380D01*
X142955448Y-95594552D01*
X142998581Y-95623373D01*
X143021767Y-95638866D01*
X143021769Y-95638867D01*
X143064936Y-95647453D01*
X143112028Y-95678918D01*
X143124500Y-95720031D01*
X143124500Y-98254968D01*
X143102826Y-98307294D01*
X143064937Y-98327546D01*
X143021767Y-98336133D01*
X142955449Y-98380447D01*
X142955447Y-98380449D01*
X142911133Y-98446767D01*
X142907665Y-98464204D01*
X142900446Y-98500499D01*
X142899500Y-98505253D01*
X142899500Y-99594746D01*
X142911133Y-99653232D01*
X142921129Y-99668191D01*
X142955448Y-99719552D01*
X142999560Y-99749027D01*
X143021767Y-99763866D01*
X143021769Y-99763867D01*
X143064936Y-99772453D01*
X143112028Y-99803918D01*
X143124500Y-99845031D01*
X143124500Y-100024564D01*
X143144977Y-100100985D01*
X143144979Y-100100990D01*
X143161874Y-100130252D01*
X143184540Y-100169511D01*
X143438203Y-100423174D01*
X143459877Y-100475500D01*
X143438203Y-100527826D01*
X143385877Y-100549500D01*
X143330252Y-100549500D01*
X143301010Y-100555316D01*
X143271767Y-100561133D01*
X143205449Y-100605447D01*
X143205447Y-100605449D01*
X143161133Y-100671767D01*
X143149500Y-100730253D01*
X143149500Y-101489129D01*
X143127826Y-101541455D01*
X143075500Y-101563129D01*
X143035493Y-101551382D01*
X142972347Y-101510801D01*
X142940053Y-101490047D01*
X142936927Y-101489129D01*
X142801964Y-101449500D01*
X142801961Y-101449500D01*
X142658039Y-101449500D01*
X142658036Y-101449500D01*
X142519949Y-101490046D01*
X142519948Y-101490046D01*
X142509246Y-101496924D01*
X142453508Y-101506977D01*
X142436741Y-101501150D01*
X142351394Y-101459427D01*
X142283264Y-101449500D01*
X142283260Y-101449500D01*
X141191740Y-101449500D01*
X141191735Y-101449500D01*
X141123606Y-101459427D01*
X141123605Y-101459427D01*
X141018517Y-101510801D01*
X140935802Y-101593516D01*
X140935802Y-101593517D01*
X140928721Y-101608000D01*
X140886270Y-101645490D01*
X140862241Y-101649500D01*
X140337759Y-101649500D01*
X140285433Y-101627826D01*
X140271279Y-101608002D01*
X140264198Y-101593517D01*
X140181483Y-101510802D01*
X140181482Y-101510801D01*
X140076394Y-101459427D01*
X140008264Y-101449500D01*
X140008260Y-101449500D01*
X138916740Y-101449500D01*
X138916735Y-101449500D01*
X138848606Y-101459427D01*
X138848605Y-101459427D01*
X138743517Y-101510801D01*
X138660802Y-101593516D01*
X138660802Y-101593517D01*
X138653721Y-101608000D01*
X138611270Y-101645490D01*
X138587241Y-101649500D01*
X138405123Y-101649500D01*
X138352797Y-101627826D01*
X138134511Y-101409540D01*
X138065990Y-101369979D01*
X138065986Y-101369978D01*
X138025346Y-101359088D01*
X137980414Y-101324609D01*
X137970500Y-101287610D01*
X137970500Y-100980253D01*
X137958866Y-100921766D01*
X137955089Y-100916114D01*
X137944037Y-100860566D01*
X137955089Y-100833886D01*
X137958866Y-100828233D01*
X137958866Y-100828232D01*
X137958867Y-100828231D01*
X137970500Y-100769748D01*
X137970500Y-100459968D01*
X137992174Y-100407642D01*
X138009042Y-100395016D01*
X138012091Y-100393351D01*
X138127188Y-100307188D01*
X138213353Y-100192088D01*
X138213354Y-100192087D01*
X138263596Y-100057380D01*
X138263597Y-100057375D01*
X138270000Y-99997828D01*
X138270000Y-99900000D01*
X136223109Y-99900000D01*
X136170783Y-99878326D01*
X136151631Y-99845154D01*
X136136281Y-99787865D01*
X136060515Y-99656635D01*
X135953365Y-99549485D01*
X135933620Y-99538085D01*
X135899143Y-99493153D01*
X135906535Y-99437000D01*
X135951468Y-99402522D01*
X135970621Y-99400000D01*
X136795000Y-99400000D01*
X137295000Y-99400000D01*
X138270000Y-99400000D01*
X138270000Y-99302171D01*
X138263597Y-99242624D01*
X138263596Y-99242619D01*
X138213354Y-99107912D01*
X138213353Y-99107911D01*
X138127188Y-98992811D01*
X138012088Y-98906646D01*
X138012087Y-98906645D01*
X137877380Y-98856403D01*
X137877375Y-98856402D01*
X137817829Y-98850000D01*
X137701276Y-98850000D01*
X137652991Y-98830000D01*
X137295000Y-98830000D01*
X137295000Y-99400000D01*
X136795000Y-99400000D01*
X136795000Y-98859769D01*
X136795796Y-98859556D01*
X136864205Y-98820060D01*
X136920060Y-98764205D01*
X136959556Y-98695796D01*
X136980000Y-98619496D01*
X136980000Y-98540504D01*
X136959556Y-98464204D01*
X136920060Y-98395795D01*
X136864205Y-98339940D01*
X136846988Y-98330000D01*
X137649863Y-98330000D01*
X137649863Y-98329999D01*
X137641572Y-98288317D01*
X137641569Y-98288306D01*
X137566190Y-98106324D01*
X137456753Y-97942540D01*
X137317459Y-97803246D01*
X137153675Y-97693809D01*
X136971693Y-97618430D01*
X136971682Y-97618427D01*
X136778490Y-97580000D01*
X136380000Y-97580000D01*
X136380000Y-98280000D01*
X135880000Y-98280000D01*
X135880000Y-97580000D01*
X135481510Y-97580000D01*
X135288317Y-97618427D01*
X135288306Y-97618430D01*
X135106324Y-97693809D01*
X134942540Y-97803246D01*
X134803246Y-97942540D01*
X134693809Y-98106324D01*
X134618430Y-98288306D01*
X134618427Y-98288317D01*
X134610136Y-98329999D01*
X133219863Y-98329999D01*
X133211572Y-98288317D01*
X133211569Y-98288306D01*
X133136190Y-98106324D01*
X133026753Y-97942540D01*
X132887459Y-97803246D01*
X132723675Y-97693809D01*
X132541693Y-97618430D01*
X132541682Y-97618427D01*
X132348490Y-97580000D01*
X132200000Y-97580000D01*
X132200000Y-98280000D01*
X131700000Y-98280000D01*
X131700000Y-97580000D01*
X131574500Y-97580000D01*
X131522174Y-97558326D01*
X131500500Y-97506000D01*
X131500500Y-88389698D01*
X131522174Y-88337372D01*
X131574500Y-88315698D01*
X131626826Y-88337372D01*
X131633857Y-88345509D01*
X131697968Y-88431627D01*
X131697975Y-88431635D01*
X131706147Y-88440296D01*
X131706148Y-88440297D01*
X132956320Y-87190125D01*
X133046554Y-87314320D01*
X133185680Y-87453446D01*
X133309873Y-87543678D01*
X132062819Y-88790733D01*
X132062819Y-88790735D01*
X132205490Y-88910450D01*
X132205491Y-88910451D01*
X132497446Y-89102472D01*
X132497454Y-89102476D01*
X132809753Y-89259320D01*
X133138126Y-89378837D01*
X133138138Y-89378841D01*
X133478164Y-89459428D01*
X133478174Y-89459430D01*
X133825270Y-89500000D01*
X134174730Y-89500000D01*
X134521825Y-89459430D01*
X134521835Y-89459428D01*
X134861861Y-89378841D01*
X134861873Y-89378837D01*
X135190246Y-89259320D01*
X135326996Y-89190641D01*
X138700000Y-89190641D01*
X138702900Y-89227493D01*
X138748718Y-89385199D01*
X138832317Y-89526556D01*
X138948443Y-89642682D01*
X139089800Y-89726281D01*
X139247506Y-89772099D01*
X139250000Y-89772295D01*
X139750000Y-89772295D01*
X139752493Y-89772099D01*
X139914669Y-89724983D01*
X139915270Y-89727054D01*
X139964779Y-89726267D01*
X140005460Y-89765673D01*
X140010799Y-89805606D01*
X139994353Y-89919999D01*
X140014834Y-90062454D01*
X140014834Y-90062455D01*
X140014835Y-90062457D01*
X140057116Y-90155039D01*
X140074623Y-90193373D01*
X140168868Y-90302139D01*
X140168869Y-90302140D01*
X140168872Y-90302143D01*
X140261474Y-90361654D01*
X140277887Y-90372203D01*
X140289947Y-90379953D01*
X140386673Y-90408354D01*
X140428035Y-90420499D01*
X140428037Y-90420500D01*
X140428039Y-90420500D01*
X140571963Y-90420500D01*
X140571964Y-90420499D01*
X140710053Y-90379953D01*
X140831128Y-90302143D01*
X140925377Y-90193373D01*
X140985165Y-90062457D01*
X141005647Y-89920000D01*
X140985165Y-89777543D01*
X140925377Y-89646627D01*
X140831128Y-89537857D01*
X140831127Y-89537856D01*
X140827662Y-89533857D01*
X140829655Y-89532129D01*
X140808240Y-89489345D01*
X140826127Y-89435606D01*
X140849552Y-89417585D01*
X140856483Y-89414198D01*
X140939198Y-89331483D01*
X140939200Y-89331477D01*
X140939773Y-89330677D01*
X140940387Y-89330293D01*
X140943534Y-89327147D01*
X140944261Y-89327874D01*
X140987817Y-89300684D01*
X141042997Y-89313447D01*
X141060227Y-89330677D01*
X141060801Y-89331481D01*
X141060802Y-89331483D01*
X141143517Y-89414198D01*
X141158000Y-89421278D01*
X141195490Y-89463730D01*
X141199500Y-89487759D01*
X141199500Y-90209564D01*
X141219977Y-90285985D01*
X141219979Y-90285990D01*
X141259540Y-90354511D01*
X141948301Y-91043272D01*
X141969975Y-91095598D01*
X141969222Y-91106127D01*
X141964353Y-91139998D01*
X141964353Y-91140000D01*
X141966387Y-91154147D01*
X141984834Y-91282454D01*
X141984834Y-91282455D01*
X141984835Y-91282457D01*
X141985773Y-91284511D01*
X142044623Y-91413373D01*
X142138868Y-91522139D01*
X142138869Y-91522140D01*
X142138872Y-91522143D01*
X142259947Y-91599953D01*
X142366403Y-91631211D01*
X142398035Y-91640499D01*
X142398037Y-91640500D01*
X142398039Y-91640500D01*
X142541963Y-91640500D01*
X142541964Y-91640499D01*
X142680053Y-91599953D01*
X142801128Y-91522143D01*
X142895377Y-91413373D01*
X142955165Y-91282457D01*
X142975647Y-91140000D01*
X142955165Y-90997543D01*
X142895377Y-90866627D01*
X142836182Y-90798312D01*
X142801131Y-90757860D01*
X142801129Y-90757859D01*
X142801128Y-90757857D01*
X142744182Y-90721260D01*
X142680054Y-90680047D01*
X142680050Y-90680046D01*
X142541964Y-90639500D01*
X142541961Y-90639500D01*
X142425123Y-90639500D01*
X142372797Y-90617826D01*
X142289651Y-90534680D01*
X142267977Y-90482354D01*
X142289651Y-90430028D01*
X142341977Y-90408354D01*
X142362826Y-90411352D01*
X142428037Y-90430500D01*
X142428039Y-90430500D01*
X142571963Y-90430500D01*
X142571964Y-90430499D01*
X142710053Y-90389953D01*
X142831128Y-90312143D01*
X142925377Y-90203373D01*
X142985165Y-90072457D01*
X143005647Y-89930000D01*
X142985165Y-89787543D01*
X142925377Y-89656627D01*
X142857447Y-89578231D01*
X142831131Y-89547860D01*
X142827128Y-89544392D01*
X142829041Y-89542183D01*
X142802183Y-89503459D01*
X142800500Y-89487766D01*
X142800500Y-89487759D01*
X142822174Y-89435433D01*
X142841997Y-89421279D01*
X142856483Y-89414198D01*
X142939198Y-89331483D01*
X142990573Y-89226393D01*
X143000500Y-89158260D01*
X143000500Y-87841740D01*
X142990573Y-87773607D01*
X142939198Y-87668517D01*
X142856483Y-87585802D01*
X142856482Y-87585801D01*
X142751394Y-87534427D01*
X142683264Y-87524500D01*
X142683260Y-87524500D01*
X142316740Y-87524500D01*
X142316735Y-87524500D01*
X142248606Y-87534427D01*
X142248605Y-87534427D01*
X142143517Y-87585801D01*
X142060799Y-87668519D01*
X142060223Y-87669327D01*
X142059608Y-87669710D01*
X142056466Y-87672853D01*
X142055738Y-87672125D01*
X142012177Y-87699316D01*
X141956998Y-87686548D01*
X141939777Y-87669327D01*
X141939200Y-87668519D01*
X141856482Y-87585801D01*
X141751394Y-87534427D01*
X141683264Y-87524500D01*
X141683260Y-87524500D01*
X141316740Y-87524500D01*
X141316735Y-87524500D01*
X141248606Y-87534427D01*
X141248605Y-87534427D01*
X141143517Y-87585801D01*
X141060799Y-87668519D01*
X141060223Y-87669327D01*
X141059608Y-87669710D01*
X141056466Y-87672853D01*
X141055738Y-87672125D01*
X141012177Y-87699316D01*
X140956998Y-87686548D01*
X140939777Y-87669327D01*
X140939200Y-87668519D01*
X140856482Y-87585801D01*
X140751394Y-87534427D01*
X140683264Y-87524500D01*
X140683260Y-87524500D01*
X140316740Y-87524500D01*
X140316734Y-87524500D01*
X140256410Y-87533290D01*
X140201506Y-87519386D01*
X140182045Y-87497731D01*
X140167681Y-87473442D01*
X140051556Y-87357317D01*
X139910199Y-87273718D01*
X139752493Y-87227900D01*
X139750000Y-87227703D01*
X139750000Y-89772295D01*
X139250000Y-89772295D01*
X139250000Y-88750000D01*
X138700000Y-88750000D01*
X138700000Y-89190641D01*
X135326996Y-89190641D01*
X135502545Y-89102476D01*
X135502553Y-89102472D01*
X135794504Y-88910453D01*
X135937179Y-88790733D01*
X134690125Y-87543679D01*
X134814320Y-87453446D01*
X134953446Y-87314320D01*
X135043679Y-87190125D01*
X136293850Y-88440296D01*
X136302032Y-88431626D01*
X136510708Y-88151325D01*
X136510709Y-88151323D01*
X136685435Y-87848688D01*
X136685442Y-87848675D01*
X136702402Y-87809358D01*
X138700000Y-87809358D01*
X138700000Y-88250000D01*
X139250000Y-88250000D01*
X139250000Y-87227703D01*
X139249999Y-87227703D01*
X139247506Y-87227900D01*
X139089800Y-87273718D01*
X138948443Y-87357317D01*
X138832317Y-87473443D01*
X138748718Y-87614800D01*
X138702900Y-87772506D01*
X138700000Y-87809358D01*
X136702402Y-87809358D01*
X136823855Y-87527798D01*
X136924081Y-87193024D01*
X136984765Y-86848867D01*
X137005083Y-86500000D01*
X136984765Y-86151132D01*
X136924081Y-85806975D01*
X136823855Y-85472201D01*
X136760348Y-85324976D01*
X137100001Y-85324976D01*
X137110494Y-85427696D01*
X137165642Y-85594121D01*
X137257683Y-85743343D01*
X137257686Y-85743347D01*
X137381653Y-85867314D01*
X137381656Y-85867316D01*
X137530878Y-85959357D01*
X137697302Y-86014505D01*
X137800025Y-86024999D01*
X137950000Y-86024999D01*
X138450000Y-86024999D01*
X138599971Y-86024999D01*
X138599976Y-86024998D01*
X138702696Y-86014505D01*
X138869121Y-85959357D01*
X139018343Y-85867316D01*
X139018347Y-85867314D01*
X139142314Y-85743347D01*
X139142316Y-85743343D01*
X139234357Y-85594121D01*
X139289505Y-85427697D01*
X139299999Y-85324976D01*
X142700001Y-85324976D01*
X142710494Y-85427696D01*
X142765642Y-85594121D01*
X142857683Y-85743343D01*
X142857686Y-85743347D01*
X142981653Y-85867314D01*
X142981656Y-85867316D01*
X143130878Y-85959357D01*
X143297302Y-86014505D01*
X143400025Y-86024999D01*
X143550000Y-86024999D01*
X144050000Y-86024999D01*
X144199971Y-86024999D01*
X144199976Y-86024998D01*
X144302696Y-86014505D01*
X144469121Y-85959357D01*
X144618343Y-85867316D01*
X144618347Y-85867314D01*
X144742314Y-85743347D01*
X144742316Y-85743343D01*
X144834357Y-85594121D01*
X144889505Y-85427697D01*
X144899999Y-85324975D01*
X144900000Y-85324973D01*
X144900000Y-84875000D01*
X144050000Y-84875000D01*
X144050000Y-86024999D01*
X143550000Y-86024999D01*
X143550000Y-84875000D01*
X142700001Y-84875000D01*
X142700001Y-85324976D01*
X139299999Y-85324976D01*
X139299999Y-85324975D01*
X139300000Y-85324973D01*
X139300000Y-84875000D01*
X138450000Y-84875000D01*
X138450000Y-86024999D01*
X137950000Y-86024999D01*
X137950000Y-84875000D01*
X137100001Y-84875000D01*
X137100001Y-85324976D01*
X136760348Y-85324976D01*
X136685442Y-85151324D01*
X136685435Y-85151311D01*
X136510709Y-84848676D01*
X136510708Y-84848675D01*
X136348099Y-84630253D01*
X146524500Y-84630253D01*
X146524500Y-86369746D01*
X146536133Y-86428232D01*
X146557520Y-86460238D01*
X146580448Y-86494552D01*
X146624560Y-86524027D01*
X146646767Y-86538866D01*
X146646768Y-86538866D01*
X146646769Y-86538867D01*
X146705252Y-86550500D01*
X147200500Y-86550500D01*
X147252826Y-86572174D01*
X147274500Y-86624500D01*
X147274500Y-90514564D01*
X147294977Y-90590985D01*
X147294978Y-90590986D01*
X147294979Y-90590989D01*
X147309413Y-90615989D01*
X147334540Y-90659511D01*
X150359540Y-93684511D01*
X150415489Y-93740460D01*
X150484011Y-93780021D01*
X150484012Y-93780021D01*
X150484014Y-93780022D01*
X150522224Y-93790260D01*
X150560435Y-93800499D01*
X150560436Y-93800500D01*
X150560438Y-93800500D01*
X150639562Y-93800500D01*
X151225500Y-93800500D01*
X151277826Y-93822174D01*
X151299500Y-93874500D01*
X151299500Y-94068991D01*
X151326418Y-94204322D01*
X151326421Y-94204332D01*
X151379223Y-94331808D01*
X151379224Y-94331810D01*
X151379225Y-94331811D01*
X151455886Y-94446542D01*
X151553458Y-94544114D01*
X151553461Y-94544116D01*
X151666612Y-94619721D01*
X151698078Y-94666813D01*
X151699500Y-94681250D01*
X151699500Y-94907766D01*
X151677826Y-94960092D01*
X151672715Y-94964211D01*
X151672872Y-94964392D01*
X151668868Y-94967860D01*
X151574623Y-95076626D01*
X151514834Y-95207545D01*
X151494353Y-95350000D01*
X151514834Y-95492454D01*
X151514834Y-95492455D01*
X151514835Y-95492457D01*
X151552543Y-95575025D01*
X151574623Y-95623373D01*
X151668868Y-95732139D01*
X151668869Y-95732140D01*
X151668872Y-95732143D01*
X151711503Y-95759540D01*
X151785644Y-95807188D01*
X151789947Y-95809953D01*
X151896403Y-95841211D01*
X151928035Y-95850499D01*
X151928037Y-95850500D01*
X151928039Y-95850500D01*
X152071963Y-95850500D01*
X152071964Y-95850499D01*
X152210053Y-95809953D01*
X152331128Y-95732143D01*
X152425377Y-95623373D01*
X152485165Y-95492457D01*
X152505647Y-95350000D01*
X152485165Y-95207543D01*
X152425377Y-95076627D01*
X152331128Y-94967857D01*
X152331126Y-94967855D01*
X152327128Y-94964392D01*
X152329041Y-94962183D01*
X152302183Y-94923459D01*
X152300500Y-94907766D01*
X152300500Y-94681250D01*
X152322174Y-94628924D01*
X152333388Y-94619721D01*
X152446542Y-94544114D01*
X152544114Y-94446542D01*
X152620775Y-94331811D01*
X152673580Y-94204328D01*
X152700500Y-94068993D01*
X152700500Y-92931007D01*
X152673580Y-92795672D01*
X152620775Y-92668189D01*
X152544114Y-92553458D01*
X152446542Y-92455886D01*
X152445400Y-92455123D01*
X152331808Y-92379223D01*
X152204332Y-92326421D01*
X152204322Y-92326418D01*
X152113694Y-92308391D01*
X152068993Y-92299500D01*
X151931007Y-92299500D01*
X151892642Y-92307131D01*
X151795677Y-92326418D01*
X151795667Y-92326421D01*
X151668191Y-92379223D01*
X151553461Y-92455883D01*
X151455883Y-92553461D01*
X151379223Y-92668191D01*
X151326421Y-92795667D01*
X151326418Y-92795677D01*
X151299500Y-92931008D01*
X151299500Y-93125500D01*
X151277826Y-93177826D01*
X151225500Y-93199500D01*
X150755123Y-93199500D01*
X150702797Y-93177826D01*
X148323283Y-90798312D01*
X149275001Y-90798312D01*
X149285144Y-90897608D01*
X149338452Y-91058482D01*
X149427426Y-91202731D01*
X149547268Y-91322573D01*
X149691517Y-91411547D01*
X149852391Y-91464855D01*
X149951689Y-91474999D01*
X149975000Y-91474999D01*
X150475000Y-91474999D01*
X150498307Y-91474999D01*
X150498312Y-91474998D01*
X150597608Y-91464855D01*
X150758482Y-91411547D01*
X150902731Y-91322573D01*
X151022573Y-91202731D01*
X151111546Y-91058483D01*
X151113054Y-91055251D01*
X151154810Y-91016986D01*
X151211393Y-91019454D01*
X151232448Y-91034196D01*
X151296780Y-91098528D01*
X151373845Y-91137794D01*
X151416869Y-91159717D01*
X151416871Y-91159717D01*
X151416874Y-91159719D01*
X151416876Y-91159719D01*
X151422410Y-91161517D01*
X151421382Y-91164680D01*
X151460325Y-91188493D01*
X151474500Y-91232047D01*
X151474500Y-91414564D01*
X151494977Y-91490985D01*
X151496836Y-91495472D01*
X151495446Y-91496047D01*
X151503381Y-91537204D01*
X151494353Y-91599999D01*
X151514834Y-91742454D01*
X151514834Y-91742455D01*
X151514835Y-91742457D01*
X151533814Y-91784014D01*
X151574623Y-91873373D01*
X151668868Y-91982139D01*
X151668869Y-91982140D01*
X151668872Y-91982143D01*
X151761474Y-92041654D01*
X151784894Y-92056706D01*
X151789947Y-92059953D01*
X151886673Y-92088354D01*
X151928035Y-92100499D01*
X151928037Y-92100500D01*
X151928039Y-92100500D01*
X152071963Y-92100500D01*
X152071964Y-92100499D01*
X152210053Y-92059953D01*
X152331128Y-91982143D01*
X152425377Y-91873373D01*
X152485165Y-91742457D01*
X152505647Y-91600000D01*
X152485165Y-91457543D01*
X152425377Y-91326627D01*
X152331128Y-91217857D01*
X152288306Y-91190337D01*
X152256005Y-91143815D01*
X152266061Y-91088078D01*
X152275983Y-91075764D01*
X152348528Y-91003220D01*
X152409719Y-90883126D01*
X152425500Y-90783488D01*
X152425500Y-90216512D01*
X152409719Y-90116874D01*
X152348528Y-89996780D01*
X152253220Y-89901472D01*
X152253219Y-89901471D01*
X152133126Y-89840281D01*
X152127584Y-89838480D01*
X152128602Y-89835346D01*
X152089593Y-89811392D01*
X152075500Y-89767951D01*
X152075500Y-89732047D01*
X152097174Y-89679721D01*
X152128349Y-89663855D01*
X152127590Y-89661517D01*
X152133121Y-89659719D01*
X152133126Y-89659719D01*
X152253220Y-89598528D01*
X152348528Y-89503220D01*
X152409719Y-89383126D01*
X152425500Y-89283488D01*
X152425500Y-88716512D01*
X152409719Y-88616874D01*
X152348528Y-88496780D01*
X152253220Y-88401472D01*
X152253219Y-88401471D01*
X152133126Y-88340281D01*
X152133125Y-88340280D01*
X152033489Y-88324500D01*
X152033488Y-88324500D01*
X151516512Y-88324500D01*
X151516511Y-88324500D01*
X151416874Y-88340280D01*
X151416873Y-88340281D01*
X151296780Y-88401471D01*
X151232448Y-88465803D01*
X151180121Y-88487477D01*
X151127796Y-88465803D01*
X151113056Y-88444751D01*
X151111550Y-88441522D01*
X151022573Y-88297268D01*
X150902731Y-88177426D01*
X150758482Y-88088452D01*
X150597608Y-88035144D01*
X150498311Y-88025000D01*
X150475000Y-88025000D01*
X150475000Y-91474999D01*
X149975000Y-91474999D01*
X149975000Y-90750000D01*
X149275001Y-90750000D01*
X149275001Y-90798312D01*
X148323283Y-90798312D01*
X147897174Y-90372203D01*
X147875500Y-90319877D01*
X147875500Y-90201688D01*
X149275000Y-90201688D01*
X149275000Y-90250000D01*
X149975000Y-90250000D01*
X149975000Y-89250000D01*
X149275001Y-89250000D01*
X149275001Y-89298312D01*
X149285144Y-89397608D01*
X149338452Y-89558482D01*
X149427430Y-89702737D01*
X149428513Y-89704107D01*
X149428715Y-89704820D01*
X149429690Y-89706401D01*
X149429241Y-89706677D01*
X149443962Y-89758597D01*
X149429509Y-89793487D01*
X149429690Y-89793599D01*
X149428999Y-89794718D01*
X149428513Y-89795893D01*
X149427430Y-89797262D01*
X149338452Y-89941517D01*
X149285144Y-90102391D01*
X149275000Y-90201688D01*
X147875500Y-90201688D01*
X147875500Y-88701688D01*
X149275000Y-88701688D01*
X149275000Y-88750000D01*
X149975000Y-88750000D01*
X149975000Y-88025000D01*
X149951693Y-88025000D01*
X149951686Y-88025001D01*
X149852391Y-88035144D01*
X149691517Y-88088452D01*
X149547268Y-88177426D01*
X149427426Y-88297268D01*
X149338452Y-88441517D01*
X149285144Y-88602391D01*
X149275000Y-88701688D01*
X147875500Y-88701688D01*
X147875500Y-86624500D01*
X147897174Y-86572174D01*
X147949500Y-86550500D01*
X148444746Y-86550500D01*
X148444748Y-86550500D01*
X148503231Y-86538867D01*
X148569552Y-86494552D01*
X148613867Y-86428231D01*
X148625500Y-86369748D01*
X148625500Y-85500000D01*
X149059417Y-85500000D01*
X149079700Y-85705935D01*
X149089734Y-85739013D01*
X149139768Y-85903954D01*
X149237315Y-86086450D01*
X149368590Y-86246410D01*
X149528550Y-86377685D01*
X149711046Y-86475232D01*
X149761982Y-86490683D01*
X149805762Y-86526612D01*
X149814500Y-86561496D01*
X149814500Y-86854564D01*
X149834977Y-86930985D01*
X149834979Y-86930990D01*
X149839899Y-86939511D01*
X149862705Y-86979012D01*
X149874540Y-86999511D01*
X150559540Y-87684511D01*
X150615489Y-87740460D01*
X150665649Y-87769420D01*
X150683127Y-87779511D01*
X150684011Y-87780021D01*
X150684012Y-87780021D01*
X150684014Y-87780022D01*
X150722224Y-87790260D01*
X150760435Y-87800499D01*
X150760436Y-87800500D01*
X150760438Y-87800500D01*
X152744877Y-87800500D01*
X152797203Y-87822174D01*
X153677826Y-88702797D01*
X153699500Y-88755123D01*
X153699500Y-92318749D01*
X153677826Y-92371075D01*
X153666613Y-92380278D01*
X153553458Y-92455886D01*
X153455883Y-92553461D01*
X153379223Y-92668191D01*
X153326421Y-92795667D01*
X153326418Y-92795677D01*
X153299500Y-92931008D01*
X153299500Y-94068991D01*
X153326418Y-94204322D01*
X153326421Y-94204332D01*
X153379223Y-94331808D01*
X153379224Y-94331810D01*
X153379225Y-94331811D01*
X153455886Y-94446542D01*
X153553458Y-94544114D01*
X153668189Y-94620775D01*
X153668190Y-94620775D01*
X153668191Y-94620776D01*
X153699499Y-94633744D01*
X153795672Y-94673580D01*
X153931007Y-94700500D01*
X153931009Y-94700500D01*
X154068991Y-94700500D01*
X154068993Y-94700500D01*
X154204328Y-94673580D01*
X154331811Y-94620775D01*
X154446542Y-94544114D01*
X154544114Y-94446542D01*
X154620775Y-94331811D01*
X154673580Y-94204328D01*
X154700500Y-94068993D01*
X154700500Y-92931007D01*
X154673580Y-92795672D01*
X154620775Y-92668189D01*
X154544114Y-92553458D01*
X154446542Y-92455886D01*
X154333387Y-92380278D01*
X154301922Y-92333185D01*
X154300500Y-92318749D01*
X154300500Y-88560436D01*
X154300499Y-88560435D01*
X154280022Y-88484014D01*
X154280020Y-88484009D01*
X154249777Y-88431627D01*
X154240460Y-88415489D01*
X154184511Y-88359540D01*
X153151797Y-87326826D01*
X153130123Y-87274500D01*
X153151797Y-87222174D01*
X153204123Y-87200500D01*
X153444877Y-87200500D01*
X153497203Y-87222174D01*
X154477826Y-88202797D01*
X154499500Y-88255123D01*
X154499500Y-91639564D01*
X154519977Y-91715985D01*
X154519978Y-91715986D01*
X154519979Y-91715989D01*
X154545641Y-91760436D01*
X154545641Y-91760438D01*
X154555967Y-91778323D01*
X154559540Y-91784511D01*
X155159540Y-92384511D01*
X155215489Y-92440460D01*
X155284011Y-92480021D01*
X155284012Y-92480021D01*
X155284014Y-92480022D01*
X155360432Y-92500499D01*
X155360436Y-92500499D01*
X155360438Y-92500500D01*
X155360440Y-92500500D01*
X155362698Y-92500797D01*
X155363698Y-92501374D01*
X155365123Y-92501756D01*
X155365020Y-92502137D01*
X155411751Y-92529108D01*
X155426418Y-92583813D01*
X155414579Y-92615277D01*
X155379223Y-92668191D01*
X155326421Y-92795667D01*
X155326418Y-92795677D01*
X155299500Y-92931008D01*
X155299500Y-94068991D01*
X155326418Y-94204322D01*
X155326421Y-94204332D01*
X155379223Y-94331808D01*
X155379224Y-94331810D01*
X155379225Y-94331811D01*
X155455886Y-94446542D01*
X155553458Y-94544114D01*
X155553461Y-94544116D01*
X155666612Y-94619721D01*
X155698078Y-94666813D01*
X155699500Y-94681250D01*
X155699500Y-94907766D01*
X155677826Y-94960092D01*
X155672715Y-94964211D01*
X155672872Y-94964392D01*
X155668868Y-94967860D01*
X155574623Y-95076626D01*
X155514834Y-95207545D01*
X155494353Y-95350000D01*
X155514834Y-95492454D01*
X155514834Y-95492455D01*
X155514835Y-95492457D01*
X155552543Y-95575025D01*
X155574623Y-95623373D01*
X155668868Y-95732139D01*
X155668869Y-95732140D01*
X155668872Y-95732143D01*
X155711503Y-95759540D01*
X155785644Y-95807188D01*
X155789947Y-95809953D01*
X155896403Y-95841211D01*
X155928035Y-95850499D01*
X155928037Y-95850500D01*
X155928039Y-95850500D01*
X156071963Y-95850500D01*
X156071964Y-95850499D01*
X156210053Y-95809953D01*
X156331128Y-95732143D01*
X156425377Y-95623373D01*
X156485165Y-95492457D01*
X156505647Y-95350000D01*
X156485165Y-95207543D01*
X156425377Y-95076627D01*
X156331128Y-94967857D01*
X156331126Y-94967855D01*
X156327128Y-94964392D01*
X156329041Y-94962183D01*
X156302183Y-94923459D01*
X156300500Y-94907766D01*
X156300500Y-94681250D01*
X156322174Y-94628924D01*
X156333388Y-94619721D01*
X156446542Y-94544114D01*
X156544114Y-94446542D01*
X156620775Y-94331811D01*
X156673580Y-94204328D01*
X156700500Y-94068993D01*
X156700500Y-92931007D01*
X156673580Y-92795672D01*
X156620775Y-92668189D01*
X156544114Y-92553458D01*
X156446542Y-92455886D01*
X156445400Y-92455123D01*
X156331811Y-92379225D01*
X156329431Y-92377953D01*
X156328853Y-92377248D01*
X156328789Y-92377206D01*
X156328802Y-92377186D01*
X156293503Y-92334170D01*
X156292838Y-92331843D01*
X156288590Y-92315988D01*
X156288590Y-92315987D01*
X156280023Y-92284016D01*
X156280022Y-92284012D01*
X156240460Y-92215489D01*
X156198809Y-92173838D01*
X156177136Y-92121514D01*
X156198810Y-92069188D01*
X156211125Y-92059263D01*
X156331128Y-91982143D01*
X156425377Y-91873373D01*
X156485165Y-91742457D01*
X156505647Y-91600000D01*
X156485165Y-91457543D01*
X156425377Y-91326627D01*
X156366373Y-91258532D01*
X156348488Y-91204793D01*
X156373840Y-91154147D01*
X156388703Y-91144139D01*
X156396734Y-91140047D01*
X156478220Y-91098528D01*
X156542552Y-91034195D01*
X156594876Y-91012522D01*
X156647203Y-91034196D01*
X156661942Y-91055243D01*
X156663454Y-91058484D01*
X156752426Y-91202731D01*
X156872268Y-91322573D01*
X157016517Y-91411547D01*
X157177391Y-91464855D01*
X157276689Y-91474999D01*
X157300000Y-91474999D01*
X157800000Y-91474999D01*
X157823307Y-91474999D01*
X157823312Y-91474998D01*
X157922608Y-91464855D01*
X158083482Y-91411547D01*
X158227731Y-91322573D01*
X158347573Y-91202731D01*
X158436547Y-91058482D01*
X158489855Y-90897608D01*
X158499999Y-90798311D01*
X158500000Y-90798309D01*
X158500000Y-90750000D01*
X157800000Y-90750000D01*
X157800000Y-91474999D01*
X157300000Y-91474999D01*
X157300000Y-90250000D01*
X157800000Y-90250000D01*
X158499999Y-90250000D01*
X158499999Y-90201693D01*
X158499998Y-90201687D01*
X158489855Y-90102391D01*
X158436547Y-89941517D01*
X158347570Y-89797263D01*
X158346492Y-89795900D01*
X158346289Y-89795187D01*
X158345310Y-89793599D01*
X158345760Y-89793321D01*
X158331036Y-89741413D01*
X158345492Y-89706513D01*
X158345310Y-89706401D01*
X158346006Y-89705271D01*
X158346492Y-89704100D01*
X158347570Y-89702736D01*
X158436547Y-89558482D01*
X158489855Y-89397608D01*
X158499999Y-89298311D01*
X158500000Y-89298309D01*
X158500000Y-89250000D01*
X157800000Y-89250000D01*
X157800000Y-90250000D01*
X157300000Y-90250000D01*
X157300000Y-88824000D01*
X157321674Y-88771674D01*
X157374000Y-88750000D01*
X158499999Y-88750000D01*
X158499999Y-88701693D01*
X158499998Y-88701687D01*
X158489855Y-88602391D01*
X158436547Y-88441517D01*
X158347573Y-88297268D01*
X158227731Y-88177426D01*
X158162973Y-88137483D01*
X158129816Y-88091566D01*
X158138838Y-88035652D01*
X158184755Y-88002495D01*
X158201821Y-88000500D01*
X158444877Y-88000500D01*
X158497203Y-88022174D01*
X158777826Y-88302797D01*
X158799500Y-88355123D01*
X158799500Y-90944877D01*
X158777826Y-90997203D01*
X157759540Y-92015488D01*
X157719979Y-92084009D01*
X157719977Y-92084014D01*
X157699500Y-92160435D01*
X157699500Y-92318749D01*
X157677826Y-92371075D01*
X157666613Y-92380278D01*
X157553458Y-92455886D01*
X157455883Y-92553461D01*
X157379223Y-92668191D01*
X157326421Y-92795667D01*
X157326418Y-92795677D01*
X157299500Y-92931008D01*
X157299500Y-94068991D01*
X157326418Y-94204322D01*
X157326421Y-94204332D01*
X157379223Y-94331808D01*
X157379224Y-94331810D01*
X157379225Y-94331811D01*
X157455886Y-94446542D01*
X157553458Y-94544114D01*
X157668189Y-94620775D01*
X157668190Y-94620775D01*
X157668191Y-94620776D01*
X157699499Y-94633744D01*
X157795672Y-94673580D01*
X157931007Y-94700500D01*
X157931009Y-94700500D01*
X158068991Y-94700500D01*
X158068993Y-94700500D01*
X158204328Y-94673580D01*
X158331811Y-94620775D01*
X158446542Y-94544114D01*
X158544114Y-94446542D01*
X158620775Y-94331811D01*
X158673580Y-94204328D01*
X158700500Y-94068993D01*
X158700500Y-92931008D01*
X159299500Y-92931008D01*
X159299500Y-94068991D01*
X159326418Y-94204322D01*
X159326421Y-94204332D01*
X159379223Y-94331808D01*
X159379224Y-94331810D01*
X159379225Y-94331811D01*
X159455886Y-94446542D01*
X159553458Y-94544114D01*
X159668189Y-94620775D01*
X159668190Y-94620775D01*
X159668191Y-94620776D01*
X159699499Y-94633744D01*
X159795672Y-94673580D01*
X159931007Y-94700500D01*
X159931009Y-94700500D01*
X160068991Y-94700500D01*
X160068993Y-94700500D01*
X160204328Y-94673580D01*
X160331811Y-94620775D01*
X160446542Y-94544114D01*
X160544114Y-94446542D01*
X160620775Y-94331811D01*
X160673580Y-94204328D01*
X160700500Y-94068993D01*
X160700500Y-92931007D01*
X160673580Y-92795672D01*
X160620775Y-92668189D01*
X160544114Y-92553458D01*
X160446542Y-92455886D01*
X160333387Y-92380278D01*
X160301922Y-92333185D01*
X160300500Y-92318749D01*
X160300500Y-89455123D01*
X160322174Y-89402797D01*
X160423174Y-89301797D01*
X160475500Y-89280123D01*
X160527826Y-89301797D01*
X160549500Y-89354123D01*
X160549500Y-89519748D01*
X160552374Y-89534196D01*
X160561133Y-89578232D01*
X160574694Y-89598526D01*
X160605448Y-89644552D01*
X160605451Y-89644554D01*
X160608571Y-89647674D01*
X160630245Y-89700000D01*
X160608571Y-89752326D01*
X160605447Y-89755449D01*
X160561133Y-89821767D01*
X160549500Y-89880253D01*
X160549500Y-91019746D01*
X160561133Y-91078232D01*
X160572737Y-91095598D01*
X160605448Y-91144552D01*
X160649560Y-91174027D01*
X160671767Y-91188866D01*
X160671768Y-91188866D01*
X160671769Y-91188867D01*
X160730252Y-91200500D01*
X161125500Y-91200500D01*
X161177826Y-91222174D01*
X161199500Y-91274500D01*
X161199500Y-91339564D01*
X161219978Y-91415988D01*
X161243969Y-91457543D01*
X161243970Y-91457543D01*
X161259540Y-91484511D01*
X161677826Y-91902797D01*
X161699500Y-91955123D01*
X161699500Y-92318749D01*
X161677826Y-92371075D01*
X161666613Y-92380278D01*
X161553458Y-92455886D01*
X161455883Y-92553461D01*
X161379223Y-92668191D01*
X161326421Y-92795667D01*
X161326418Y-92795677D01*
X161299500Y-92931008D01*
X161299500Y-94068991D01*
X161326418Y-94204322D01*
X161326421Y-94204332D01*
X161379223Y-94331808D01*
X161379224Y-94331810D01*
X161379225Y-94331811D01*
X161455886Y-94446542D01*
X161553458Y-94544114D01*
X161668189Y-94620775D01*
X161668190Y-94620775D01*
X161668191Y-94620776D01*
X161699499Y-94633744D01*
X161795672Y-94673580D01*
X161931007Y-94700500D01*
X161931009Y-94700500D01*
X162068991Y-94700500D01*
X162068993Y-94700500D01*
X162204328Y-94673580D01*
X162331811Y-94620775D01*
X162446542Y-94544114D01*
X162544114Y-94446542D01*
X162620775Y-94331811D01*
X162673580Y-94204328D01*
X162700500Y-94068993D01*
X162700500Y-92931008D01*
X163299500Y-92931008D01*
X163299500Y-94068991D01*
X163326418Y-94204322D01*
X163326421Y-94204332D01*
X163379223Y-94331808D01*
X163379224Y-94331810D01*
X163379225Y-94331811D01*
X163455886Y-94446542D01*
X163553458Y-94544114D01*
X163668189Y-94620775D01*
X163668190Y-94620775D01*
X163668191Y-94620776D01*
X163699499Y-94633744D01*
X163795672Y-94673580D01*
X163931007Y-94700500D01*
X163931009Y-94700500D01*
X164068991Y-94700500D01*
X164068993Y-94700500D01*
X164204328Y-94673580D01*
X164301887Y-94633170D01*
X165220381Y-94633170D01*
X165223248Y-94637462D01*
X165223250Y-94637464D01*
X165362539Y-94776752D01*
X165362540Y-94776753D01*
X165526324Y-94886190D01*
X165708306Y-94961569D01*
X165708317Y-94961572D01*
X165901510Y-95000000D01*
X166098490Y-95000000D01*
X166291682Y-94961572D01*
X166291693Y-94961569D01*
X166473675Y-94886190D01*
X166637459Y-94776753D01*
X166637460Y-94776752D01*
X166776751Y-94637462D01*
X166779617Y-94633171D01*
X166000000Y-93853553D01*
X165220381Y-94633170D01*
X164301887Y-94633170D01*
X164331811Y-94620775D01*
X164446542Y-94544114D01*
X164544114Y-94446542D01*
X164620775Y-94331811D01*
X164673580Y-94204328D01*
X164700500Y-94068993D01*
X164700500Y-92931007D01*
X164694632Y-92901509D01*
X165000000Y-92901509D01*
X165000000Y-94098490D01*
X165007956Y-94138489D01*
X165646446Y-93499999D01*
X166353553Y-93499999D01*
X166353553Y-93500000D01*
X166992042Y-94138489D01*
X167000000Y-94098489D01*
X167000000Y-92901510D01*
X166992042Y-92861509D01*
X166353553Y-93499999D01*
X165646446Y-93499999D01*
X165007956Y-92861509D01*
X165007955Y-92861509D01*
X165000000Y-92901509D01*
X164694632Y-92901509D01*
X164673580Y-92795672D01*
X164620775Y-92668189D01*
X164544114Y-92553458D01*
X164446542Y-92455886D01*
X164333387Y-92380278D01*
X164324400Y-92366827D01*
X165220381Y-92366827D01*
X165999999Y-93146446D01*
X166779617Y-92366828D01*
X166779617Y-92366827D01*
X166776752Y-92362539D01*
X166776751Y-92362537D01*
X166637460Y-92223247D01*
X166637459Y-92223246D01*
X166473675Y-92113809D01*
X166291693Y-92038430D01*
X166291682Y-92038427D01*
X166098490Y-92000000D01*
X165901510Y-92000000D01*
X165708317Y-92038427D01*
X165708306Y-92038430D01*
X165526324Y-92113809D01*
X165362540Y-92223246D01*
X165362539Y-92223247D01*
X165223250Y-92362535D01*
X165220381Y-92366827D01*
X164324400Y-92366827D01*
X164301922Y-92333185D01*
X164300500Y-92318749D01*
X164300500Y-92055122D01*
X164322173Y-92002797D01*
X164740460Y-91584511D01*
X164780022Y-91515988D01*
X164800500Y-91439562D01*
X164800500Y-91360438D01*
X164800500Y-91274500D01*
X164822174Y-91222174D01*
X164874500Y-91200500D01*
X165269746Y-91200500D01*
X165269748Y-91200500D01*
X165328231Y-91188867D01*
X165394552Y-91144552D01*
X165438867Y-91078231D01*
X165450500Y-91019748D01*
X165450500Y-89880252D01*
X165438867Y-89821769D01*
X165394552Y-89755448D01*
X165394548Y-89755445D01*
X165391429Y-89752326D01*
X165369755Y-89700000D01*
X165391429Y-89647674D01*
X165394545Y-89644556D01*
X165394552Y-89644552D01*
X165438867Y-89578231D01*
X165450500Y-89519748D01*
X165450500Y-89519743D01*
X165450747Y-89517243D01*
X165451146Y-89516495D01*
X165451209Y-89516182D01*
X165451304Y-89516200D01*
X165477448Y-89467295D01*
X165524390Y-89450500D01*
X165671963Y-89450500D01*
X165671964Y-89450499D01*
X165810053Y-89409953D01*
X165931128Y-89332143D01*
X166025377Y-89223373D01*
X166085165Y-89092457D01*
X166105647Y-88950000D01*
X166085165Y-88807543D01*
X166025377Y-88676627D01*
X165931128Y-88567857D01*
X165874182Y-88531260D01*
X165810054Y-88490047D01*
X165810050Y-88490046D01*
X165671964Y-88449500D01*
X165671961Y-88449500D01*
X165528039Y-88449500D01*
X165524390Y-88449500D01*
X165472064Y-88427826D01*
X165451245Y-88383810D01*
X165451209Y-88383818D01*
X165451180Y-88383672D01*
X165450747Y-88382757D01*
X165450500Y-88380256D01*
X165450500Y-88380252D01*
X165438867Y-88321769D01*
X165434810Y-88315698D01*
X165422496Y-88297268D01*
X165394552Y-88255448D01*
X165372343Y-88240608D01*
X165328232Y-88211133D01*
X165328233Y-88211133D01*
X165298989Y-88205316D01*
X165269748Y-88199500D01*
X163730252Y-88199500D01*
X163701010Y-88205316D01*
X163671767Y-88211133D01*
X163605449Y-88255447D01*
X163605447Y-88255449D01*
X163561133Y-88321767D01*
X163557451Y-88340280D01*
X163549500Y-88380252D01*
X163549500Y-89519748D01*
X163552374Y-89534196D01*
X163561133Y-89578232D01*
X163574694Y-89598526D01*
X163605448Y-89644552D01*
X163605451Y-89644554D01*
X163608571Y-89647674D01*
X163630245Y-89700000D01*
X163608571Y-89752326D01*
X163605447Y-89755449D01*
X163561133Y-89821767D01*
X163549500Y-89880253D01*
X163549500Y-91019746D01*
X163561133Y-91078232D01*
X163572737Y-91095598D01*
X163605448Y-91144552D01*
X163649560Y-91174027D01*
X163671767Y-91188866D01*
X163671768Y-91188866D01*
X163671769Y-91188867D01*
X163730252Y-91200500D01*
X164095877Y-91200500D01*
X164148203Y-91222174D01*
X164169877Y-91274500D01*
X164148203Y-91326826D01*
X163759540Y-91715488D01*
X163719979Y-91784009D01*
X163719977Y-91784014D01*
X163699500Y-91860435D01*
X163699500Y-92318749D01*
X163677826Y-92371075D01*
X163666613Y-92380278D01*
X163553458Y-92455886D01*
X163455883Y-92553461D01*
X163379223Y-92668191D01*
X163326421Y-92795667D01*
X163326418Y-92795677D01*
X163299500Y-92931008D01*
X162700500Y-92931008D01*
X162700500Y-92931007D01*
X162673580Y-92795672D01*
X162620775Y-92668189D01*
X162544114Y-92553458D01*
X162446542Y-92455886D01*
X162333387Y-92380278D01*
X162301922Y-92333185D01*
X162300500Y-92318749D01*
X162300500Y-91760437D01*
X162288590Y-91715989D01*
X162288590Y-91715988D01*
X162280023Y-91684016D01*
X162280022Y-91684012D01*
X162240460Y-91615489D01*
X161951797Y-91326826D01*
X161930123Y-91274500D01*
X161951797Y-91222174D01*
X162004123Y-91200500D01*
X162269746Y-91200500D01*
X162269748Y-91200500D01*
X162328231Y-91188867D01*
X162394552Y-91144552D01*
X162438867Y-91078231D01*
X162450500Y-91019748D01*
X162450500Y-89880252D01*
X162438867Y-89821769D01*
X162394552Y-89755448D01*
X162394548Y-89755445D01*
X162391429Y-89752326D01*
X162369755Y-89700000D01*
X162391429Y-89647674D01*
X162394545Y-89644556D01*
X162394552Y-89644552D01*
X162438867Y-89578231D01*
X162450500Y-89519748D01*
X162450500Y-88380252D01*
X162438867Y-88321769D01*
X162434810Y-88315698D01*
X162422496Y-88297268D01*
X162394552Y-88255448D01*
X162372343Y-88240608D01*
X162328232Y-88211133D01*
X162328233Y-88211133D01*
X162298989Y-88205316D01*
X162269748Y-88199500D01*
X160730252Y-88199500D01*
X160701010Y-88205316D01*
X160671767Y-88211133D01*
X160605449Y-88255447D01*
X160605447Y-88255449D01*
X160561133Y-88321767D01*
X160549500Y-88380253D01*
X160549500Y-88575500D01*
X160527826Y-88627826D01*
X160475500Y-88649500D01*
X160389562Y-88649500D01*
X160310438Y-88649500D01*
X160234012Y-88669978D01*
X160234011Y-88669978D01*
X160234009Y-88669979D01*
X160234007Y-88669980D01*
X160165492Y-88709537D01*
X159815489Y-89059540D01*
X159759540Y-89115488D01*
X159719979Y-89184009D01*
X159719977Y-89184014D01*
X159699500Y-89260435D01*
X159699500Y-92318749D01*
X159677826Y-92371075D01*
X159666613Y-92380278D01*
X159553458Y-92455886D01*
X159455883Y-92553461D01*
X159379223Y-92668191D01*
X159326421Y-92795667D01*
X159326418Y-92795677D01*
X159299500Y-92931008D01*
X158700500Y-92931008D01*
X158700500Y-92931007D01*
X158673580Y-92795672D01*
X158620775Y-92668189D01*
X158544114Y-92553458D01*
X158446542Y-92455886D01*
X158446538Y-92455883D01*
X158446536Y-92455881D01*
X158355191Y-92394846D01*
X158323726Y-92347754D01*
X158334776Y-92292205D01*
X158343973Y-92280997D01*
X159340460Y-91284511D01*
X159355182Y-91259012D01*
X159380021Y-91215989D01*
X159400499Y-91139564D01*
X159400500Y-91139564D01*
X159400500Y-88160437D01*
X159394906Y-88139562D01*
X159394905Y-88139560D01*
X159380022Y-88084012D01*
X159340460Y-88015489D01*
X158784511Y-87459540D01*
X158750454Y-87439877D01*
X158715990Y-87419979D01*
X158715985Y-87419977D01*
X158639564Y-87399500D01*
X158639562Y-87399500D01*
X155955123Y-87399500D01*
X155902797Y-87377826D01*
X155517174Y-86992203D01*
X155495500Y-86939877D01*
X155495500Y-86561496D01*
X155517174Y-86509170D01*
X155548016Y-86490683D01*
X155598954Y-86475232D01*
X155781450Y-86377685D01*
X155941410Y-86246410D01*
X156072685Y-86086450D01*
X156170232Y-85903954D01*
X156230300Y-85705934D01*
X156250583Y-85500000D01*
X156679417Y-85500000D01*
X156699700Y-85705935D01*
X156709734Y-85739013D01*
X156759768Y-85903954D01*
X156857315Y-86086450D01*
X156988590Y-86246410D01*
X157148550Y-86377685D01*
X157331046Y-86475232D01*
X157529066Y-86535300D01*
X157735000Y-86555583D01*
X157940934Y-86535300D01*
X158138954Y-86475232D01*
X158321450Y-86377685D01*
X158481410Y-86246410D01*
X158612685Y-86086450D01*
X158710232Y-85903954D01*
X158770300Y-85705934D01*
X158790583Y-85500000D01*
X159219417Y-85500000D01*
X159239700Y-85705935D01*
X159249734Y-85739013D01*
X159299768Y-85903954D01*
X159397315Y-86086450D01*
X159528590Y-86246410D01*
X159688550Y-86377685D01*
X159871046Y-86475232D01*
X160069066Y-86535300D01*
X160275000Y-86555583D01*
X160480934Y-86535300D01*
X160678954Y-86475232D01*
X160861450Y-86377685D01*
X161021410Y-86246410D01*
X161152685Y-86086450D01*
X161250232Y-85903954D01*
X161310300Y-85705934D01*
X161330583Y-85500000D01*
X161759417Y-85500000D01*
X161779700Y-85705935D01*
X161789734Y-85739013D01*
X161839768Y-85903954D01*
X161937315Y-86086450D01*
X162068590Y-86246410D01*
X162228550Y-86377685D01*
X162411046Y-86475232D01*
X162461982Y-86490683D01*
X162505762Y-86526612D01*
X162514500Y-86561496D01*
X162514500Y-86854564D01*
X162534977Y-86930985D01*
X162534979Y-86930990D01*
X162539899Y-86939511D01*
X162562705Y-86979012D01*
X162574540Y-86999511D01*
X163259540Y-87684511D01*
X163315489Y-87740460D01*
X163365649Y-87769420D01*
X163383127Y-87779511D01*
X163384011Y-87780021D01*
X163384012Y-87780021D01*
X163384014Y-87780022D01*
X163422224Y-87790260D01*
X163460435Y-87800499D01*
X163460436Y-87800500D01*
X163460438Y-87800500D01*
X165644877Y-87800500D01*
X165697203Y-87822174D01*
X170277826Y-92402797D01*
X170299500Y-92455123D01*
X170299500Y-99244877D01*
X170277826Y-99297203D01*
X169897203Y-99677826D01*
X169844877Y-99699500D01*
X169681250Y-99699500D01*
X169628924Y-99677826D01*
X169619721Y-99666612D01*
X169613055Y-99656636D01*
X169544114Y-99553458D01*
X169446542Y-99455886D01*
X169422114Y-99439564D01*
X169331808Y-99379223D01*
X169204332Y-99326421D01*
X169204322Y-99326418D01*
X169113694Y-99308391D01*
X169068993Y-99299500D01*
X167931007Y-99299500D01*
X167892642Y-99307131D01*
X167795677Y-99326418D01*
X167795667Y-99326421D01*
X167668191Y-99379223D01*
X167553461Y-99455883D01*
X167455883Y-99553461D01*
X167379223Y-99668191D01*
X167326421Y-99795667D01*
X167326418Y-99795677D01*
X167305102Y-99902846D01*
X167299500Y-99931007D01*
X167299500Y-100068993D01*
X167305865Y-100100990D01*
X167326418Y-100204322D01*
X167326421Y-100204332D01*
X167379223Y-100331808D01*
X167397399Y-100359011D01*
X167455886Y-100446542D01*
X167553458Y-100544114D01*
X167668189Y-100620775D01*
X167795672Y-100673580D01*
X167931007Y-100700500D01*
X167931009Y-100700500D01*
X169068991Y-100700500D01*
X169068993Y-100700500D01*
X169204328Y-100673580D01*
X169331811Y-100620775D01*
X169446542Y-100544114D01*
X169544114Y-100446542D01*
X169619721Y-100333387D01*
X169666813Y-100301922D01*
X169681250Y-100300500D01*
X170039564Y-100300500D01*
X170039564Y-100300499D01*
X170115989Y-100280021D01*
X170184511Y-100240460D01*
X170240460Y-100184511D01*
X170840460Y-99584511D01*
X170860682Y-99549485D01*
X170880021Y-99515989D01*
X170900499Y-99439564D01*
X170900500Y-99439564D01*
X170900500Y-92260436D01*
X170888456Y-92215492D01*
X170885974Y-92206227D01*
X170893365Y-92150076D01*
X170938298Y-92115597D01*
X170994451Y-92122988D01*
X171009778Y-92134749D01*
X171077826Y-92202797D01*
X171099500Y-92255123D01*
X171099500Y-102344877D01*
X171077826Y-102397203D01*
X169797203Y-103677826D01*
X169744877Y-103699500D01*
X169681250Y-103699500D01*
X169628924Y-103677826D01*
X169619721Y-103666612D01*
X169604692Y-103644120D01*
X169544114Y-103553458D01*
X169446542Y-103455886D01*
X169414492Y-103434471D01*
X169331808Y-103379223D01*
X169204332Y-103326421D01*
X169204322Y-103326418D01*
X169113694Y-103308391D01*
X169068993Y-103299500D01*
X167931007Y-103299500D01*
X167892642Y-103307131D01*
X167795677Y-103326418D01*
X167795667Y-103326421D01*
X167668191Y-103379223D01*
X167553461Y-103455883D01*
X167455883Y-103553461D01*
X167379223Y-103668191D01*
X167326421Y-103795667D01*
X167326418Y-103795677D01*
X167299500Y-103931008D01*
X167299500Y-104068991D01*
X167326418Y-104204322D01*
X167326421Y-104204332D01*
X167379223Y-104331808D01*
X167379224Y-104331810D01*
X167379225Y-104331811D01*
X167455886Y-104446542D01*
X167553458Y-104544114D01*
X167668189Y-104620775D01*
X167795672Y-104673580D01*
X167931007Y-104700500D01*
X167931009Y-104700500D01*
X169068991Y-104700500D01*
X169068993Y-104700500D01*
X169204328Y-104673580D01*
X169331811Y-104620775D01*
X169446542Y-104544114D01*
X169544114Y-104446542D01*
X169619721Y-104333387D01*
X169666813Y-104301922D01*
X169681250Y-104300500D01*
X169939564Y-104300500D01*
X169939564Y-104300499D01*
X170015989Y-104280021D01*
X170084511Y-104240460D01*
X170140460Y-104184511D01*
X171640460Y-102684511D01*
X171661189Y-102648607D01*
X171680021Y-102615989D01*
X171700499Y-102539564D01*
X171700500Y-102539564D01*
X171700500Y-100404123D01*
X171722174Y-100351797D01*
X171774500Y-100330123D01*
X171826826Y-100351797D01*
X172134540Y-100659511D01*
X172190489Y-100715460D01*
X172259011Y-100755021D01*
X172259012Y-100755021D01*
X172259014Y-100755022D01*
X172297224Y-100765260D01*
X172335435Y-100775499D01*
X172335436Y-100775500D01*
X172335438Y-100775500D01*
X172337881Y-100775500D01*
X172339019Y-100775971D01*
X172340245Y-100776133D01*
X172340201Y-100776461D01*
X172390207Y-100797174D01*
X172407728Y-100825059D01*
X172447206Y-100937881D01*
X172447207Y-100937883D01*
X172527846Y-101047146D01*
X172527853Y-101047153D01*
X172637116Y-101127792D01*
X172637118Y-101127793D01*
X172765295Y-101172644D01*
X172765301Y-101172646D01*
X172795734Y-101175500D01*
X173975500Y-101175500D01*
X174027826Y-101197174D01*
X174049500Y-101249500D01*
X174049500Y-103794877D01*
X174027826Y-103847203D01*
X173597203Y-104277826D01*
X173544877Y-104299500D01*
X172260436Y-104299500D01*
X172184014Y-104319977D01*
X172184009Y-104319979D01*
X172148341Y-104340573D01*
X172115488Y-104359540D01*
X171259540Y-105215488D01*
X171219979Y-105284009D01*
X171219977Y-105284014D01*
X171199500Y-105360435D01*
X171199500Y-105625500D01*
X171177826Y-105677826D01*
X171125500Y-105699500D01*
X169681250Y-105699500D01*
X169628924Y-105677826D01*
X169619721Y-105666612D01*
X169608955Y-105650500D01*
X169544114Y-105553458D01*
X169446542Y-105455886D01*
X169331811Y-105379225D01*
X169331810Y-105379224D01*
X169331808Y-105379223D01*
X169204332Y-105326421D01*
X169204322Y-105326418D01*
X169113694Y-105308391D01*
X169068993Y-105299500D01*
X167931007Y-105299500D01*
X167892642Y-105307131D01*
X167795677Y-105326418D01*
X167795667Y-105326421D01*
X167668191Y-105379223D01*
X167553461Y-105455883D01*
X167455883Y-105553461D01*
X167379223Y-105668191D01*
X167326421Y-105795667D01*
X167326418Y-105795677D01*
X167299500Y-105931008D01*
X167299500Y-106068991D01*
X167326418Y-106204322D01*
X167326421Y-106204332D01*
X167379223Y-106331808D01*
X167453683Y-106443246D01*
X167455886Y-106446542D01*
X167553458Y-106544114D01*
X167668189Y-106620775D01*
X167795672Y-106673580D01*
X167931007Y-106700500D01*
X167931009Y-106700500D01*
X169068991Y-106700500D01*
X169068993Y-106700500D01*
X169204328Y-106673580D01*
X169331811Y-106620775D01*
X169446542Y-106544114D01*
X169544114Y-106446542D01*
X169619721Y-106333387D01*
X169666813Y-106301922D01*
X169681250Y-106300500D01*
X171460438Y-106300500D01*
X172544877Y-106300500D01*
X172597203Y-106322174D01*
X172725188Y-106450159D01*
X172746862Y-106502485D01*
X172740000Y-106519053D01*
X172740000Y-107290000D01*
X173740000Y-107290000D01*
X173740000Y-107099500D01*
X173761674Y-107047174D01*
X173814000Y-107025500D01*
X176037241Y-107025500D01*
X176089567Y-107047174D01*
X176103720Y-107066997D01*
X176110802Y-107081482D01*
X176110802Y-107081483D01*
X176193519Y-107164200D01*
X176194327Y-107164777D01*
X176194710Y-107165391D01*
X176197853Y-107168534D01*
X176197125Y-107169261D01*
X176224316Y-107212823D01*
X176211548Y-107268002D01*
X176194327Y-107285223D01*
X176193519Y-107285799D01*
X176110802Y-107368516D01*
X176110802Y-107368517D01*
X176103721Y-107383000D01*
X176061270Y-107420490D01*
X176037241Y-107424500D01*
X174835436Y-107424500D01*
X174759014Y-107444977D01*
X174759009Y-107444979D01*
X174709426Y-107473607D01*
X174690488Y-107484540D01*
X173790905Y-108384123D01*
X173738579Y-108405797D01*
X173686253Y-108384123D01*
X173664579Y-108331797D01*
X173679342Y-108287446D01*
X173683354Y-108282086D01*
X173733596Y-108147380D01*
X173733597Y-108147375D01*
X173740000Y-108087828D01*
X173740000Y-107790000D01*
X171240000Y-107790000D01*
X171240000Y-108087828D01*
X171246402Y-108147375D01*
X171246403Y-108147380D01*
X171296645Y-108282087D01*
X171296646Y-108282088D01*
X171382811Y-108397188D01*
X171408287Y-108416260D01*
X171437187Y-108464969D01*
X171423180Y-108519847D01*
X171374471Y-108548747D01*
X171363940Y-108549500D01*
X170905123Y-108549500D01*
X170852797Y-108527826D01*
X170084511Y-107759540D01*
X170015990Y-107719979D01*
X170015985Y-107719977D01*
X169939564Y-107699500D01*
X169939562Y-107699500D01*
X169681250Y-107699500D01*
X169628924Y-107677826D01*
X169619721Y-107666612D01*
X169596327Y-107631601D01*
X169544114Y-107553458D01*
X169446542Y-107455886D01*
X169393568Y-107420490D01*
X169331808Y-107379223D01*
X169204332Y-107326421D01*
X169204322Y-107326418D01*
X169113694Y-107308391D01*
X169068993Y-107299500D01*
X167931007Y-107299500D01*
X167892642Y-107307131D01*
X167795677Y-107326418D01*
X167795667Y-107326421D01*
X167668191Y-107379223D01*
X167553461Y-107455883D01*
X167455883Y-107553461D01*
X167379223Y-107668191D01*
X167326421Y-107795667D01*
X167326418Y-107795677D01*
X167306990Y-107893353D01*
X167299500Y-107931007D01*
X167299500Y-108068993D01*
X167303247Y-108087828D01*
X167326418Y-108204322D01*
X167326421Y-108204332D01*
X167379223Y-108331808D01*
X167422908Y-108397188D01*
X167455886Y-108446542D01*
X167553458Y-108544114D01*
X167668189Y-108620775D01*
X167795672Y-108673580D01*
X167931007Y-108700500D01*
X167931009Y-108700500D01*
X169068991Y-108700500D01*
X169068993Y-108700500D01*
X169204328Y-108673580D01*
X169331811Y-108620775D01*
X169446542Y-108544114D01*
X169544114Y-108446542D01*
X169619721Y-108333387D01*
X169666813Y-108301922D01*
X169681250Y-108300500D01*
X169744877Y-108300500D01*
X169797203Y-108322174D01*
X170565489Y-109090460D01*
X170634012Y-109130022D01*
X170710438Y-109150500D01*
X170789562Y-109150500D01*
X171465500Y-109150500D01*
X171517826Y-109172174D01*
X171539500Y-109224500D01*
X171539500Y-109359748D01*
X171546051Y-109392682D01*
X171551133Y-109418232D01*
X171580608Y-109462343D01*
X171595448Y-109484552D01*
X171639560Y-109514027D01*
X171661767Y-109528866D01*
X171661768Y-109528866D01*
X171661769Y-109528867D01*
X171720252Y-109540500D01*
X172115500Y-109540500D01*
X172167826Y-109562174D01*
X172189500Y-109614500D01*
X172189500Y-111684877D01*
X172167826Y-111737203D01*
X170194540Y-113710488D01*
X170154979Y-113779009D01*
X170154977Y-113779014D01*
X170134500Y-113855435D01*
X170134500Y-119438503D01*
X170112826Y-119490829D01*
X170081982Y-119509316D01*
X170031051Y-119524766D01*
X170031038Y-119524771D01*
X169848549Y-119622315D01*
X169688590Y-119753589D01*
X169688589Y-119753590D01*
X169557315Y-119913549D01*
X169459769Y-120096043D01*
X169399700Y-120294064D01*
X169379417Y-120500000D01*
X169399700Y-120705935D01*
X169413067Y-120750000D01*
X169459768Y-120903954D01*
X169557315Y-121086450D01*
X169688590Y-121246410D01*
X169848550Y-121377685D01*
X170031046Y-121475232D01*
X170229066Y-121535300D01*
X170435000Y-121555583D01*
X170640934Y-121535300D01*
X170838954Y-121475232D01*
X171021450Y-121377685D01*
X171181410Y-121246410D01*
X171312685Y-121086450D01*
X171410232Y-120903954D01*
X171470300Y-120705934D01*
X171490583Y-120500000D01*
X171470300Y-120294066D01*
X171410232Y-120096046D01*
X171312685Y-119913550D01*
X171181410Y-119753590D01*
X171021450Y-119622315D01*
X170976666Y-119598377D01*
X170838961Y-119524771D01*
X170838956Y-119524769D01*
X170838954Y-119524768D01*
X170838950Y-119524766D01*
X170838948Y-119524766D01*
X170788018Y-119509316D01*
X170744237Y-119473386D01*
X170735500Y-119438503D01*
X170735500Y-114050123D01*
X170757174Y-113997797D01*
X171685980Y-113068991D01*
X172730460Y-112024511D01*
X172770021Y-111955989D01*
X172790499Y-111879564D01*
X172790500Y-111879564D01*
X172790500Y-110424976D01*
X179500001Y-110424976D01*
X179510494Y-110527696D01*
X179565642Y-110694121D01*
X179657683Y-110843343D01*
X179657686Y-110843347D01*
X179781653Y-110967314D01*
X179781656Y-110967316D01*
X179930878Y-111059357D01*
X180097302Y-111114505D01*
X180200025Y-111124999D01*
X180650000Y-111124999D01*
X180650000Y-110275000D01*
X179500001Y-110275000D01*
X179500001Y-110424976D01*
X172790500Y-110424976D01*
X172790500Y-109625024D01*
X179500000Y-109625024D01*
X179500000Y-109775000D01*
X180650000Y-109775000D01*
X180650000Y-108925000D01*
X180200029Y-108925000D01*
X180200023Y-108925001D01*
X180097303Y-108935494D01*
X179930878Y-108990642D01*
X179781656Y-109082683D01*
X179657683Y-109206656D01*
X179565642Y-109355878D01*
X179510494Y-109522302D01*
X179500000Y-109625024D01*
X172790500Y-109625024D01*
X172790500Y-109614500D01*
X172812174Y-109562174D01*
X172864500Y-109540500D01*
X173259746Y-109540500D01*
X173259748Y-109540500D01*
X173318231Y-109528867D01*
X173384552Y-109484552D01*
X173428867Y-109418231D01*
X173440500Y-109359748D01*
X173440500Y-109224500D01*
X173462174Y-109172174D01*
X173514500Y-109150500D01*
X173789564Y-109150500D01*
X173789564Y-109150499D01*
X173865989Y-109130021D01*
X173934511Y-109090460D01*
X173990460Y-109034511D01*
X174049971Y-108975000D01*
X175752704Y-108975000D01*
X175752900Y-108977493D01*
X175798718Y-109135199D01*
X175882317Y-109276556D01*
X175998443Y-109392682D01*
X176139800Y-109476281D01*
X176297508Y-109522099D01*
X176297505Y-109522099D01*
X176334359Y-109525000D01*
X176775000Y-109525000D01*
X177275000Y-109525000D01*
X177715641Y-109525000D01*
X177752493Y-109522099D01*
X177910199Y-109476281D01*
X178051556Y-109392682D01*
X178167682Y-109276556D01*
X178251281Y-109135199D01*
X178297099Y-108977493D01*
X178297296Y-108975000D01*
X177275000Y-108975000D01*
X177275000Y-109525000D01*
X176775000Y-109525000D01*
X176775000Y-108975000D01*
X175752704Y-108975000D01*
X174049971Y-108975000D01*
X174977797Y-108047174D01*
X175030123Y-108025500D01*
X175851609Y-108025500D01*
X175903935Y-108047174D01*
X175925609Y-108099500D01*
X175903935Y-108151826D01*
X175882317Y-108173443D01*
X175798718Y-108314800D01*
X175752900Y-108472506D01*
X175752704Y-108475000D01*
X178297296Y-108475000D01*
X178297099Y-108472506D01*
X178251281Y-108314800D01*
X178167682Y-108173443D01*
X178051556Y-108057317D01*
X178027267Y-108042953D01*
X177993261Y-107997661D01*
X177991709Y-107968593D01*
X178000500Y-107908260D01*
X178000500Y-107541740D01*
X177990573Y-107473607D01*
X177939198Y-107368517D01*
X177856483Y-107285802D01*
X177856481Y-107285801D01*
X177855677Y-107285227D01*
X177855293Y-107284612D01*
X177852147Y-107281466D01*
X177852874Y-107280738D01*
X177825684Y-107237183D01*
X177838447Y-107182003D01*
X177855677Y-107164773D01*
X177856477Y-107164200D01*
X177856483Y-107164198D01*
X177939198Y-107081483D01*
X177990573Y-106976393D01*
X178000500Y-106908260D01*
X178000500Y-106541740D01*
X177990573Y-106473607D01*
X177939198Y-106368517D01*
X177856483Y-106285802D01*
X177856482Y-106285801D01*
X177751394Y-106234427D01*
X177683264Y-106224500D01*
X177683260Y-106224500D01*
X176366740Y-106224500D01*
X176366735Y-106224500D01*
X176298606Y-106234427D01*
X176298605Y-106234427D01*
X176193517Y-106285801D01*
X176110802Y-106368516D01*
X176110802Y-106368517D01*
X176103721Y-106383000D01*
X176061270Y-106420490D01*
X176037241Y-106424500D01*
X173580123Y-106424500D01*
X173527797Y-106402826D01*
X172949947Y-105824976D01*
X179500001Y-105824976D01*
X179510494Y-105927696D01*
X179565642Y-106094121D01*
X179657683Y-106243343D01*
X179657686Y-106243347D01*
X179781653Y-106367314D01*
X179781656Y-106367316D01*
X179930878Y-106459357D01*
X180097302Y-106514505D01*
X180200025Y-106524999D01*
X180650000Y-106524999D01*
X180650000Y-105675000D01*
X179500001Y-105675000D01*
X179500001Y-105824976D01*
X172949947Y-105824976D01*
X172884511Y-105759540D01*
X172843125Y-105735646D01*
X172815990Y-105719979D01*
X172815985Y-105719977D01*
X172739564Y-105699500D01*
X172739562Y-105699500D01*
X171874500Y-105699500D01*
X171822174Y-105677826D01*
X171800500Y-105625500D01*
X171800500Y-105555123D01*
X171822174Y-105502797D01*
X172299947Y-105025024D01*
X179500000Y-105025024D01*
X179500000Y-105175000D01*
X180650000Y-105175000D01*
X180650000Y-104325000D01*
X180200029Y-104325000D01*
X180200023Y-104325001D01*
X180097303Y-104335494D01*
X179930878Y-104390642D01*
X179781656Y-104482683D01*
X179657683Y-104606656D01*
X179565642Y-104755878D01*
X179510494Y-104922302D01*
X179500000Y-105025024D01*
X172299947Y-105025024D01*
X172402797Y-104922174D01*
X172455123Y-104900500D01*
X173739564Y-104900500D01*
X173739564Y-104900499D01*
X173815989Y-104880021D01*
X173884511Y-104840460D01*
X173940460Y-104784511D01*
X174590460Y-104134511D01*
X174590805Y-104133912D01*
X174596889Y-104123376D01*
X174596890Y-104123373D01*
X174624819Y-104074999D01*
X174630021Y-104065989D01*
X174650499Y-103989564D01*
X174650500Y-103989564D01*
X174650500Y-103374974D01*
X177900000Y-103374974D01*
X177910494Y-103477696D01*
X177965642Y-103644120D01*
X178057683Y-103793342D01*
X178057686Y-103793346D01*
X178181654Y-103917314D01*
X178181657Y-103917316D01*
X178330879Y-104009357D01*
X178497303Y-104064505D01*
X178600025Y-104074999D01*
X178600027Y-104075000D01*
X179850000Y-104075000D01*
X179850000Y-103075000D01*
X177900000Y-103075000D01*
X177900000Y-103374974D01*
X174650500Y-103374974D01*
X174650500Y-102275025D01*
X177900000Y-102275025D01*
X177900000Y-102575000D01*
X179850000Y-102575000D01*
X179850000Y-101575000D01*
X178600025Y-101575000D01*
X178497303Y-101585494D01*
X178330879Y-101640642D01*
X178181657Y-101732683D01*
X178057683Y-101856657D01*
X177965642Y-102005879D01*
X177910494Y-102172303D01*
X177900000Y-102275025D01*
X174650500Y-102275025D01*
X174650500Y-101249500D01*
X174672174Y-101197174D01*
X174724500Y-101175500D01*
X175904258Y-101175500D01*
X175904266Y-101175500D01*
X175934699Y-101172646D01*
X176062882Y-101127793D01*
X176172150Y-101047150D01*
X176252793Y-100937882D01*
X176297646Y-100809699D01*
X176300500Y-100779266D01*
X176300500Y-100170734D01*
X176297646Y-100140301D01*
X176294610Y-100131626D01*
X176252793Y-100012118D01*
X176252792Y-100012116D01*
X176172153Y-99902853D01*
X176172146Y-99902846D01*
X176062883Y-99822207D01*
X176062881Y-99822206D01*
X175934704Y-99777355D01*
X175934705Y-99777355D01*
X175934700Y-99777354D01*
X175934699Y-99777354D01*
X175904266Y-99774500D01*
X172795734Y-99774500D01*
X172765301Y-99777354D01*
X172765299Y-99777354D01*
X172765295Y-99777355D01*
X172637118Y-99822206D01*
X172637116Y-99822207D01*
X172527853Y-99902846D01*
X172527846Y-99902853D01*
X172451509Y-100006288D01*
X172402998Y-100035519D01*
X172348027Y-100021886D01*
X172339643Y-100014672D01*
X172322174Y-99997203D01*
X172300500Y-99944877D01*
X172300500Y-99399847D01*
X172322174Y-99347521D01*
X172374500Y-99325847D01*
X172413348Y-99336864D01*
X172530878Y-99409357D01*
X172697302Y-99464505D01*
X172800025Y-99474999D01*
X174100000Y-99474999D01*
X174600000Y-99474999D01*
X175899971Y-99474999D01*
X175899976Y-99474998D01*
X176002696Y-99464505D01*
X176169121Y-99409357D01*
X176318343Y-99317316D01*
X176318347Y-99317314D01*
X176442314Y-99193347D01*
X176442316Y-99193343D01*
X176534357Y-99044121D01*
X176589505Y-98877697D01*
X176599999Y-98774975D01*
X176600000Y-98774973D01*
X176600000Y-98725000D01*
X174600000Y-98725000D01*
X174600000Y-99474999D01*
X174100000Y-99474999D01*
X174100000Y-98225000D01*
X174600000Y-98225000D01*
X176599999Y-98225000D01*
X176599999Y-98175029D01*
X176599998Y-98175023D01*
X176589505Y-98072303D01*
X176534357Y-97905878D01*
X176442316Y-97756656D01*
X176442314Y-97756653D01*
X176318347Y-97632686D01*
X176318343Y-97632683D01*
X176169121Y-97540642D01*
X176002697Y-97485494D01*
X175899975Y-97475000D01*
X174600000Y-97475000D01*
X174600000Y-98225000D01*
X174100000Y-98225000D01*
X174100000Y-97475000D01*
X172800029Y-97475000D01*
X172800023Y-97475001D01*
X172697303Y-97485494D01*
X172530878Y-97540642D01*
X172413348Y-97613135D01*
X172357434Y-97622157D01*
X172311517Y-97589000D01*
X172300500Y-97550152D01*
X172300500Y-96674971D01*
X177900000Y-96674971D01*
X177910494Y-96777696D01*
X177965642Y-96944120D01*
X178057683Y-97093342D01*
X178057686Y-97093346D01*
X178181654Y-97217314D01*
X178181657Y-97217316D01*
X178330879Y-97309357D01*
X178497303Y-97364505D01*
X178600025Y-97374999D01*
X178600027Y-97375000D01*
X179850000Y-97375000D01*
X179850000Y-96375000D01*
X177900000Y-96375000D01*
X177900000Y-96674971D01*
X172300500Y-96674971D01*
X172300500Y-95575025D01*
X177900000Y-95575025D01*
X177900000Y-95875000D01*
X179850000Y-95875000D01*
X179850000Y-94875000D01*
X178600025Y-94875000D01*
X178497303Y-94885494D01*
X178330879Y-94940642D01*
X178181657Y-95032683D01*
X178057683Y-95156657D01*
X177965642Y-95305879D01*
X177910494Y-95472303D01*
X177900000Y-95575025D01*
X172300500Y-95575025D01*
X172300500Y-91660438D01*
X172300258Y-91659537D01*
X172300251Y-91659511D01*
X172295157Y-91640499D01*
X172280022Y-91584012D01*
X172252997Y-91537204D01*
X172240462Y-91515492D01*
X172240461Y-91515491D01*
X172240460Y-91515489D01*
X168217174Y-87492203D01*
X168195500Y-87439877D01*
X168195500Y-86561496D01*
X168217174Y-86509170D01*
X168248016Y-86490683D01*
X168298954Y-86475232D01*
X168481450Y-86377685D01*
X168641410Y-86246410D01*
X168772685Y-86086450D01*
X168870232Y-85903954D01*
X168930300Y-85705934D01*
X168941033Y-85596952D01*
X168967732Y-85547004D01*
X169021930Y-85530563D01*
X169071880Y-85557262D01*
X169088395Y-85597757D01*
X169100430Y-85735318D01*
X169100431Y-85735325D01*
X169161566Y-85963483D01*
X169161571Y-85963494D01*
X169261401Y-86177579D01*
X169396888Y-86371075D01*
X169563924Y-86538111D01*
X169757420Y-86673598D01*
X169971505Y-86773428D01*
X169971508Y-86773430D01*
X170185000Y-86830634D01*
X170185000Y-85933012D01*
X170242007Y-85965925D01*
X170369174Y-86000000D01*
X170500826Y-86000000D01*
X170627993Y-85965925D01*
X170685000Y-85933012D01*
X170685000Y-86830634D01*
X170898491Y-86773430D01*
X170898494Y-86773428D01*
X171112579Y-86673598D01*
X171306075Y-86538111D01*
X171473111Y-86371075D01*
X171608598Y-86177579D01*
X171708428Y-85963494D01*
X171708433Y-85963483D01*
X171765636Y-85750000D01*
X170868012Y-85750000D01*
X170900925Y-85692993D01*
X170935000Y-85565826D01*
X170935000Y-85434174D01*
X170900925Y-85307007D01*
X170868012Y-85250000D01*
X171765636Y-85250000D01*
X171765636Y-85249999D01*
X171708432Y-85036512D01*
X171608598Y-84822421D01*
X171473109Y-84628921D01*
X171306075Y-84461888D01*
X171306076Y-84461888D01*
X171112579Y-84326401D01*
X170898494Y-84226571D01*
X170898483Y-84226566D01*
X170685000Y-84169363D01*
X170685000Y-85066988D01*
X170627993Y-85034075D01*
X170500826Y-85000000D01*
X170369174Y-85000000D01*
X170242007Y-85034075D01*
X170185000Y-85066988D01*
X170185000Y-84169363D01*
X170184999Y-84169363D01*
X169971512Y-84226567D01*
X169757421Y-84326401D01*
X169563921Y-84461890D01*
X169396890Y-84628921D01*
X169261401Y-84822421D01*
X169161571Y-85036505D01*
X169161566Y-85036516D01*
X169100431Y-85264674D01*
X169100430Y-85264681D01*
X169088395Y-85402242D01*
X169062243Y-85452479D01*
X169008227Y-85469510D01*
X168957990Y-85443358D01*
X168941033Y-85403046D01*
X168930300Y-85294066D01*
X168870232Y-85096046D01*
X168772685Y-84913550D01*
X168641410Y-84753590D01*
X168481450Y-84622315D01*
X168298954Y-84524768D01*
X168187158Y-84490855D01*
X168100935Y-84464700D01*
X167895000Y-84444417D01*
X167689064Y-84464700D01*
X167491043Y-84524769D01*
X167308549Y-84622315D01*
X167148590Y-84753589D01*
X167148589Y-84753590D01*
X167017315Y-84913549D01*
X166919769Y-85096043D01*
X166859700Y-85294064D01*
X166839417Y-85500000D01*
X166859700Y-85705935D01*
X166869734Y-85739013D01*
X166919768Y-85903954D01*
X167017315Y-86086450D01*
X167148590Y-86246410D01*
X167308550Y-86377685D01*
X167491046Y-86475232D01*
X167541982Y-86490683D01*
X167585762Y-86526612D01*
X167594500Y-86561496D01*
X167594500Y-87634564D01*
X167609025Y-87688771D01*
X167601633Y-87744924D01*
X167556700Y-87779402D01*
X167500547Y-87772010D01*
X167485221Y-87760250D01*
X166384511Y-86659540D01*
X166348955Y-86639012D01*
X166315990Y-86619979D01*
X166315985Y-86619977D01*
X166239564Y-86599500D01*
X166239562Y-86599500D01*
X165821889Y-86599500D01*
X165769563Y-86577826D01*
X165747889Y-86525500D01*
X165769563Y-86473174D01*
X165787003Y-86460239D01*
X165941450Y-86377685D01*
X166101410Y-86246410D01*
X166232685Y-86086450D01*
X166330232Y-85903954D01*
X166390300Y-85705934D01*
X166410583Y-85500000D01*
X166390300Y-85294066D01*
X166330232Y-85096046D01*
X166232685Y-84913550D01*
X166101410Y-84753590D01*
X165941450Y-84622315D01*
X165758954Y-84524768D01*
X165647158Y-84490855D01*
X165560935Y-84464700D01*
X165355000Y-84444417D01*
X165149064Y-84464700D01*
X164951043Y-84524769D01*
X164768549Y-84622315D01*
X164608590Y-84753589D01*
X164608589Y-84753590D01*
X164477315Y-84913549D01*
X164379769Y-85096043D01*
X164319700Y-85294064D01*
X164299417Y-85500000D01*
X164319700Y-85705935D01*
X164329734Y-85739013D01*
X164379768Y-85903954D01*
X164477315Y-86086450D01*
X164608590Y-86246410D01*
X164768550Y-86377685D01*
X164951046Y-86475232D01*
X165001982Y-86490683D01*
X165045762Y-86526612D01*
X165054500Y-86561496D01*
X165054500Y-86794564D01*
X165074978Y-86870988D01*
X165097783Y-86910489D01*
X165097784Y-86910489D01*
X165114537Y-86939507D01*
X165114538Y-86939508D01*
X165114540Y-86939511D01*
X165248203Y-87073174D01*
X165269877Y-87125500D01*
X165248203Y-87177826D01*
X165195877Y-87199500D01*
X163655123Y-87199500D01*
X163602797Y-87177826D01*
X163137174Y-86712203D01*
X163115500Y-86659877D01*
X163115500Y-86561496D01*
X163137174Y-86509170D01*
X163168016Y-86490683D01*
X163218954Y-86475232D01*
X163401450Y-86377685D01*
X163561410Y-86246410D01*
X163692685Y-86086450D01*
X163790232Y-85903954D01*
X163850300Y-85705934D01*
X163870583Y-85500000D01*
X163850300Y-85294066D01*
X163790232Y-85096046D01*
X163692685Y-84913550D01*
X163561410Y-84753590D01*
X163401450Y-84622315D01*
X163218954Y-84524768D01*
X163107158Y-84490855D01*
X163020935Y-84464700D01*
X162815000Y-84444417D01*
X162609064Y-84464700D01*
X162411043Y-84524769D01*
X162228549Y-84622315D01*
X162068590Y-84753589D01*
X162068589Y-84753590D01*
X161937315Y-84913549D01*
X161839769Y-85096043D01*
X161779700Y-85294064D01*
X161759417Y-85500000D01*
X161330583Y-85500000D01*
X161310300Y-85294066D01*
X161250232Y-85096046D01*
X161152685Y-84913550D01*
X161021410Y-84753590D01*
X160861450Y-84622315D01*
X160678954Y-84524768D01*
X160567158Y-84490855D01*
X160480935Y-84464700D01*
X160275000Y-84444417D01*
X160069064Y-84464700D01*
X159871043Y-84524769D01*
X159688549Y-84622315D01*
X159528590Y-84753589D01*
X159528589Y-84753590D01*
X159397315Y-84913549D01*
X159299769Y-85096043D01*
X159239700Y-85294064D01*
X159219417Y-85500000D01*
X158790583Y-85500000D01*
X158770300Y-85294066D01*
X158710232Y-85096046D01*
X158612685Y-84913550D01*
X158481410Y-84753590D01*
X158321450Y-84622315D01*
X158138954Y-84524768D01*
X158027158Y-84490855D01*
X157940935Y-84464700D01*
X157735000Y-84444417D01*
X157529064Y-84464700D01*
X157331043Y-84524769D01*
X157148549Y-84622315D01*
X156988590Y-84753589D01*
X156988589Y-84753590D01*
X156857315Y-84913549D01*
X156759769Y-85096043D01*
X156699700Y-85294064D01*
X156679417Y-85500000D01*
X156250583Y-85500000D01*
X156230300Y-85294066D01*
X156170232Y-85096046D01*
X156072685Y-84913550D01*
X155941410Y-84753590D01*
X155781450Y-84622315D01*
X155598954Y-84524768D01*
X155487158Y-84490855D01*
X155400935Y-84464700D01*
X155195000Y-84444417D01*
X154989064Y-84464700D01*
X154791043Y-84524769D01*
X154608549Y-84622315D01*
X154448590Y-84753589D01*
X154448589Y-84753590D01*
X154317315Y-84913549D01*
X154219769Y-85096043D01*
X154159700Y-85294064D01*
X154139417Y-85500000D01*
X154159700Y-85705935D01*
X154169734Y-85739013D01*
X154219768Y-85903954D01*
X154317315Y-86086450D01*
X154448590Y-86246410D01*
X154608550Y-86377685D01*
X154791046Y-86475232D01*
X154841982Y-86490683D01*
X154885762Y-86526612D01*
X154894500Y-86561496D01*
X154894500Y-87134564D01*
X154914977Y-87210985D01*
X154914979Y-87210990D01*
X154943006Y-87259534D01*
X154943007Y-87259536D01*
X154943010Y-87259540D01*
X154954540Y-87279511D01*
X155559540Y-87884511D01*
X155615489Y-87940460D01*
X155684011Y-87980021D01*
X155684012Y-87980021D01*
X155684014Y-87980022D01*
X155722224Y-87990260D01*
X155760435Y-88000499D01*
X155760436Y-88000500D01*
X155760438Y-88000500D01*
X156898179Y-88000500D01*
X156950505Y-88022174D01*
X156972179Y-88074500D01*
X156950505Y-88126826D01*
X156937027Y-88137483D01*
X156872268Y-88177426D01*
X156752426Y-88297268D01*
X156663450Y-88441520D01*
X156661940Y-88444759D01*
X156620178Y-88483017D01*
X156563595Y-88480540D01*
X156542551Y-88465803D01*
X156478219Y-88401471D01*
X156358126Y-88340281D01*
X156358125Y-88340280D01*
X156258489Y-88324500D01*
X156258488Y-88324500D01*
X155741512Y-88324500D01*
X155741511Y-88324500D01*
X155641874Y-88340280D01*
X155641873Y-88340281D01*
X155521780Y-88401471D01*
X155426471Y-88496780D01*
X155365281Y-88616873D01*
X155365280Y-88616874D01*
X155349500Y-88716511D01*
X155349500Y-89283488D01*
X155365280Y-89383125D01*
X155365281Y-89383126D01*
X155418597Y-89487766D01*
X155426472Y-89503220D01*
X155521780Y-89598528D01*
X155598845Y-89637794D01*
X155641869Y-89659717D01*
X155641871Y-89659717D01*
X155641874Y-89659719D01*
X155641876Y-89659719D01*
X155647410Y-89661517D01*
X155646382Y-89664680D01*
X155685325Y-89688493D01*
X155699500Y-89732047D01*
X155699500Y-89767951D01*
X155677826Y-89820277D01*
X155646665Y-89836171D01*
X155647416Y-89838480D01*
X155641873Y-89840281D01*
X155521780Y-89901471D01*
X155426471Y-89996780D01*
X155365281Y-90116873D01*
X155365280Y-90116874D01*
X155349500Y-90216511D01*
X155349500Y-90783488D01*
X155365280Y-90883125D01*
X155365281Y-90883126D01*
X155412362Y-90975529D01*
X155426472Y-91003220D01*
X155521780Y-91098528D01*
X155591302Y-91133951D01*
X155611296Y-91144139D01*
X155648078Y-91187206D01*
X155643634Y-91243669D01*
X155633626Y-91258532D01*
X155574623Y-91326625D01*
X155535841Y-91411547D01*
X155514835Y-91457543D01*
X155512325Y-91474999D01*
X155494353Y-91600000D01*
X155507946Y-91694545D01*
X155493939Y-91749423D01*
X155445230Y-91778323D01*
X155390352Y-91764316D01*
X155382373Y-91757402D01*
X155122174Y-91497203D01*
X155100500Y-91444877D01*
X155100500Y-88060436D01*
X155100499Y-88060435D01*
X155080022Y-87984014D01*
X155080020Y-87984009D01*
X155040459Y-87915488D01*
X153784511Y-86659540D01*
X153748955Y-86639012D01*
X153715990Y-86619979D01*
X153715985Y-86619977D01*
X153639564Y-86599500D01*
X153639562Y-86599500D01*
X153121889Y-86599500D01*
X153069563Y-86577826D01*
X153047889Y-86525500D01*
X153069563Y-86473174D01*
X153087003Y-86460239D01*
X153241450Y-86377685D01*
X153401410Y-86246410D01*
X153532685Y-86086450D01*
X153630232Y-85903954D01*
X153690300Y-85705934D01*
X153710583Y-85500000D01*
X153690300Y-85294066D01*
X153630232Y-85096046D01*
X153532685Y-84913550D01*
X153401410Y-84753590D01*
X153241450Y-84622315D01*
X153058954Y-84524768D01*
X152947158Y-84490855D01*
X152860935Y-84464700D01*
X152655000Y-84444417D01*
X152449064Y-84464700D01*
X152251043Y-84524769D01*
X152068549Y-84622315D01*
X151908590Y-84753589D01*
X151908589Y-84753590D01*
X151777315Y-84913549D01*
X151679769Y-85096043D01*
X151619700Y-85294064D01*
X151599417Y-85500000D01*
X151619700Y-85705935D01*
X151629734Y-85739013D01*
X151679768Y-85903954D01*
X151777315Y-86086450D01*
X151908590Y-86246410D01*
X152068550Y-86377685D01*
X152251046Y-86475232D01*
X152301982Y-86490683D01*
X152345762Y-86526612D01*
X152354500Y-86561496D01*
X152354500Y-86694564D01*
X152374977Y-86770985D01*
X152374981Y-86770994D01*
X152382493Y-86784005D01*
X152382498Y-86784012D01*
X152414540Y-86839511D01*
X152648203Y-87073174D01*
X152669877Y-87125500D01*
X152648203Y-87177826D01*
X152595877Y-87199500D01*
X150955123Y-87199500D01*
X150902797Y-87177826D01*
X150437174Y-86712203D01*
X150415500Y-86659877D01*
X150415500Y-86561496D01*
X150437174Y-86509170D01*
X150468016Y-86490683D01*
X150518954Y-86475232D01*
X150701450Y-86377685D01*
X150861410Y-86246410D01*
X150992685Y-86086450D01*
X151090232Y-85903954D01*
X151150300Y-85705934D01*
X151170583Y-85500000D01*
X151150300Y-85294066D01*
X151090232Y-85096046D01*
X150992685Y-84913550D01*
X150861410Y-84753590D01*
X150701450Y-84622315D01*
X150518954Y-84524768D01*
X150407158Y-84490855D01*
X150320935Y-84464700D01*
X150115000Y-84444417D01*
X149909064Y-84464700D01*
X149711043Y-84524769D01*
X149528549Y-84622315D01*
X149368590Y-84753589D01*
X149368589Y-84753590D01*
X149237315Y-84913549D01*
X149139769Y-85096043D01*
X149079700Y-85294064D01*
X149059417Y-85500000D01*
X148625500Y-85500000D01*
X148625500Y-84630252D01*
X148613867Y-84571769D01*
X148569552Y-84505448D01*
X148547343Y-84490608D01*
X148503232Y-84461133D01*
X148503233Y-84461133D01*
X148473989Y-84455316D01*
X148444748Y-84449500D01*
X146705252Y-84449500D01*
X146676010Y-84455316D01*
X146646767Y-84461133D01*
X146580449Y-84505447D01*
X146580447Y-84505449D01*
X146536133Y-84571767D01*
X146524500Y-84630253D01*
X136348099Y-84630253D01*
X136302024Y-84568364D01*
X136293851Y-84559702D01*
X135043678Y-85809873D01*
X134953446Y-85685680D01*
X134814320Y-85546554D01*
X134690125Y-85456320D01*
X135937179Y-84209265D01*
X135937179Y-84209263D01*
X135844131Y-84131187D01*
X135817979Y-84080950D01*
X135835010Y-84026934D01*
X135885247Y-84000782D01*
X135891697Y-84000500D01*
X137026000Y-84000500D01*
X137078326Y-84022174D01*
G37*
%TD.AperFunction*%
%TD*%
M02*
