%TF.GenerationSoftware,KiCad,Pcbnew,8.0.3-8.0.3-0~ubuntu23.10.1*%
%TF.CreationDate,2024-10-02T15:45:30-04:00*%
%TF.ProjectId,nPM1300-Stamp-Carrier,6e504d31-3330-4302-9d53-74616d702d43,rev?*%
%TF.SameCoordinates,Original*%
%TF.FileFunction,Legend,Top*%
%TF.FilePolarity,Positive*%
%FSLAX46Y46*%
G04 Gerber Fmt 4.6, Leading zero omitted, Abs format (unit mm)*
G04 Created by KiCad (PCBNEW 8.0.3-8.0.3-0~ubuntu23.10.1) date 2024-10-02 15:45:30*
%MOMM*%
%LPD*%
G01*
G04 APERTURE LIST*
G04 Aperture macros list*
%AMRoundRect*
0 Rectangle with rounded corners*
0 $1 Rounding radius*
0 $2 $3 $4 $5 $6 $7 $8 $9 X,Y pos of 4 corners*
0 Add a 4 corners polygon primitive as box body*
4,1,4,$2,$3,$4,$5,$6,$7,$8,$9,$2,$3,0*
0 Add four circle primitives for the rounded corners*
1,1,$1+$1,$2,$3*
1,1,$1+$1,$4,$5*
1,1,$1+$1,$6,$7*
1,1,$1+$1,$8,$9*
0 Add four rect primitives between the rounded corners*
20,1,$1+$1,$2,$3,$4,$5,0*
20,1,$1+$1,$4,$5,$6,$7,0*
20,1,$1+$1,$6,$7,$8,$9,0*
20,1,$1+$1,$8,$9,$2,$3,0*%
G04 Aperture macros list end*
%ADD10C,0.120000*%
%ADD11C,2.900000*%
%ADD12C,5.000000*%
%ADD13RoundRect,0.150000X0.150000X0.625000X-0.150000X0.625000X-0.150000X-0.625000X0.150000X-0.625000X0*%
%ADD14RoundRect,0.250000X0.350000X0.650000X-0.350000X0.650000X-0.350000X-0.650000X0.350000X-0.650000X0*%
%ADD15R,1.500000X1.000000*%
%ADD16RoundRect,0.135000X-0.185000X0.135000X-0.185000X-0.135000X0.185000X-0.135000X0.185000X0.135000X0*%
%ADD17RoundRect,0.225000X-0.225000X-0.250000X0.225000X-0.250000X0.225000X0.250000X-0.225000X0.250000X0*%
%ADD18RoundRect,0.150000X0.625000X-0.150000X0.625000X0.150000X-0.625000X0.150000X-0.625000X-0.150000X0*%
%ADD19RoundRect,0.250000X0.650000X-0.350000X0.650000X0.350000X-0.650000X0.350000X-0.650000X-0.350000X0*%
%ADD20R,1.000000X1.500000*%
%ADD21RoundRect,0.150000X-0.512500X-0.150000X0.512500X-0.150000X0.512500X0.150000X-0.512500X0.150000X0*%
%ADD22RoundRect,0.135000X0.185000X-0.135000X0.185000X0.135000X-0.185000X0.135000X-0.185000X-0.135000X0*%
%ADD23R,0.650000X1.050000*%
%ADD24RoundRect,0.225000X0.225000X0.250000X-0.225000X0.250000X-0.225000X-0.250000X0.225000X-0.250000X0*%
%ADD25O,2.000000X1.000000*%
%ADD26O,1.000000X2.000000*%
%ADD27RoundRect,0.150000X-0.150000X-0.625000X0.150000X-0.625000X0.150000X0.625000X-0.150000X0.625000X0*%
%ADD28RoundRect,0.250000X-0.350000X-0.650000X0.350000X-0.650000X0.350000X0.650000X-0.350000X0.650000X0*%
%ADD29R,1.500000X1.100000*%
%ADD30C,0.650000*%
%ADD31R,1.450000X0.600000*%
%ADD32R,1.450000X0.300000*%
%ADD33O,2.100000X1.000000*%
%ADD34O,1.600000X1.000000*%
%ADD35RoundRect,0.250000X1.500000X-0.250000X1.500000X0.250000X-1.500000X0.250000X-1.500000X-0.250000X0*%
%ADD36RoundRect,0.250001X1.449999X-0.499999X1.449999X0.499999X-1.449999X0.499999X-1.449999X-0.499999X0*%
%ADD37R,1.700000X1.700000*%
%ADD38O,1.700000X1.700000*%
G04 APERTURE END LIST*
D10*
%TO.C,J3*%
X137890000Y-85785000D02*
X137890000Y-88285000D01*
X137890000Y-88285000D02*
X138940000Y-88285000D01*
X142940000Y-83815000D02*
X139060000Y-83815000D01*
X143060000Y-88285000D02*
X143060000Y-89275000D01*
X144110000Y-85785000D02*
X144110000Y-88285000D01*
X144110000Y-88285000D02*
X143060000Y-88285000D01*
%TO.C,JP4*%
X153000000Y-114100000D02*
X155000000Y-114100000D01*
X153000000Y-116900000D02*
X153000000Y-114100000D01*
X155000000Y-114100000D02*
X155000000Y-116900000D01*
X155000000Y-116900000D02*
X153000000Y-116900000D01*
%TO.C,R1*%
X163620000Y-114846359D02*
X163620000Y-115153641D01*
X164380000Y-114846359D02*
X164380000Y-115153641D01*
%TO.C,C2*%
X156634420Y-88490000D02*
X156915580Y-88490000D01*
X156634420Y-89510000D02*
X156915580Y-89510000D01*
%TO.C,J5*%
X177240000Y-105115000D02*
X177240000Y-106165000D01*
X177240000Y-109285000D02*
X176250000Y-109285000D01*
X177240000Y-110335000D02*
X177240000Y-109285000D01*
X179740000Y-105115000D02*
X177240000Y-105115000D01*
X179740000Y-110335000D02*
X177240000Y-110335000D01*
X181710000Y-109165000D02*
X181710000Y-106285000D01*
%TO.C,JP5*%
X143100000Y-100500000D02*
X145900000Y-100500000D01*
X143100000Y-102500000D02*
X143100000Y-100500000D01*
X145900000Y-100500000D02*
X145900000Y-102500000D01*
X145900000Y-102500000D02*
X143100000Y-102500000D01*
%TO.C,U3*%
X140600000Y-101340000D02*
X139800000Y-101340000D01*
X140600000Y-101340000D02*
X141400000Y-101340000D01*
X140600000Y-104460000D02*
X139800000Y-104460000D01*
X140600000Y-104460000D02*
X141400000Y-104460000D01*
X139300000Y-101390000D02*
X139060000Y-101060000D01*
X139540000Y-101060000D01*
X139300000Y-101390000D01*
G36*
X139300000Y-101390000D02*
G01*
X139060000Y-101060000D01*
X139540000Y-101060000D01*
X139300000Y-101390000D01*
G37*
%TO.C,R4*%
X157620000Y-115153641D02*
X157620000Y-114846359D01*
X158380000Y-115153641D02*
X158380000Y-114846359D01*
%TO.C,SW1*%
X142750000Y-106800000D02*
X142750000Y-111200000D01*
X144550000Y-106800000D02*
X144450000Y-106800000D01*
X144550000Y-111200000D02*
X144450000Y-111200000D01*
X146250000Y-111200000D02*
X146250000Y-106800000D01*
%TO.C,R2*%
X161620000Y-114846359D02*
X161620000Y-115153641D01*
X162380000Y-114846359D02*
X162380000Y-115153641D01*
%TO.C,C3*%
X151140580Y-88490000D02*
X150859420Y-88490000D01*
X151140580Y-89510000D02*
X150859420Y-89510000D01*
%TO.C,C4*%
X151140580Y-89990000D02*
X150859420Y-89990000D01*
X151140580Y-91010000D02*
X150859420Y-91010000D01*
%TO.C,R3*%
X155620000Y-115153641D02*
X155620000Y-114846359D01*
X156380000Y-115153641D02*
X156380000Y-114846359D01*
%TO.C,U1*%
X149850000Y-112150000D02*
X149850000Y-112000000D01*
X150000000Y-93850000D02*
X149000000Y-93850000D01*
X150000000Y-112150000D02*
X149850000Y-112150000D01*
X168000000Y-93850000D02*
X168150000Y-93850000D01*
X168000000Y-112150000D02*
X168150000Y-112150000D01*
X168150000Y-93850000D02*
X168150000Y-94000000D01*
X168150000Y-112150000D02*
X168150000Y-112000000D01*
%TO.C,J2*%
X137890000Y-117715000D02*
X138940000Y-117715000D01*
X137890000Y-120215000D02*
X137890000Y-117715000D01*
X138940000Y-117715000D02*
X138940000Y-116725000D01*
X139060000Y-122185000D02*
X142940000Y-122185000D01*
X144110000Y-117715000D02*
X143060000Y-117715000D01*
X144110000Y-120215000D02*
X144110000Y-117715000D01*
%TO.C,D1*%
X164950000Y-88200000D02*
X161050000Y-88200000D01*
X165500000Y-90400000D02*
X165500000Y-91200000D01*
X165500044Y-91200000D02*
X161050000Y-91200000D01*
%TO.C,JP3*%
X171490000Y-106790000D02*
X173490000Y-106790000D01*
X171490000Y-109590000D02*
X171490000Y-106790000D01*
X173490000Y-106790000D02*
X173490000Y-109590000D01*
X173490000Y-109590000D02*
X171490000Y-109590000D01*
%TO.C,J1*%
X129100000Y-98200000D02*
X129100000Y-107600000D01*
X131000000Y-98200000D02*
X129100000Y-98200000D01*
X131000000Y-107600000D02*
X129100000Y-107600000D01*
X134900000Y-98200000D02*
X132900000Y-98200000D01*
X134900000Y-107600000D02*
X132900000Y-107600000D01*
%TO.C,J4*%
X173890000Y-95415000D02*
X173890000Y-96435000D01*
X173890000Y-96435000D02*
X175490000Y-96435000D01*
X173890000Y-102515000D02*
X175490000Y-102515000D01*
X173890000Y-103535000D02*
X173890000Y-102515000D01*
X175490000Y-96435000D02*
X175490000Y-97715000D01*
X175490000Y-101235000D02*
X172600000Y-101235000D01*
X175490000Y-102515000D02*
X175490000Y-101235000D01*
X178140000Y-95415000D02*
X173890000Y-95415000D01*
X178140000Y-103535000D02*
X173890000Y-103535000D01*
X181710000Y-101815000D02*
X181710000Y-97135000D01*
%TO.C,C1*%
X156634420Y-89990000D02*
X156915580Y-89990000D01*
X156634420Y-91010000D02*
X156915580Y-91010000D01*
%TO.C,SW2*%
X142750000Y-94800000D02*
X142750000Y-99200000D01*
X144450000Y-94800000D02*
X144550000Y-94800000D01*
X144450000Y-99200000D02*
X144550000Y-99200000D01*
X146250000Y-99200000D02*
X146250000Y-94800000D01*
%TD*%
%LPC*%
D11*
%TO.C,H4*%
X179000000Y-119500000D03*
D12*
X179000000Y-119500000D03*
%TD*%
D13*
%TO.C,J3*%
X142500000Y-88500000D03*
X141500000Y-88500000D03*
X140500000Y-88500000D03*
X139500000Y-88500000D03*
D14*
X143800000Y-84625000D03*
X138200000Y-84625000D03*
%TD*%
D15*
%TO.C,JP4*%
X154000000Y-114850000D03*
X154000000Y-116150000D03*
%TD*%
D16*
%TO.C,R1*%
X164000000Y-114490000D03*
X164000000Y-115510000D03*
%TD*%
D17*
%TO.C,C2*%
X156000000Y-89000000D03*
X157550000Y-89000000D03*
%TD*%
D18*
%TO.C,J5*%
X177025000Y-108725000D03*
X177025000Y-107725000D03*
X177025000Y-106725000D03*
D19*
X180900000Y-110025000D03*
X180900000Y-105425000D03*
%TD*%
D20*
%TO.C,JP5*%
X143850000Y-101500000D03*
X145150000Y-101500000D03*
%TD*%
D21*
%TO.C,U3*%
X139462500Y-101950000D03*
X139462500Y-102900000D03*
X139462500Y-103850000D03*
X141737500Y-103850000D03*
X141737500Y-102900000D03*
X141737500Y-101950000D03*
%TD*%
D22*
%TO.C,R4*%
X158000000Y-115510000D03*
X158000000Y-114490000D03*
%TD*%
D23*
%TO.C,SW1*%
X143425000Y-111075000D03*
X143425000Y-106925000D03*
X145575000Y-111075000D03*
X145575000Y-106950000D03*
%TD*%
D16*
%TO.C,R2*%
X162000000Y-114490000D03*
X162000000Y-115510000D03*
%TD*%
D24*
%TO.C,C3*%
X151775000Y-89000000D03*
X150225000Y-89000000D03*
%TD*%
%TO.C,C4*%
X151775000Y-90500000D03*
X150225000Y-90500000D03*
%TD*%
D22*
%TO.C,R3*%
X156000000Y-115510000D03*
X156000000Y-114490000D03*
%TD*%
D25*
%TO.C,U1*%
X149500000Y-96000000D03*
X149500000Y-98000000D03*
X149500000Y-100000000D03*
X149500000Y-102000000D03*
X149500000Y-104000000D03*
X149500000Y-106000000D03*
X149500000Y-108000000D03*
X149500000Y-110000000D03*
D26*
X152000000Y-112500000D03*
X154000000Y-112500000D03*
X156000000Y-112500000D03*
X158000000Y-112500000D03*
X160000000Y-112500000D03*
X162000000Y-112500000D03*
X164000000Y-112500000D03*
X166000000Y-112500000D03*
D25*
X168500000Y-110000000D03*
X168500000Y-108000000D03*
X168500000Y-106000000D03*
X168500000Y-104000000D03*
X168500000Y-102000000D03*
X168500000Y-100000000D03*
X168500000Y-98000000D03*
X168500000Y-96000000D03*
D26*
X166000000Y-93500000D03*
X164000000Y-93500000D03*
X162000000Y-93500000D03*
X160000000Y-93500000D03*
X158000000Y-93500000D03*
X156000000Y-93500000D03*
X154000000Y-93500000D03*
X152000000Y-93500000D03*
%TD*%
D27*
%TO.C,J2*%
X139500000Y-117500000D03*
X140500000Y-117500000D03*
X141500000Y-117500000D03*
X142500000Y-117500000D03*
D28*
X138200000Y-121375000D03*
X143800000Y-121375000D03*
%TD*%
D11*
%TO.C,H3*%
X179000000Y-86500000D03*
D12*
X179000000Y-86500000D03*
%TD*%
D29*
%TO.C,D1*%
X164500000Y-90450000D03*
X161500000Y-90450000D03*
X161500000Y-88950000D03*
X164500000Y-88950000D03*
%TD*%
D15*
%TO.C,JP3*%
X172490000Y-108840000D03*
X172490000Y-107540000D03*
%TD*%
D30*
%TO.C,J1*%
X135600000Y-100010000D03*
X135600000Y-105790000D03*
D31*
X137045000Y-99650000D03*
X137045000Y-100450000D03*
D32*
X137045000Y-101650000D03*
X137045000Y-102650000D03*
X137045000Y-103150000D03*
X137045000Y-104150000D03*
D31*
X137045000Y-105350000D03*
X137045000Y-106150000D03*
X137045000Y-106150000D03*
X137045000Y-105350000D03*
D32*
X137045000Y-104650000D03*
X137045000Y-103650000D03*
X137045000Y-102150000D03*
X137045000Y-101150000D03*
D31*
X137045000Y-100450000D03*
X137045000Y-99650000D03*
D33*
X136130000Y-98580000D03*
D34*
X131950000Y-98580000D03*
D33*
X136130000Y-107220000D03*
D34*
X131950000Y-107220000D03*
%TD*%
D35*
%TO.C,J4*%
X174350000Y-100475000D03*
X174350000Y-98475000D03*
D36*
X180100000Y-102825000D03*
X180100000Y-96125000D03*
%TD*%
D11*
%TO.C,H2*%
X134000000Y-119500000D03*
D12*
X134000000Y-119500000D03*
%TD*%
D11*
%TO.C,H1*%
X134000000Y-86500000D03*
D12*
X134000000Y-86500000D03*
%TD*%
D17*
%TO.C,C1*%
X156000000Y-90500000D03*
X157550000Y-90500000D03*
%TD*%
D23*
%TO.C,SW2*%
X145575000Y-94925000D03*
X145575000Y-99075000D03*
X143425000Y-94925000D03*
X143425000Y-99050000D03*
%TD*%
D37*
%TO.C,J8*%
X147575000Y-85500000D03*
D38*
X150115000Y-85500000D03*
X152655000Y-85500000D03*
X155195000Y-85500000D03*
X157735000Y-85500000D03*
X160275000Y-85500000D03*
X162815000Y-85500000D03*
X165355000Y-85500000D03*
X167895000Y-85500000D03*
X170435000Y-85500000D03*
%TD*%
D37*
%TO.C,J6*%
X147575000Y-120500000D03*
D38*
X150115000Y-120500000D03*
X152655000Y-120500000D03*
X155195000Y-120500000D03*
X157735000Y-120500000D03*
X160275000Y-120500000D03*
X162815000Y-120500000D03*
X165355000Y-120500000D03*
X167895000Y-120500000D03*
X170435000Y-120500000D03*
%TD*%
%LPD*%
M02*
