%TF.GenerationSoftware,KiCad,Pcbnew,8.0.3-8.0.3-0~ubuntu23.10.1*%
%TF.CreationDate,2024-10-02T15:45:30-04:00*%
%TF.ProjectId,nPM1300-Stamp-Carrier,6e504d31-3330-4302-9d53-74616d702d43,rev?*%
%TF.SameCoordinates,Original*%
%TF.FileFunction,Paste,Top*%
%TF.FilePolarity,Positive*%
%FSLAX46Y46*%
G04 Gerber Fmt 4.6, Leading zero omitted, Abs format (unit mm)*
G04 Created by KiCad (PCBNEW 8.0.3-8.0.3-0~ubuntu23.10.1) date 2024-10-02 15:45:30*
%MOMM*%
%LPD*%
G01*
G04 APERTURE LIST*
G04 Aperture macros list*
%AMRoundRect*
0 Rectangle with rounded corners*
0 $1 Rounding radius*
0 $2 $3 $4 $5 $6 $7 $8 $9 X,Y pos of 4 corners*
0 Add a 4 corners polygon primitive as box body*
4,1,4,$2,$3,$4,$5,$6,$7,$8,$9,$2,$3,0*
0 Add four circle primitives for the rounded corners*
1,1,$1+$1,$2,$3*
1,1,$1+$1,$4,$5*
1,1,$1+$1,$6,$7*
1,1,$1+$1,$8,$9*
0 Add four rect primitives between the rounded corners*
20,1,$1+$1,$2,$3,$4,$5,0*
20,1,$1+$1,$4,$5,$6,$7,0*
20,1,$1+$1,$6,$7,$8,$9,0*
20,1,$1+$1,$8,$9,$2,$3,0*%
G04 Aperture macros list end*
%ADD10RoundRect,0.150000X0.150000X0.625000X-0.150000X0.625000X-0.150000X-0.625000X0.150000X-0.625000X0*%
%ADD11RoundRect,0.250000X0.350000X0.650000X-0.350000X0.650000X-0.350000X-0.650000X0.350000X-0.650000X0*%
%ADD12RoundRect,0.135000X-0.185000X0.135000X-0.185000X-0.135000X0.185000X-0.135000X0.185000X0.135000X0*%
%ADD13RoundRect,0.225000X-0.225000X-0.250000X0.225000X-0.250000X0.225000X0.250000X-0.225000X0.250000X0*%
%ADD14RoundRect,0.150000X0.625000X-0.150000X0.625000X0.150000X-0.625000X0.150000X-0.625000X-0.150000X0*%
%ADD15RoundRect,0.250000X0.650000X-0.350000X0.650000X0.350000X-0.650000X0.350000X-0.650000X-0.350000X0*%
%ADD16RoundRect,0.150000X-0.512500X-0.150000X0.512500X-0.150000X0.512500X0.150000X-0.512500X0.150000X0*%
%ADD17RoundRect,0.135000X0.185000X-0.135000X0.185000X0.135000X-0.185000X0.135000X-0.185000X-0.135000X0*%
%ADD18R,0.650000X1.050000*%
%ADD19RoundRect,0.225000X0.225000X0.250000X-0.225000X0.250000X-0.225000X-0.250000X0.225000X-0.250000X0*%
%ADD20O,2.000000X1.000000*%
%ADD21O,1.000000X2.000000*%
%ADD22RoundRect,0.150000X-0.150000X-0.625000X0.150000X-0.625000X0.150000X0.625000X-0.150000X0.625000X0*%
%ADD23RoundRect,0.250000X-0.350000X-0.650000X0.350000X-0.650000X0.350000X0.650000X-0.350000X0.650000X0*%
%ADD24R,1.500000X1.100000*%
%ADD25R,1.450000X0.600000*%
%ADD26R,1.450000X0.300000*%
%ADD27RoundRect,0.250000X1.500000X-0.250000X1.500000X0.250000X-1.500000X0.250000X-1.500000X-0.250000X0*%
%ADD28RoundRect,0.250001X1.449999X-0.499999X1.449999X0.499999X-1.449999X0.499999X-1.449999X-0.499999X0*%
G04 APERTURE END LIST*
D10*
%TO.C,J3*%
X142500000Y-88500000D03*
X141500000Y-88500000D03*
X140500000Y-88500000D03*
X139500000Y-88500000D03*
D11*
X143800000Y-84625000D03*
X138200000Y-84625000D03*
%TD*%
D12*
%TO.C,R1*%
X164000000Y-114490000D03*
X164000000Y-115510000D03*
%TD*%
D13*
%TO.C,C2*%
X156000000Y-89000000D03*
X157550000Y-89000000D03*
%TD*%
D14*
%TO.C,J5*%
X177025000Y-108725000D03*
X177025000Y-107725000D03*
X177025000Y-106725000D03*
D15*
X180900000Y-110025000D03*
X180900000Y-105425000D03*
%TD*%
D16*
%TO.C,U3*%
X139462500Y-101950000D03*
X139462500Y-102900000D03*
X139462500Y-103850000D03*
X141737500Y-103850000D03*
X141737500Y-102900000D03*
X141737500Y-101950000D03*
%TD*%
D17*
%TO.C,R4*%
X158000000Y-115510000D03*
X158000000Y-114490000D03*
%TD*%
D18*
%TO.C,SW1*%
X143425000Y-111075000D03*
X143425000Y-106925000D03*
X145575000Y-111075000D03*
X145575000Y-106950000D03*
%TD*%
D12*
%TO.C,R2*%
X162000000Y-114490000D03*
X162000000Y-115510000D03*
%TD*%
D19*
%TO.C,C3*%
X151775000Y-89000000D03*
X150225000Y-89000000D03*
%TD*%
%TO.C,C4*%
X151775000Y-90500000D03*
X150225000Y-90500000D03*
%TD*%
D17*
%TO.C,R3*%
X156000000Y-115510000D03*
X156000000Y-114490000D03*
%TD*%
D20*
%TO.C,U1*%
X149500000Y-96000000D03*
X149500000Y-98000000D03*
X149500000Y-100000000D03*
X149500000Y-102000000D03*
X149500000Y-104000000D03*
X149500000Y-106000000D03*
X149500000Y-108000000D03*
X149500000Y-110000000D03*
D21*
X152000000Y-112500000D03*
X154000000Y-112500000D03*
X156000000Y-112500000D03*
X158000000Y-112500000D03*
X160000000Y-112500000D03*
X162000000Y-112500000D03*
X164000000Y-112500000D03*
X166000000Y-112500000D03*
D20*
X168500000Y-110000000D03*
X168500000Y-108000000D03*
X168500000Y-106000000D03*
X168500000Y-104000000D03*
X168500000Y-102000000D03*
X168500000Y-100000000D03*
X168500000Y-98000000D03*
X168500000Y-96000000D03*
D21*
X166000000Y-93500000D03*
X164000000Y-93500000D03*
X162000000Y-93500000D03*
X160000000Y-93500000D03*
X158000000Y-93500000D03*
X156000000Y-93500000D03*
X154000000Y-93500000D03*
X152000000Y-93500000D03*
%TD*%
D22*
%TO.C,J2*%
X139500000Y-117500000D03*
X140500000Y-117500000D03*
X141500000Y-117500000D03*
X142500000Y-117500000D03*
D23*
X138200000Y-121375000D03*
X143800000Y-121375000D03*
%TD*%
D24*
%TO.C,D1*%
X164500000Y-90450000D03*
X161500000Y-90450000D03*
X161500000Y-88950000D03*
X164500000Y-88950000D03*
%TD*%
D25*
%TO.C,J1*%
X137045000Y-99650000D03*
X137045000Y-100450000D03*
D26*
X137045000Y-101650000D03*
X137045000Y-102650000D03*
X137045000Y-103150000D03*
X137045000Y-104150000D03*
D25*
X137045000Y-105350000D03*
X137045000Y-106150000D03*
X137045000Y-106150000D03*
X137045000Y-105350000D03*
D26*
X137045000Y-104650000D03*
X137045000Y-103650000D03*
X137045000Y-102150000D03*
X137045000Y-101150000D03*
D25*
X137045000Y-100450000D03*
X137045000Y-99650000D03*
%TD*%
D27*
%TO.C,J4*%
X174350000Y-100475000D03*
X174350000Y-98475000D03*
D28*
X180100000Y-102825000D03*
X180100000Y-96125000D03*
%TD*%
D13*
%TO.C,C1*%
X156000000Y-90500000D03*
X157550000Y-90500000D03*
%TD*%
D18*
%TO.C,SW2*%
X145575000Y-94925000D03*
X145575000Y-99075000D03*
X143425000Y-94925000D03*
X143425000Y-99050000D03*
%TD*%
M02*
